{"glyphs":{"0":{"ha":770,"x_min":47,"x_max":723,"o":"m 391 746 q 114 608 208 746 q 47 369 47 509 q 180 50 47 152 q 384 -14 264 -14 q 659 126 566 -14 q 723 363 723 224 q 582 692 723 594 q 391 746 502 746 m 388 23 q 264 134 296 23 q 243 363 243 213 q 328 694 243 640 q 387 709 353 709 q 515 549 488 709 q 528 370 528 477 q 461 50 528 111 q 388 23 431 23 z "},"1":{"ha":600,"x_min":27,"x_max":579,"o":"m 316 732 l 27 549 l 52 511 l 247 629 l 247 47 l 75 35 l 75 0 l 579 0 q 547 34 579 28 q 537 35 541 35 l 429 47 l 429 732 l 316 732 z "},"2":{"ha":669,"x_min":41,"x_max":594,"o":"m 126 136 q 229 245 126 191 q 311 285 255 259 q 515 406 463 355 q 582 547 582 469 q 430 728 582 684 q 302 746 372 746 q 81 671 149 746 q 45 576 45 631 q 96 487 45 506 q 125 483 111 483 q 209 548 197 483 q 213 600 212 564 q 239 693 216 673 q 292 709 259 709 q 393 616 372 709 q 399 559 399 589 q 296 335 399 414 q 182 264 279 323 q 62 146 91 209 q 41 39 41 100 l 41 0 l 593 0 l 594 255 l 563 255 l 538 195 q 484 138 518 146 q 438 136 469 136 l 126 136 z "},"3":{"ha":731,"x_min":53,"x_max":680,"o":"m 643 696 l 643 732 l 96 732 l 94 484 l 127 484 l 152 547 q 210 605 172 597 q 258 608 227 608 l 476 608 l 241 339 l 277 311 q 368 330 323 330 q 498 201 477 330 q 502 148 502 175 q 317 -72 499 -71 q 225 -5 240 -72 q 220 46 222 11 q 194 136 216 115 q 140 152 174 152 q 56 90 69 152 q 53 65 53 77 q 186 -88 53 -43 q 331 -109 251 -109 q 623 8 526 -109 q 680 167 680 79 q 575 340 680 285 q 416 374 510 374 q 330 366 372 374 l 643 696 z "},"4":{"ha":722,"x_min":7,"x_max":663,"o":"m 663 -88 q 646 -53 663 -56 q 631 -52 639 -52 l 545 -52 l 545 117 l 663 117 l 663 157 l 545 157 l 545 445 l 514 445 l 495 387 q 427 324 477 332 q 387 321 411 321 l 370 321 l 370 159 l 68 160 q 172 245 100 187 q 471 515 396 429 q 549 665 549 605 q 483 749 549 731 q 446 753 465 753 q 353 699 380 753 q 315 583 347 688 q 102 244 254 392 q 7 160 57 201 l 15 119 l 370 118 l 370 -52 l 216 -52 l 216 -88 l 663 -88 z "},"5":{"ha":709,"x_min":75,"x_max":663,"o":"m 663 155 q 530 377 663 313 q 385 407 467 407 q 178 349 274 406 l 178 601 q 369 589 286 589 q 557 627 515 589 q 595 787 594 674 l 559 787 q 505 731 543 742 q 427 723 477 723 q 274 728 391 723 q 132 735 184 732 l 132 327 l 178 292 q 330 353 254 353 q 471 254 433 353 q 487 153 487 209 q 349 -72 487 -60 q 334 -72 340 -72 q 251 -8 263 -72 q 247 39 248 7 q 220 132 243 111 q 161 149 198 149 q 77 91 94 149 q 75 64 75 79 q 189 -85 75 -39 q 320 -109 248 -109 q 590 -20 494 -109 q 663 155 663 49 z "},"6":{"ha":749,"x_min":61,"x_max":701,"o":"m 701 258 q 605 456 701 387 q 427 506 533 506 q 244 452 330 505 q 412 804 255 803 q 502 745 487 804 q 509 704 506 732 q 540 621 515 640 q 600 606 562 606 q 682 665 665 606 q 686 696 686 680 q 600 807 686 764 q 427 841 528 841 q 119 662 216 841 q 61 408 61 553 q 222 28 61 127 q 378 -14 292 -14 q 652 109 564 -14 q 701 258 701 176 m 247 235 q 392 461 248 460 q 517 350 492 461 q 525 250 525 308 q 408 24 525 42 q 384 23 396 23 q 252 155 274 23 q 247 235 247 191 z "},"7":{"ha":658,"x_min":54,"x_max":651,"o":"m 651 692 l 651 732 l 57 732 l 54 487 l 88 487 l 113 549 q 172 605 132 598 q 218 608 189 608 l 541 608 q 302 282 514 568 q 149 28 172 107 q 142 -20 142 3 q 208 -104 142 -87 q 241 -109 224 -109 q 330 -54 305 -109 q 370 94 339 -34 q 617 643 439 377 q 651 692 635 669 z "},"8":{"ha":739,"x_min":68,"x_max":665,"o":"m 349 -14 q 593 68 500 -14 q 665 225 663 133 q 533 419 665 334 q 479 452 509 434 q 608 613 589 515 q 610 644 610 629 q 486 819 610 772 q 357 841 429 841 q 141 762 218 841 q 85 624 85 705 q 212 437 85 522 q 244 415 227 426 q 76 255 107 365 q 68 199 68 228 q 156 39 68 102 q 349 -14 233 -14 m 235 681 q 324 793 235 768 q 382 800 353 800 q 537 730 490 800 q 562 646 562 693 q 477 498 562 562 q 439 473 458 484 q 275 585 313 543 q 235 681 235 629 m 117 203 q 206 355 117 300 q 289 389 243 377 q 448 288 414 317 q 513 167 511 231 q 415 41 513 75 q 327 27 374 27 q 164 91 228 27 q 117 203 117 138 z "},"9":{"ha":749,"x_min":47,"x_max":688,"o":"m 688 351 q 538 696 688 598 q 358 746 461 746 q 87 625 165 746 q 47 484 47 564 q 180 273 47 332 q 339 243 248 243 q 505 289 433 244 q 437 -30 502 43 q 339 -72 399 -72 q 244 -5 262 -72 q 236 39 240 8 q 205 125 228 106 q 149 141 184 141 q 64 87 84 141 q 58 57 58 72 q 155 -71 58 -20 q 321 -109 229 -109 q 591 16 491 -109 q 688 351 688 138 m 224 507 q 362 709 225 708 q 505 492 503 707 q 361 288 503 289 q 225 457 239 288 q 224 507 224 481 z "},"A":{"ha":878,"x_min":0,"x_max":878,"o":"m 878 0 q 860 35 878 33 q 845 37 853 37 l 804 37 l 484 814 l 384 814 l 87 37 l 0 37 l 0 0 l 250 0 q 232 35 250 33 q 217 37 225 37 l 141 37 l 239 297 l 509 297 l 610 37 l 514 37 l 514 0 l 878 0 m 492 338 l 255 338 l 372 650 l 492 338 z "},"Æ":{"ha":1225,"x_min":0,"x_max":1164,"o":"m 338 357 l 593 774 l 593 357 l 338 357 m 252 0 q 235 34 252 31 q 220 35 228 35 l 142 35 l 313 316 l 593 316 l 593 37 l 483 37 l 483 0 l 1158 0 l 1164 267 l 1124 267 l 1093 167 q 959 38 1057 50 q 932 37 945 37 l 783 37 l 783 399 l 1039 399 l 1039 439 l 783 439 l 783 777 l 932 777 q 1093 650 1054 777 q 1095 647 1095 648 l 1124 547 l 1164 547 l 1158 814 l 559 814 l 81 35 l 0 35 l 0 0 l 252 0 z "},"Á":{"ha":878,"x_min":0,"x_max":878,"o":"m 878 0 q 860 35 878 33 q 845 37 853 37 l 804 37 l 484 814 l 384 814 l 87 37 l 0 37 l 0 0 l 250 0 q 232 35 250 33 q 217 37 225 37 l 141 37 l 239 297 l 509 297 l 610 37 l 514 37 l 514 0 l 878 0 m 492 338 l 255 338 l 372 650 l 492 338 m 570 925 q 600 982 598 947 q 560 1053 600 1028 q 524 1063 543 1063 q 481 1048 502 1062 q 408 970 464 1035 q 298 859 355 909 l 319 829 q 496 892 358 848 q 570 925 549 911 z "},"Ă":{"ha":878,"x_min":0,"x_max":878,"o":"m 878 0 q 860 35 878 33 q 845 37 853 37 l 804 37 l 484 814 l 384 814 l 87 37 l 0 37 l 0 0 l 250 0 q 232 35 250 33 q 217 37 225 37 l 141 37 l 239 297 l 509 297 l 610 37 l 514 37 l 514 0 l 878 0 m 492 338 l 255 338 l 372 650 l 492 338 m 439 971 q 576 1027 552 971 q 583 1047 581 1036 l 612 1047 q 524 878 612 921 q 435 859 486 859 q 269 974 305 859 q 258 1047 258 1009 l 285 1047 q 439 971 302 971 z "},"Â":{"ha":878,"x_min":0,"x_max":878,"o":"m 878 0 q 860 35 878 33 q 845 37 853 37 l 804 37 l 484 814 l 384 814 l 87 37 l 0 37 l 0 0 l 250 0 q 232 35 250 33 q 217 37 225 37 l 141 37 l 239 297 l 509 297 l 610 37 l 514 37 l 514 0 l 878 0 m 492 338 l 255 338 l 372 650 l 492 338 m 605 854 l 624 880 q 515 1006 587 917 q 445 1058 477 1054 q 434 1059 439 1059 q 359 1015 396 1059 q 335 985 351 1005 q 247 880 286 921 l 266 854 q 437 933 336 894 q 605 854 526 898 z "},"Ä":{"ha":878,"x_min":0,"x_max":878,"o":"m 878 0 q 860 35 878 33 q 845 37 853 37 l 804 37 l 484 814 l 384 814 l 87 37 l 0 37 l 0 0 l 250 0 q 232 35 250 33 q 217 37 225 37 l 141 37 l 239 297 l 509 297 l 610 37 l 514 37 l 514 0 l 878 0 m 492 338 l 255 338 l 372 650 l 492 338 m 399 945 q 350 1027 399 1001 q 308 1038 330 1038 q 225 987 251 1038 q 216 945 216 967 q 266 865 216 890 q 308 856 286 856 q 388 902 361 856 q 399 945 399 924 m 652 945 q 602 1027 652 1001 q 559 1038 581 1038 q 480 989 506 1038 q 469 945 469 968 q 518 865 469 891 q 559 856 537 856 q 642 903 616 856 q 652 945 652 924 z "},"À":{"ha":878,"x_min":0,"x_max":878,"o":"m 878 0 q 860 35 878 33 q 845 37 853 37 l 804 37 l 484 814 l 384 814 l 87 37 l 0 37 l 0 0 l 250 0 q 232 35 250 33 q 217 37 225 37 l 141 37 l 239 297 l 509 297 l 610 37 l 514 37 l 514 0 l 878 0 m 492 338 l 255 338 l 372 650 l 492 338 m 582 859 q 446 1001 524 909 q 399 1048 418 1035 q 357 1063 377 1063 q 289 1017 312 1063 q 281 982 281 1000 q 311 925 282 945 q 441 875 331 910 q 562 829 514 850 l 582 859 z "},"Ā":{"ha":878,"x_min":0,"x_max":878,"o":"m 878 0 q 860 35 878 33 q 845 37 853 37 l 804 37 l 484 814 l 384 814 l 87 37 l 0 37 l 0 0 l 250 0 q 232 35 250 33 q 217 37 225 37 l 141 37 l 239 297 l 509 297 l 610 37 l 514 37 l 514 0 l 878 0 m 492 338 l 255 338 l 372 650 l 492 338 m 221 909 l 655 909 l 655 983 l 221 983 l 221 909 z "},"Ą":{"ha":878,"x_min":0,"x_max":878,"o":"m 878 0 q 860 35 878 33 q 845 37 853 37 l 804 37 l 484 814 l 384 814 l 87 37 l 0 37 l 0 0 l 250 0 q 232 35 250 33 q 217 37 225 37 l 141 37 l 239 297 l 509 297 l 610 37 l 514 37 l 514 0 l 769 0 q 581 -133 604 -38 q 576 -160 576 -146 q 659 -252 576 -228 q 723 -260 689 -260 q 856 -212 811 -259 l 840 -189 q 769 -220 802 -220 q 722 -152 723 -217 q 789 -35 722 -90 q 849 0 817 -14 l 878 0 m 492 338 l 255 338 l 372 650 l 492 338 z "},"Å":{"ha":878,"x_min":0,"x_max":878,"o":"m 878 0 q 860 35 878 33 q 845 37 853 37 l 804 37 l 487 808 q 595 903 578 826 q 600 933 600 918 q 519 1044 600 1015 q 444 1057 486 1057 q 289 977 321 1057 q 281 932 281 955 q 363 815 281 845 q 382 810 373 812 l 87 37 l 0 37 l 0 0 l 250 0 q 232 35 250 33 q 217 37 225 37 l 141 37 l 239 297 l 509 297 l 610 37 l 514 37 l 514 0 l 878 0 m 492 338 l 255 338 l 372 650 l 492 338 m 385 929 q 439 1024 387 1023 q 495 932 495 1023 q 439 836 494 837 q 385 929 385 837 z "},"Ã":{"ha":878,"x_min":0,"x_max":878,"o":"m 878 0 q 860 35 878 33 q 845 37 853 37 l 804 37 l 484 814 l 384 814 l 87 37 l 0 37 l 0 0 l 250 0 q 232 35 250 33 q 217 37 225 37 l 141 37 l 239 297 l 509 297 l 610 37 l 514 37 l 514 0 l 878 0 m 492 338 l 255 338 l 372 650 l 492 338 m 353 1061 q 465 1015 393 1061 q 555 977 525 977 q 629 1051 610 979 l 658 1047 q 575 882 648 920 q 529 871 553 871 q 415 918 488 871 q 331 955 358 955 q 254 887 273 955 q 252 880 254 883 l 225 884 q 308 1050 235 1013 q 353 1061 330 1061 z "},"B":{"ha":834,"x_min":27,"x_max":800,"o":"m 739 631 q 600 798 739 757 q 467 814 541 814 l 27 814 l 27 777 l 136 777 l 136 37 l 27 37 l 27 0 l 491 0 q 760 110 677 0 q 800 235 800 167 q 636 429 800 385 q 574 441 606 437 q 730 575 696 480 q 739 631 739 604 m 391 777 q 543 620 541 774 q 448 465 543 492 q 401 460 426 460 l 326 460 l 326 777 l 391 777 m 437 422 q 581 320 545 422 q 593 244 593 285 q 452 39 593 60 q 416 37 434 37 l 326 37 l 326 422 l 437 422 z "},"C":{"ha":814,"x_min":41,"x_max":787,"o":"m 739 53 q 762 -4 738 1 q 787 -7 772 -7 l 787 260 l 742 260 q 564 37 692 72 q 486 27 529 27 q 270 222 313 27 q 254 414 254 300 q 496 787 255 785 q 685 682 624 787 q 735 553 713 632 l 783 553 l 779 821 q 736 799 743 821 q 735 764 734 785 q 475 827 617 827 q 126 669 247 827 q 41 407 41 555 q 153 113 41 232 q 471 -14 274 -14 q 739 53 610 -14 z "},"Ć":{"ha":814,"x_min":41,"x_max":787,"o":"m 739 53 q 762 -4 738 1 q 787 -7 772 -7 l 787 260 l 742 260 q 564 37 692 72 q 486 27 529 27 q 270 222 313 27 q 254 414 254 300 q 496 787 255 785 q 685 682 624 787 q 735 553 713 632 l 783 553 l 779 821 q 736 799 743 821 q 735 764 734 785 q 475 827 617 827 q 126 669 247 827 q 41 407 41 555 q 153 113 41 232 q 471 -14 274 -14 q 739 53 610 -14 m 547 1020 q 576 1077 575 1042 q 537 1147 576 1123 q 500 1158 519 1158 q 458 1143 479 1157 q 385 1065 441 1130 q 275 954 332 1004 l 296 924 q 473 987 335 943 q 547 1020 526 1006 z "},"Č":{"ha":814,"x_min":41,"x_max":787,"o":"m 739 53 q 762 -4 738 1 q 787 -7 772 -7 l 787 260 l 742 260 q 564 37 692 72 q 486 27 529 27 q 270 222 313 27 q 254 414 254 300 q 496 787 255 785 q 685 682 624 787 q 735 553 713 632 l 783 553 l 779 821 q 736 799 743 821 q 735 764 734 785 q 475 827 617 827 q 126 669 247 827 q 41 407 41 555 q 153 113 41 232 q 471 -14 274 -14 q 739 53 610 -14 m 414 951 q 498 1001 454 951 q 529 1038 507 1010 q 617 1139 581 1100 l 597 1166 q 414 1081 511 1118 q 228 1166 298 1127 l 208 1139 q 321 1009 239 1108 q 400 952 366 958 q 414 951 407 951 z "},"Ç":{"ha":814,"x_min":41,"x_max":787,"o":"m 739 53 q 762 -4 738 1 q 787 -7 772 -7 l 787 260 l 742 260 q 564 37 692 72 q 486 27 529 27 q 270 222 313 27 q 254 414 254 300 q 496 787 255 785 q 685 682 624 787 q 735 553 713 632 l 783 553 l 779 821 q 736 799 743 821 q 735 764 734 785 q 475 827 617 827 q 126 669 247 827 q 41 407 41 555 q 153 113 41 232 q 401 -9 251 11 l 349 -115 l 368 -129 q 433 -104 401 -104 q 486 -165 480 -104 q 487 -182 487 -174 q 435 -269 487 -259 q 425 -270 430 -270 q 336 -218 377 -269 l 315 -237 q 467 -309 369 -308 q 624 -236 582 -309 q 639 -183 639 -212 q 570 -84 639 -115 q 481 -66 532 -66 q 406 -81 441 -66 l 435 -12 q 471 -14 449 -14 q 739 53 610 -14 z "},"D":{"ha":909,"x_min":27,"x_max":861,"o":"m 27 814 l 27 777 l 136 777 l 136 37 l 27 37 l 27 0 l 431 0 q 742 114 620 0 q 861 404 861 227 q 690 742 861 631 q 427 814 578 814 l 27 814 m 431 777 q 621 637 574 777 q 648 411 648 552 q 536 62 648 129 q 429 37 492 37 l 326 37 l 326 777 l 431 777 z "},"Ď":{"ha":909,"x_min":27,"x_max":861,"o":"m 27 814 l 27 777 l 136 777 l 136 37 l 27 37 l 27 0 l 431 0 q 742 114 620 0 q 861 404 861 227 q 690 742 861 631 q 427 814 578 814 l 27 814 m 431 777 q 621 637 574 777 q 648 411 648 552 q 536 62 648 129 q 429 37 492 37 l 326 37 l 326 777 l 431 777 m 446 856 q 530 906 487 856 q 562 943 540 916 q 650 1044 613 1005 l 629 1072 q 446 986 544 1023 q 260 1072 331 1032 l 240 1044 q 354 914 271 1013 q 433 857 399 863 q 446 856 439 856 z "},"Đ":{"ha":909,"x_min":27,"x_max":861,"o":"m 27 814 l 27 777 l 136 777 l 136 452 l 34 452 l 34 391 l 136 391 l 136 37 l 27 37 l 27 0 l 431 0 q 742 114 620 0 q 861 404 861 227 q 690 742 861 631 q 427 814 578 814 l 27 814 m 431 777 q 621 637 574 777 q 648 411 648 552 q 536 62 648 129 q 429 37 492 37 l 326 37 l 326 391 l 441 391 l 441 452 l 326 452 l 326 777 l 431 777 z "},"E":{"ha":772,"x_min":27,"x_max":711,"o":"m 711 553 l 705 814 l 27 814 l 27 777 l 136 777 l 136 37 l 27 37 l 27 0 l 705 0 l 711 260 l 671 260 l 640 167 q 528 42 605 62 q 479 37 505 37 l 326 37 l 326 399 l 586 399 l 586 439 l 326 439 l 326 777 l 479 777 q 632 671 590 777 q 642 647 637 659 l 671 553 l 711 553 z "},"É":{"ha":772,"x_min":27,"x_max":711,"o":"m 711 553 l 705 814 l 27 814 l 27 777 l 136 777 l 136 37 l 27 37 l 27 0 l 705 0 l 711 260 l 671 260 l 640 167 q 528 42 605 62 q 479 37 505 37 l 326 37 l 326 399 l 586 399 l 586 439 l 326 439 l 326 777 l 479 777 q 632 671 590 777 q 642 647 637 659 l 671 553 l 711 553 m 541 939 q 571 996 570 960 q 532 1066 571 1042 q 495 1077 514 1077 q 453 1062 473 1076 q 380 983 435 1048 q 270 872 327 922 l 290 842 q 468 906 330 861 q 541 939 521 925 z "},"Ě":{"ha":772,"x_min":27,"x_max":711,"o":"m 711 553 l 705 814 l 27 814 l 27 777 l 136 777 l 136 37 l 27 37 l 27 0 l 705 0 l 711 260 l 671 260 l 640 167 q 528 42 605 62 q 479 37 505 37 l 326 37 l 326 399 l 586 399 l 586 439 l 326 439 l 326 777 l 479 777 q 632 671 590 777 q 642 647 637 659 l 671 553 l 711 553 m 406 856 q 490 906 446 856 q 521 943 499 916 q 609 1044 572 1005 l 589 1072 q 406 986 503 1023 q 220 1072 290 1032 l 199 1044 q 313 914 231 1013 q 392 857 358 863 q 406 856 399 856 z "},"Ê":{"ha":772,"x_min":27,"x_max":711,"o":"m 711 553 l 705 814 l 27 814 l 27 777 l 136 777 l 136 37 l 27 37 l 27 0 l 705 0 l 711 260 l 671 260 l 640 167 q 528 42 605 62 q 479 37 505 37 l 326 37 l 326 399 l 586 399 l 586 439 l 326 439 l 326 777 l 479 777 q 632 671 590 777 q 642 647 637 659 l 671 553 l 711 553 m 574 854 l 593 880 q 484 1006 556 917 q 414 1058 446 1054 q 403 1059 408 1059 q 328 1015 365 1059 q 304 985 320 1005 q 216 880 255 921 l 235 854 q 406 933 305 894 q 574 854 495 898 z "},"Ë":{"ha":772,"x_min":27,"x_max":711,"o":"m 711 553 l 705 814 l 27 814 l 27 777 l 136 777 l 136 37 l 27 37 l 27 0 l 705 0 l 711 260 l 671 260 l 640 167 q 528 42 605 62 q 479 37 505 37 l 326 37 l 326 399 l 586 399 l 586 439 l 326 439 l 326 777 l 479 777 q 632 671 590 777 q 642 647 637 659 l 671 553 l 711 553 m 368 945 q 319 1027 368 1001 q 277 1038 298 1038 q 194 987 220 1038 q 184 945 184 967 q 235 865 184 890 q 277 856 255 856 q 357 902 330 856 q 368 945 368 924 m 621 945 q 571 1027 621 1001 q 528 1038 549 1038 q 449 989 475 1038 q 438 945 438 968 q 487 865 438 891 q 528 856 506 856 q 610 903 585 856 q 621 945 621 924 z "},"Ė":{"ha":772,"x_min":27,"x_max":711,"o":"m 711 553 l 705 814 l 27 814 l 27 777 l 136 777 l 136 37 l 27 37 l 27 0 l 705 0 l 711 260 l 671 260 l 640 167 q 528 42 605 62 q 479 37 505 37 l 326 37 l 326 399 l 586 399 l 586 439 l 326 439 l 326 777 l 479 777 q 632 671 590 777 q 642 647 637 659 l 671 553 l 711 553 m 505 937 q 452 1025 505 997 q 403 1039 429 1039 q 315 986 345 1039 q 302 937 302 963 q 355 850 302 878 q 403 838 378 838 q 491 888 463 838 q 505 937 505 911 z "},"È":{"ha":772,"x_min":27,"x_max":711,"o":"m 711 553 l 705 814 l 27 814 l 27 777 l 136 777 l 136 37 l 27 37 l 27 0 l 705 0 l 711 260 l 671 260 l 640 167 q 528 42 605 62 q 479 37 505 37 l 326 37 l 326 399 l 586 399 l 586 439 l 326 439 l 326 777 l 479 777 q 632 671 590 777 q 642 647 637 659 l 671 553 l 711 553 m 551 859 q 415 1001 492 909 q 368 1048 387 1035 q 326 1063 346 1063 q 258 1017 281 1063 q 250 982 250 1000 q 279 925 251 945 q 410 875 300 910 q 530 829 483 850 l 551 859 z "},"Ē":{"ha":772,"x_min":27,"x_max":711,"o":"m 711 553 l 705 814 l 27 814 l 27 777 l 136 777 l 136 37 l 27 37 l 27 0 l 705 0 l 711 260 l 671 260 l 640 167 q 528 42 605 62 q 479 37 505 37 l 326 37 l 326 399 l 586 399 l 586 439 l 326 439 l 326 777 l 479 777 q 632 671 590 777 q 642 647 637 659 l 671 553 l 711 553 m 190 909 l 624 909 l 624 983 l 190 983 l 190 909 z "},"Ę":{"ha":772,"x_min":27,"x_max":711,"o":"m 711 553 l 705 814 l 27 814 l 27 777 l 136 777 l 136 37 l 27 37 l 27 0 l 612 0 q 423 -133 446 -38 q 419 -160 419 -146 q 502 -252 419 -228 q 566 -260 532 -260 q 699 -212 654 -259 l 682 -189 q 612 -220 644 -220 q 564 -152 566 -217 q 632 -35 564 -90 q 692 0 659 -14 l 705 0 l 711 260 l 671 260 l 640 167 q 528 42 605 62 q 479 37 505 37 l 326 37 l 326 399 l 586 399 l 586 439 l 326 439 l 326 777 l 479 777 q 632 671 590 777 q 642 647 637 659 l 671 553 l 711 553 z "},"Ð":{"ha":909,"x_min":27,"x_max":861,"o":"m 27 814 l 27 777 l 136 777 l 136 452 l 34 452 l 34 391 l 136 391 l 136 37 l 27 37 l 27 0 l 431 0 q 742 114 620 0 q 861 404 861 227 q 690 742 861 631 q 427 814 578 814 l 27 814 m 431 777 q 621 637 574 777 q 648 411 648 552 q 536 62 648 129 q 429 37 492 37 l 326 37 l 326 391 l 441 391 l 441 452 l 326 452 l 326 777 l 431 777 z "},"€":{"ha":836,"x_min":7,"x_max":788,"o":"m 788 142 q 739 212 788 194 q 704 218 723 218 q 609 160 633 218 q 597 126 604 149 q 549 45 578 64 q 477 27 521 27 q 339 145 374 27 q 315 339 319 216 l 575 339 l 587 380 l 313 380 l 313 404 l 313 445 l 602 445 l 614 486 l 315 486 q 430 776 327 734 q 488 787 457 787 q 591 726 568 787 q 602 689 597 713 q 644 610 618 628 q 707 595 669 595 q 781 644 764 595 q 785 671 785 658 q 708 784 785 739 q 513 827 632 827 q 174 656 286 827 q 109 486 125 581 l 19 486 l 7 445 l 103 445 q 102 400 102 429 l 102 380 l 19 380 l 7 339 l 106 339 q 258 57 127 153 q 492 -14 355 -14 q 764 79 693 -14 q 788 142 788 110 z "},"F":{"ha":718,"x_min":27,"x_max":711,"o":"m 486 0 l 486 37 l 326 37 l 326 399 l 586 399 l 586 439 l 326 439 l 326 777 l 479 777 q 640 650 601 777 q 642 647 642 648 l 671 547 l 711 547 l 705 814 l 27 814 l 27 777 l 136 777 l 136 37 l 27 37 l 27 0 l 486 0 z "},"G":{"ha":943,"x_min":47,"x_max":916,"o":"m 525 374 l 525 338 l 640 338 l 640 79 q 492 30 578 30 q 279 203 327 30 q 258 404 258 285 q 471 784 258 761 q 503 785 487 785 q 749 529 697 785 q 749 526 749 528 l 791 526 l 785 814 l 658 788 q 461 827 564 827 q 159 712 275 827 q 47 410 47 598 q 222 54 47 167 q 465 -12 328 -12 q 663 28 574 -12 l 827 0 l 827 338 l 916 338 l 916 374 l 525 374 z "},"Ğ":{"ha":943,"x_min":47,"x_max":916,"o":"m 525 374 l 525 338 l 640 338 l 640 79 q 492 30 578 30 q 279 203 327 30 q 258 404 258 285 q 471 784 258 761 q 503 785 487 785 q 749 529 697 785 q 749 526 749 528 l 791 526 l 785 814 l 658 788 q 461 827 564 827 q 159 712 275 827 q 47 410 47 598 q 222 54 47 167 q 465 -12 328 -12 q 663 28 574 -12 l 827 0 l 827 338 l 916 338 l 916 374 l 525 374 m 488 971 q 625 1027 601 971 q 632 1047 629 1036 l 661 1047 q 572 878 661 921 q 484 859 534 859 q 317 974 354 859 q 307 1047 307 1009 l 334 1047 q 488 971 351 971 z "},"H":{"ha":996,"x_min":27,"x_max":968,"o":"m 434 0 q 397 37 426 34 l 326 37 l 326 399 l 670 399 l 670 37 l 562 37 l 562 0 l 968 0 q 932 37 960 34 l 860 37 l 860 777 l 968 777 l 968 814 l 562 814 l 562 777 l 670 777 l 670 439 l 326 439 l 326 777 l 434 777 l 434 814 l 27 814 l 27 777 l 136 777 l 136 37 l 27 37 l 27 0 l 434 0 z "},"I":{"ha":461,"x_min":27,"x_max":434,"o":"m 434 0 q 397 37 426 34 l 326 37 l 326 777 l 434 777 l 434 814 l 27 814 l 27 777 l 136 777 l 136 37 l 27 37 l 27 0 l 434 0 z "},"Í":{"ha":461,"x_min":27,"x_max":434,"o":"m 434 0 q 397 37 426 34 l 326 37 l 326 777 l 434 777 l 434 814 l 27 814 l 27 777 l 136 777 l 136 37 l 27 37 l 27 0 l 434 0 m 359 925 q 389 982 388 947 q 350 1053 389 1028 q 313 1063 332 1063 q 271 1048 292 1062 q 198 970 254 1035 q 88 859 145 909 l 109 829 q 286 892 148 848 q 359 925 339 911 z "},"Î":{"ha":461,"x_min":27,"x_max":434,"o":"m 434 0 q 397 37 426 34 l 326 37 l 326 777 l 434 777 l 434 814 l 27 814 l 27 777 l 136 777 l 136 37 l 27 37 l 27 0 l 434 0 m 395 854 l 414 880 q 305 1006 377 917 q 235 1058 267 1054 q 224 1059 229 1059 q 149 1015 186 1059 q 125 985 141 1005 q 37 880 76 921 l 56 854 q 227 933 126 894 q 395 854 316 898 z "},"Ï":{"ha":461,"x_min":5,"x_max":442,"o":"m 434 0 q 397 37 426 34 l 326 37 l 326 777 l 434 777 l 434 814 l 27 814 l 27 777 l 136 777 l 136 37 l 27 37 l 27 0 l 434 0 m 189 945 q 140 1027 189 1001 q 98 1038 119 1038 q 15 987 41 1038 q 5 945 5 967 q 56 865 5 890 q 98 856 76 856 q 178 902 151 856 q 189 945 189 924 m 442 945 q 392 1027 442 1001 q 349 1038 370 1038 q 270 989 296 1038 q 259 945 259 968 q 308 865 259 891 q 349 856 327 856 q 431 903 406 856 q 442 945 442 924 z "},"İ":{"ha":461,"x_min":27,"x_max":434,"o":"m 434 0 q 397 37 426 34 l 326 37 l 326 777 l 434 777 l 434 814 l 27 814 l 27 777 l 136 777 l 136 37 l 27 37 l 27 0 l 434 0 m 326 937 q 273 1025 326 997 q 224 1039 250 1039 q 136 986 165 1039 q 123 937 123 963 q 176 850 123 878 q 224 838 199 838 q 312 888 283 838 q 326 937 326 911 z "},"Ì":{"ha":461,"x_min":27,"x_max":434,"o":"m 434 0 q 397 37 426 34 l 326 37 l 326 777 l 434 777 l 434 814 l 27 814 l 27 777 l 136 777 l 136 37 l 27 37 l 27 0 l 434 0 m 372 859 q 236 1001 313 909 q 189 1048 208 1035 q 146 1063 167 1063 q 79 1017 102 1063 q 71 982 71 1000 q 100 925 72 945 q 231 875 121 910 q 351 829 304 850 l 372 859 z "},"Ī":{"ha":461,"x_min":11,"x_max":445,"o":"m 434 0 q 397 37 426 34 l 326 37 l 326 777 l 434 777 l 434 814 l 27 814 l 27 777 l 136 777 l 136 37 l 27 37 l 27 0 l 434 0 m 11 909 l 445 909 l 445 983 l 11 983 l 11 909 z "},"Į":{"ha":461,"x_min":27,"x_max":434,"o":"m 434 0 q 397 37 426 34 l 326 37 l 326 777 l 434 777 l 434 814 l 27 814 l 27 777 l 136 777 l 136 37 l 27 37 l 27 0 l 327 0 q 138 -133 161 -38 q 134 -160 134 -146 q 217 -252 134 -228 q 281 -260 247 -260 q 414 -212 369 -259 l 397 -189 q 327 -220 359 -220 q 279 -152 281 -217 q 347 -35 279 -90 q 407 0 374 -14 l 434 0 z "},"J":{"ha":566,"x_min":-34,"x_max":545,"o":"m 545 777 l 545 814 l 132 814 l 132 777 l 254 777 l 254 262 q 220 24 254 62 q 182 8 203 8 q 136 52 146 8 q 132 76 134 60 q 95 159 122 140 q 39 172 73 172 q -30 125 -14 172 q -34 98 -34 111 q 37 0 -34 35 q 167 -27 90 -27 q 414 113 350 -27 q 444 270 444 179 l 444 777 l 545 777 z "},"K":{"ha":887,"x_min":27,"x_max":887,"o":"m 434 0 q 397 37 426 34 l 326 37 l 326 362 l 369 401 l 628 -1 l 887 0 q 850 37 879 34 l 838 37 l 507 528 l 713 713 q 802 776 774 769 q 819 777 811 777 q 854 800 852 777 q 856 814 856 807 l 605 814 l 605 777 l 713 777 l 326 427 l 326 777 l 434 777 l 434 814 l 27 814 l 27 777 l 136 777 l 136 37 l 27 37 l 27 0 l 434 0 z "},"L":{"ha":697,"x_min":27,"x_max":697,"o":"m 692 0 l 697 294 l 658 294 l 618 167 q 537 50 590 76 q 465 37 506 37 l 326 37 l 326 777 l 441 777 l 441 814 l 27 814 l 27 777 l 136 777 l 136 37 l 27 37 l 27 0 l 692 0 z "},"Ĺ":{"ha":697,"x_min":27,"x_max":697,"o":"m 692 0 l 697 294 l 658 294 l 618 167 q 537 50 590 76 q 465 37 506 37 l 326 37 l 326 777 l 441 777 l 441 814 l 27 814 l 27 777 l 136 777 l 136 37 l 27 37 l 27 0 l 692 0 m 487 925 q 517 982 515 947 q 477 1053 517 1028 q 441 1063 460 1063 q 399 1048 419 1062 q 326 970 381 1035 q 216 859 273 909 l 236 829 q 414 892 275 848 q 487 925 467 911 z "},"Ľ":{"ha":697,"x_min":27,"x_max":697,"o":"m 692 0 l 697 294 l 658 294 l 618 167 q 537 50 590 76 q 465 37 506 37 l 326 37 l 326 777 l 441 777 l 441 814 l 27 814 l 27 777 l 136 777 l 136 37 l 27 37 l 27 0 l 692 0 m 244 856 q 328 906 285 856 q 359 943 338 916 q 448 1044 411 1005 l 427 1072 q 244 986 342 1023 q 58 1072 129 1032 l 38 1044 q 152 914 69 1013 q 231 857 197 863 q 244 856 237 856 z "},"Ł":{"ha":699,"x_min":5,"x_max":697,"o":"m 692 0 l 697 294 l 658 294 l 618 167 q 537 50 590 76 q 465 37 506 37 l 326 37 l 326 363 l 585 507 l 562 549 l 326 419 l 326 777 l 441 777 l 441 814 l 27 814 l 27 777 l 136 777 l 136 315 l 5 243 l 28 199 l 136 259 l 136 37 l 27 37 l 27 0 l 692 0 z "},"M":{"ha":1089,"x_min":14,"x_max":1076,"o":"m 1076 814 l 784 814 l 541 231 l 256 814 l 14 814 l 14 777 l 122 777 l 122 37 l 14 37 l 14 0 l 288 0 q 251 37 279 34 l 179 37 l 179 548 l 468 -14 l 492 -14 l 784 681 l 784 37 l 675 37 l 675 0 l 1076 0 q 1039 37 1067 34 l 967 37 l 967 777 l 1076 777 l 1076 814 z "},"N":{"ha":901,"x_min":20,"x_max":894,"o":"m 620 777 l 728 777 l 728 252 l 250 814 l 20 814 l 20 777 l 129 777 l 129 37 l 20 37 l 20 0 l 301 0 q 264 37 293 34 l 186 37 l 186 602 l 708 -7 l 785 7 l 785 777 l 894 777 l 894 814 l 620 814 l 620 777 z "},"Ń":{"ha":901,"x_min":20,"x_max":894,"o":"m 620 777 l 728 777 l 728 252 l 250 814 l 20 814 l 20 777 l 129 777 l 129 37 l 20 37 l 20 0 l 301 0 q 264 37 293 34 l 186 37 l 186 602 l 708 -7 l 785 7 l 785 777 l 894 777 l 894 814 l 620 814 l 620 777 m 589 925 q 618 982 617 947 q 579 1053 618 1028 q 543 1063 562 1063 q 500 1048 521 1062 q 427 970 483 1035 q 317 859 374 909 l 338 829 q 515 892 377 848 q 589 925 568 911 z "},"Ň":{"ha":901,"x_min":20,"x_max":894,"o":"m 620 777 l 728 777 l 728 252 l 250 814 l 20 814 l 20 777 l 129 777 l 129 37 l 20 37 l 20 0 l 301 0 q 264 37 293 34 l 186 37 l 186 602 l 708 -7 l 785 7 l 785 777 l 894 777 l 894 814 l 620 814 l 620 777 m 456 856 q 540 906 496 856 q 571 943 549 916 q 659 1044 623 1005 l 639 1072 q 456 986 553 1023 q 270 1072 340 1032 l 250 1044 q 363 914 281 1013 q 442 857 408 863 q 456 856 449 856 z "},"Ñ":{"ha":901,"x_min":20,"x_max":894,"o":"m 620 777 l 728 777 l 728 252 l 250 814 l 20 814 l 20 777 l 129 777 l 129 37 l 20 37 l 20 0 l 301 0 q 264 37 293 34 l 186 37 l 186 602 l 708 -7 l 785 7 l 785 777 l 894 777 l 894 814 l 620 814 l 620 777 m 372 1061 q 484 1015 412 1061 q 574 977 544 977 q 648 1051 629 979 l 677 1047 q 594 882 667 920 q 548 871 572 871 q 434 918 507 871 q 350 955 377 955 q 273 887 292 955 q 271 880 273 883 l 244 884 q 327 1050 254 1013 q 372 1061 349 1061 z "},"O":{"ha":955,"x_min":47,"x_max":907,"o":"m 481 827 q 176 713 301 827 q 47 410 47 595 q 201 77 47 197 q 477 -14 319 -14 q 781 100 658 -14 q 907 404 907 220 q 749 745 907 628 q 481 827 635 827 m 481 26 q 294 152 343 26 q 260 404 260 241 q 395 772 260 715 q 477 788 431 788 q 674 616 631 788 q 694 411 694 533 q 586 53 694 122 q 481 26 544 26 z "},"Œ":{"ha":1252,"x_min":47,"x_max":1191,"o":"m 483 28 q 279 201 323 28 q 260 404 260 279 q 347 732 260 651 q 505 785 406 785 q 618 764 570 785 l 618 53 q 483 28 563 28 m 659 0 l 1185 0 l 1191 267 l 1152 267 l 1114 167 q 1025 52 1080 77 q 952 37 993 37 l 808 37 l 808 399 l 1066 399 l 1066 439 l 808 439 l 808 777 l 952 777 q 1101 681 1055 777 q 1115 647 1108 666 l 1152 547 l 1191 547 l 1185 814 l 673 814 q 579 817 651 814 q 481 821 505 821 q 174 708 297 821 q 47 410 47 593 q 205 79 47 195 q 477 -7 320 -7 q 591 -3 507 -7 q 659 0 646 0 z "},"Ó":{"ha":955,"x_min":47,"x_max":907,"o":"m 481 827 q 176 713 301 827 q 47 410 47 595 q 201 77 47 197 q 477 -14 319 -14 q 781 100 658 -14 q 907 404 907 220 q 749 745 907 628 q 481 827 635 827 m 481 26 q 294 152 343 26 q 260 404 260 241 q 395 772 260 715 q 477 788 431 788 q 674 616 631 788 q 694 411 694 533 q 586 53 694 122 q 481 26 544 26 m 620 925 q 650 982 648 947 q 610 1053 650 1028 q 574 1063 593 1063 q 532 1048 552 1062 q 458 970 514 1035 q 349 859 406 909 l 369 829 q 547 892 408 848 q 620 925 600 911 z "},"Ô":{"ha":955,"x_min":47,"x_max":907,"o":"m 481 827 q 176 713 301 827 q 47 410 47 595 q 201 77 47 197 q 477 -14 319 -14 q 781 100 658 -14 q 907 404 907 220 q 749 745 907 628 q 481 827 635 827 m 481 26 q 294 152 343 26 q 260 404 260 241 q 395 772 260 715 q 477 788 431 788 q 674 616 631 788 q 694 411 694 533 q 586 53 694 122 q 481 26 544 26 m 655 854 l 674 880 q 566 1006 637 917 q 495 1058 528 1054 q 484 1059 490 1059 q 410 1015 446 1059 q 385 985 401 1005 q 297 880 336 921 l 316 854 q 487 933 387 894 q 655 854 576 898 z "},"Ö":{"ha":955,"x_min":47,"x_max":907,"o":"m 481 827 q 176 713 301 827 q 47 410 47 595 q 201 77 47 197 q 477 -14 319 -14 q 781 100 658 -14 q 907 404 907 220 q 749 745 907 628 q 481 827 635 827 m 481 26 q 294 152 343 26 q 260 404 260 241 q 395 772 260 715 q 477 788 431 788 q 674 616 631 788 q 694 411 694 533 q 586 53 694 122 q 481 26 544 26 m 449 945 q 400 1027 449 1001 q 358 1038 380 1038 q 275 987 301 1038 q 266 945 266 967 q 316 865 266 890 q 358 856 336 856 q 438 902 411 856 q 449 945 449 924 m 703 945 q 652 1027 703 1001 q 609 1038 631 1038 q 530 989 556 1038 q 519 945 519 968 q 568 865 519 891 q 609 856 587 856 q 692 903 666 856 q 703 945 703 924 z "},"Ò":{"ha":955,"x_min":47,"x_max":907,"o":"m 481 827 q 176 713 301 827 q 47 410 47 595 q 201 77 47 197 q 477 -14 319 -14 q 781 100 658 -14 q 907 404 907 220 q 749 745 907 628 q 481 827 635 827 m 481 26 q 294 152 343 26 q 260 404 260 241 q 395 772 260 715 q 477 788 431 788 q 674 616 631 788 q 694 411 694 533 q 586 53 694 122 q 481 26 544 26 m 632 859 q 496 1001 574 909 q 449 1048 468 1035 q 407 1063 427 1063 q 339 1017 362 1063 q 331 982 331 1000 q 361 925 332 945 q 491 875 381 910 q 612 829 564 850 l 632 859 z "},"Ő":{"ha":955,"x_min":47,"x_max":907,"o":"m 481 827 q 176 713 301 827 q 47 410 47 595 q 201 77 47 197 q 477 -14 319 -14 q 781 100 658 -14 q 907 404 907 220 q 749 745 907 628 q 481 827 635 827 m 481 26 q 294 152 343 26 q 260 404 260 241 q 395 772 260 715 q 477 788 431 788 q 674 616 631 788 q 694 411 694 533 q 586 53 694 122 q 481 26 544 26 m 528 962 q 553 1019 555 983 q 513 1085 552 1063 q 476 1093 495 1095 q 435 1077 457 1092 q 369 997 420 1063 q 269 883 321 935 l 289 856 q 457 926 324 875 q 528 962 509 947 m 776 929 q 811 981 806 947 q 776 1055 814 1029 q 746 1067 761 1066 q 703 1057 723 1069 q 624 989 684 1046 q 507 892 567 935 l 524 861 q 704 906 566 876 q 776 929 755 918 z "},"Ō":{"ha":955,"x_min":47,"x_max":907,"o":"m 481 827 q 176 713 301 827 q 47 410 47 595 q 201 77 47 197 q 477 -14 319 -14 q 781 100 658 -14 q 907 404 907 220 q 749 745 907 628 q 481 827 635 827 m 481 26 q 294 152 343 26 q 260 404 260 241 q 395 772 260 715 q 477 788 431 788 q 674 616 631 788 q 694 411 694 533 q 586 53 694 122 q 481 26 544 26 m 271 909 l 705 909 l 705 983 l 271 983 l 271 909 z "},"Ø":{"ha":955,"x_min":47,"x_max":907,"o":"m 481 827 q 176 713 301 827 q 47 410 47 595 q 202 77 47 197 q 273 33 235 52 l 176 -210 l 292 -210 l 373 -3 q 477 -14 427 -14 q 781 100 658 -14 q 907 404 907 220 q 746 747 907 631 q 684 784 716 768 l 754 963 l 639 963 l 582 818 q 481 827 536 827 m 260 404 q 395 772 260 715 q 477 788 431 788 q 563 772 526 788 l 308 123 q 260 404 260 214 m 481 26 q 391 42 431 26 l 647 690 q 694 411 694 597 q 586 53 694 122 q 481 26 544 26 z "},"Õ":{"ha":955,"x_min":47,"x_max":907,"o":"m 481 827 q 176 713 301 827 q 47 410 47 595 q 201 77 47 197 q 477 -14 319 -14 q 781 100 658 -14 q 907 404 907 220 q 749 745 907 628 q 481 827 635 827 m 481 26 q 294 152 343 26 q 260 404 260 241 q 395 772 260 715 q 477 788 431 788 q 674 616 631 788 q 694 411 694 533 q 586 53 694 122 q 481 26 544 26 m 403 1061 q 515 1015 444 1061 q 605 977 575 977 q 680 1051 661 979 l 708 1047 q 625 882 699 920 q 579 871 604 871 q 465 918 538 871 q 381 955 408 955 q 304 887 323 955 q 302 880 304 883 l 275 884 q 358 1050 285 1013 q 403 1061 380 1061 z "},"P":{"ha":762,"x_min":27,"x_max":749,"o":"m 403 777 q 545 587 544 774 q 397 399 543 400 l 326 399 l 326 777 l 403 777 m 461 0 q 425 37 453 34 l 326 37 l 326 358 l 437 358 q 731 506 671 358 q 749 600 749 548 q 635 783 749 727 q 480 814 570 814 l 27 814 l 27 777 l 136 777 l 136 37 l 27 37 l 27 0 l 461 0 z "},"Q":{"ha":962,"x_min":50,"x_max":1002,"o":"m 484 827 q 179 713 304 827 q 50 410 50 595 q 203 77 50 197 q 480 -14 321 -14 q 575 -4 532 -14 q 674 -141 650 -114 q 818 -217 745 -216 q 1002 -47 933 -214 l 970 -28 q 863 -94 909 -90 q 845 -95 853 -95 q 692 1 779 -95 q 670 26 681 12 q 882 245 823 94 q 910 404 910 320 q 751 745 910 628 q 484 827 637 827 m 461 171 q 328 85 389 170 q 259 404 259 168 q 388 769 259 707 q 480 788 427 788 q 678 624 632 788 q 701 411 701 541 q 624 76 701 153 q 461 171 534 171 m 484 26 q 358 58 404 27 q 448 107 403 106 q 549 34 496 106 q 484 26 521 26 z "},"R":{"ha":833,"x_min":27,"x_max":833,"o":"m 434 0 l 434 37 l 326 37 l 326 372 l 392 372 l 594 -1 l 833 0 q 811 34 833 30 q 798 35 804 35 l 780 35 l 571 388 q 746 543 713 427 q 754 601 754 571 q 665 762 754 701 q 480 814 589 814 l 27 814 l 27 777 l 136 777 l 136 37 l 27 37 l 27 0 l 434 0 m 399 777 q 543 667 510 777 q 552 594 552 632 q 481 433 552 477 q 410 412 450 412 l 326 412 l 326 777 l 399 777 z "},"Ŕ":{"ha":833,"x_min":27,"x_max":833,"o":"m 434 0 l 434 37 l 326 37 l 326 372 l 392 372 l 594 -1 l 833 0 q 811 34 833 30 q 798 35 804 35 l 780 35 l 571 388 q 746 543 713 427 q 754 601 754 571 q 665 762 754 701 q 480 814 589 814 l 27 814 l 27 777 l 136 777 l 136 37 l 27 37 l 27 0 l 434 0 m 399 777 q 543 667 510 777 q 552 594 552 632 q 481 433 552 477 q 410 412 450 412 l 326 412 l 326 777 l 399 777 m 547 925 q 576 982 575 947 q 537 1053 576 1028 q 500 1063 519 1063 q 458 1048 479 1062 q 385 970 441 1035 q 275 859 332 909 l 296 829 q 473 892 335 848 q 547 925 526 911 z "},"Ř":{"ha":833,"x_min":27,"x_max":833,"o":"m 434 0 l 434 37 l 326 37 l 326 372 l 392 372 l 594 -1 l 833 0 q 811 34 833 30 q 798 35 804 35 l 780 35 l 571 388 q 746 543 713 427 q 754 601 754 571 q 665 762 754 701 q 480 814 589 814 l 27 814 l 27 777 l 136 777 l 136 37 l 27 37 l 27 0 l 434 0 m 399 777 q 543 667 510 777 q 552 594 552 632 q 481 433 552 477 q 410 412 450 412 l 326 412 l 326 777 l 399 777 m 414 856 q 498 906 454 856 q 529 943 507 916 q 617 1044 581 1005 l 597 1072 q 414 986 511 1023 q 228 1072 298 1032 l 208 1044 q 321 914 239 1013 q 400 857 366 863 q 414 856 407 856 z "},"S":{"ha":757,"x_min":75,"x_max":701,"o":"m 701 227 q 578 419 701 339 q 435 495 560 429 q 293 613 321 555 q 279 673 279 642 q 357 779 279 753 q 411 787 382 787 q 578 703 522 787 q 613 576 612 650 l 666 576 l 666 822 q 621 796 628 822 q 620 774 620 787 q 382 827 507 827 q 136 742 218 827 q 83 610 83 686 q 212 418 83 498 q 358 340 228 407 q 503 222 475 279 q 515 167 515 195 q 429 37 515 69 q 359 26 397 26 q 157 157 216 26 q 127 285 133 213 l 75 285 l 75 -3 q 118 19 111 -3 q 121 56 121 33 q 373 -14 225 -14 q 637 75 545 -14 q 701 227 701 137 z "},"Ś":{"ha":757,"x_min":75,"x_max":701,"o":"m 701 227 q 578 419 701 339 q 435 495 560 429 q 293 613 321 555 q 279 673 279 642 q 357 779 279 753 q 411 787 382 787 q 578 703 522 787 q 613 576 612 650 l 666 576 l 666 822 q 621 796 628 822 q 620 774 620 787 q 382 827 507 827 q 136 742 218 827 q 83 610 83 686 q 212 418 83 498 q 358 340 228 407 q 503 222 475 279 q 515 167 515 195 q 429 37 515 69 q 359 26 397 26 q 157 157 216 26 q 127 285 133 213 l 75 285 l 75 -3 q 118 19 111 -3 q 121 56 121 33 q 373 -14 225 -14 q 637 75 545 -14 q 701 227 701 137 m 544 925 q 574 982 572 947 q 534 1053 574 1028 q 498 1063 517 1063 q 456 1048 476 1062 q 382 970 438 1035 q 273 859 330 909 l 293 829 q 471 892 332 848 q 544 925 524 911 z "},"Š":{"ha":757,"x_min":75,"x_max":701,"o":"m 701 227 q 578 419 701 339 q 435 495 560 429 q 293 613 321 555 q 279 673 279 642 q 357 779 279 753 q 411 787 382 787 q 578 703 522 787 q 613 576 612 650 l 666 576 l 666 822 q 621 796 628 822 q 620 774 620 787 q 382 827 507 827 q 136 742 218 827 q 83 610 83 686 q 212 418 83 498 q 358 340 228 407 q 503 222 475 279 q 515 167 515 195 q 429 37 515 69 q 359 26 397 26 q 157 157 216 26 q 127 285 133 213 l 75 285 l 75 -3 q 118 19 111 -3 q 121 56 121 33 q 373 -14 225 -14 q 637 75 545 -14 q 701 227 701 137 m 411 856 q 495 906 452 856 q 526 943 505 916 q 614 1044 578 1005 l 594 1072 q 411 986 509 1023 q 225 1072 296 1032 l 205 1044 q 319 914 236 1013 q 397 857 363 863 q 411 856 404 856 z "},"T":{"ha":754,"x_min":20,"x_max":734,"o":"m 601 0 q 564 37 593 34 l 472 37 l 472 777 l 495 777 q 633 690 593 777 q 651 646 642 671 l 693 524 l 734 524 l 728 814 l 26 814 l 20 524 l 61 524 l 103 646 q 180 760 133 732 q 259 777 213 777 l 282 777 l 282 37 l 153 37 l 153 0 l 601 0 z "},"Ť":{"ha":754,"x_min":20,"x_max":734,"o":"m 601 0 q 564 37 593 34 l 472 37 l 472 777 l 495 777 q 633 690 593 777 q 651 646 642 671 l 693 524 l 734 524 l 728 814 l 26 814 l 20 524 l 61 524 l 103 646 q 180 760 133 732 q 259 777 213 777 l 282 777 l 282 37 l 153 37 l 153 0 l 601 0 m 378 856 q 463 906 419 856 q 494 943 472 916 q 582 1044 545 1005 l 562 1072 q 378 986 476 1023 q 193 1072 263 1032 l 172 1044 q 286 914 203 1013 q 365 857 331 863 q 378 856 372 856 z "},"Þ":{"ha":781,"x_min":27,"x_max":734,"o":"m 388 614 q 530 425 529 612 q 382 236 528 237 l 311 236 l 311 614 l 388 614 m 404 0 q 387 35 404 33 q 372 37 380 37 l 311 37 l 311 195 l 422 195 q 716 343 656 195 q 734 437 734 385 q 620 620 734 564 q 465 651 555 651 l 311 651 l 311 777 l 404 777 l 404 814 l 27 814 l 27 777 l 121 777 l 121 37 l 27 37 l 27 0 l 404 0 z "},"U":{"ha":878,"x_min":14,"x_max":871,"o":"m 14 777 l 122 777 l 122 298 q 465 -14 125 -12 q 741 153 684 -14 q 762 317 762 221 l 762 777 l 871 777 l 871 814 l 604 814 l 604 777 l 712 777 l 712 309 q 494 27 711 28 q 324 176 357 27 q 312 309 312 232 l 312 777 l 420 777 l 420 814 l 14 814 l 14 777 z "},"Ú":{"ha":878,"x_min":14,"x_max":871,"o":"m 14 777 l 122 777 l 122 298 q 465 -14 125 -12 q 741 153 684 -14 q 762 317 762 221 l 762 777 l 871 777 l 871 814 l 604 814 l 604 777 l 712 777 l 712 309 q 494 27 711 28 q 324 176 357 27 q 312 309 312 232 l 312 777 l 420 777 l 420 814 l 14 814 l 14 777 m 606 925 q 636 982 635 947 q 597 1053 636 1028 q 560 1063 579 1063 q 518 1048 538 1062 q 445 970 500 1035 q 335 859 392 909 l 355 829 q 533 892 395 848 q 606 925 586 911 z "},"Û":{"ha":878,"x_min":14,"x_max":871,"o":"m 14 777 l 122 777 l 122 298 q 465 -14 125 -12 q 741 153 684 -14 q 762 317 762 221 l 762 777 l 871 777 l 871 814 l 604 814 l 604 777 l 712 777 l 712 309 q 494 27 711 28 q 324 176 357 27 q 312 309 312 232 l 312 777 l 420 777 l 420 814 l 14 814 l 14 777 m 642 854 l 661 880 q 552 1006 624 917 q 481 1058 514 1054 q 471 1059 476 1059 q 396 1015 433 1059 q 372 985 388 1005 q 283 880 323 921 l 302 854 q 473 933 373 894 q 642 854 563 898 z "},"Ü":{"ha":878,"x_min":14,"x_max":871,"o":"m 14 777 l 122 777 l 122 298 q 465 -14 125 -12 q 741 153 684 -14 q 762 317 762 221 l 762 777 l 871 777 l 871 814 l 604 814 l 604 777 l 712 777 l 712 309 q 494 27 711 28 q 324 176 357 27 q 312 309 312 232 l 312 777 l 420 777 l 420 814 l 14 814 l 14 777 m 435 945 q 387 1027 435 1001 q 345 1038 366 1038 q 262 987 288 1038 q 252 945 252 967 q 302 865 252 890 q 345 856 323 856 q 425 902 397 856 q 435 945 435 924 m 689 945 q 639 1027 689 1001 q 595 1038 617 1038 q 517 989 543 1038 q 506 945 506 968 q 555 865 506 891 q 595 856 574 856 q 678 903 652 856 q 689 945 689 924 z "},"Ù":{"ha":878,"x_min":14,"x_max":871,"o":"m 14 777 l 122 777 l 122 298 q 465 -14 125 -12 q 741 153 684 -14 q 762 317 762 221 l 762 777 l 871 777 l 871 814 l 604 814 l 604 777 l 712 777 l 712 309 q 494 27 711 28 q 324 176 357 27 q 312 309 312 232 l 312 777 l 420 777 l 420 814 l 14 814 l 14 777 m 618 859 q 483 1001 560 909 q 435 1048 454 1035 q 393 1063 414 1063 q 326 1017 349 1063 q 317 982 317 1000 q 347 925 319 945 q 477 875 368 910 q 598 829 551 850 l 618 859 z "},"Ű":{"ha":878,"x_min":14,"x_max":871,"o":"m 14 777 l 122 777 l 122 298 q 465 -14 125 -12 q 741 153 684 -14 q 762 317 762 221 l 762 777 l 871 777 l 871 814 l 604 814 l 604 777 l 712 777 l 712 309 q 494 27 711 28 q 324 176 357 27 q 312 309 312 232 l 312 777 l 420 777 l 420 814 l 14 814 l 14 777 m 514 962 q 540 1019 541 983 q 499 1085 538 1063 q 463 1093 481 1095 q 422 1077 444 1092 q 355 997 407 1063 q 255 883 308 935 l 275 856 q 444 926 311 875 q 514 962 495 947 m 762 929 q 798 981 792 947 q 762 1055 800 1029 q 732 1067 747 1066 q 689 1057 709 1069 q 610 989 670 1046 q 494 892 553 935 l 510 861 q 690 906 552 876 q 762 929 742 918 z "},"Ū":{"ha":878,"x_min":14,"x_max":871,"o":"m 14 777 l 122 777 l 122 298 q 465 -14 125 -12 q 741 153 684 -14 q 762 317 762 221 l 762 777 l 871 777 l 871 814 l 604 814 l 604 777 l 712 777 l 712 309 q 494 27 711 28 q 324 176 357 27 q 312 309 312 232 l 312 777 l 420 777 l 420 814 l 14 814 l 14 777 m 258 909 l 692 909 l 692 983 l 258 983 l 258 909 z "},"Ų":{"ha":878,"x_min":14,"x_max":871,"o":"m 14 777 l 122 777 l 122 298 q 465 -14 125 -12 q 741 153 684 -14 q 762 317 762 221 l 762 777 l 871 777 l 871 814 l 604 814 l 604 777 l 712 777 l 712 309 q 494 27 711 28 q 324 176 357 27 q 312 309 312 232 l 312 777 l 420 777 l 420 814 l 14 814 l 14 777 m 586 -220 q 538 -152 540 -217 q 606 -35 538 -90 q 666 0 633 -14 l 665 14 q 404 -113 450 -12 q 393 -160 393 -136 q 476 -252 393 -228 q 540 -260 506 -260 q 673 -212 628 -259 l 656 -189 q 586 -220 618 -220 z "},"Ů":{"ha":878,"x_min":14,"x_max":871,"o":"m 14 777 l 122 777 l 122 298 q 465 -14 125 -12 q 741 153 684 -14 q 762 317 762 221 l 762 777 l 871 777 l 871 814 l 604 814 l 604 777 l 712 777 l 712 309 q 494 27 711 28 q 324 176 357 27 q 312 309 312 232 l 312 777 l 420 777 l 420 814 l 14 814 l 14 777 m 448 956 q 502 1051 449 1050 q 557 959 557 1050 q 502 863 556 864 q 448 956 448 864 m 506 1084 q 351 1004 384 1084 q 343 959 343 982 q 425 842 343 873 q 499 830 457 830 q 652 910 617 830 q 662 960 662 933 q 582 1072 662 1042 q 506 1084 548 1084 z "},"V":{"ha":804,"x_min":-14,"x_max":804,"o":"m 453 -7 l 736 777 l 804 777 l 804 814 l 574 814 l 574 777 l 682 777 l 477 203 l 245 777 l 353 777 l 353 814 l -14 814 l -14 777 l 56 777 l 324 104 q 377 4 358 18 q 425 -7 393 -7 l 453 -7 z "},"W":{"ha":1211,"x_min":-14,"x_max":1211,"o":"m 884 0 l 1143 777 l 1211 777 l 1211 814 l 987 814 l 987 777 l 1096 777 l 905 197 l 694 779 l 803 777 l 803 814 l 488 814 l 591 547 l 458 184 l 245 777 l 354 777 l 354 814 l -14 814 l -14 777 l 54 777 l 315 104 q 372 8 347 22 q 410 0 387 0 l 437 0 l 616 486 l 762 104 q 819 8 795 22 q 857 0 834 0 l 884 0 z "},"X":{"ha":860,"x_min":7,"x_max":860,"o":"m 262 0 l 262 37 l 153 37 l 373 347 l 576 37 l 479 37 l 479 0 l 860 0 q 823 37 852 34 l 781 37 l 499 461 l 697 739 q 753 777 722 774 q 769 777 761 777 q 806 814 803 785 l 566 814 l 566 777 l 674 777 l 475 498 l 289 777 l 387 777 l 387 814 l 14 814 l 14 777 l 92 777 l 349 385 l 126 75 q 43 37 96 37 q 7 0 9 28 l 262 0 z "},"Y":{"ha":785,"x_min":-3,"x_max":785,"o":"m 612 0 q 575 37 604 34 l 496 37 l 496 354 l 681 739 q 749 777 707 776 q 785 814 783 785 l 547 814 l 547 777 l 655 777 l 472 401 l 274 777 l 377 777 l 377 814 l -3 814 l -3 777 l 61 777 l 307 345 l 307 37 l 191 37 l 191 0 l 612 0 z "},"Ý":{"ha":785,"x_min":-3,"x_max":785,"o":"m 612 0 q 575 37 604 34 l 496 37 l 496 354 l 681 739 q 749 777 707 776 q 785 814 783 785 l 547 814 l 547 777 l 655 777 l 472 401 l 274 777 l 377 777 l 377 814 l -3 814 l -3 777 l 61 777 l 307 345 l 307 37 l 191 37 l 191 0 l 612 0 m 568 925 q 598 982 597 947 q 559 1053 598 1028 q 522 1063 541 1063 q 480 1048 500 1062 q 407 970 463 1035 q 297 859 354 909 l 317 829 q 495 892 357 848 q 568 925 548 911 z "},"Ÿ":{"ha":785,"x_min":-3,"x_max":785,"o":"m 612 0 q 575 37 604 34 l 496 37 l 496 354 l 681 739 q 749 777 707 776 q 785 814 783 785 l 547 814 l 547 777 l 655 777 l 472 401 l 274 777 l 377 777 l 377 814 l -3 814 l -3 777 l 61 777 l 307 345 l 307 37 l 191 37 l 191 0 l 612 0 m 397 945 q 349 1027 397 1001 q 307 1038 328 1038 q 224 987 250 1038 q 214 945 214 967 q 264 865 214 890 q 307 856 285 856 q 387 902 359 856 q 397 945 397 924 m 651 945 q 601 1027 651 1001 q 557 1038 579 1038 q 479 989 505 1038 q 468 945 468 968 q 517 865 468 891 q 557 856 536 856 q 640 903 614 856 q 651 945 651 924 z "},"Z":{"ha":749,"x_min":27,"x_max":715,"o":"m 712 0 l 715 281 l 673 281 l 633 151 q 500 37 594 41 l 232 37 l 707 784 l 707 814 l 92 814 l 83 568 l 123 568 l 180 690 q 290 777 222 776 l 513 779 l 27 30 l 27 0 l 712 0 z "},"Ź":{"ha":749,"x_min":27,"x_max":715,"o":"m 712 0 l 715 281 l 673 281 l 633 151 q 500 37 594 41 l 232 37 l 707 784 l 707 814 l 92 814 l 83 568 l 123 568 l 180 690 q 290 777 222 776 l 513 779 l 27 30 l 27 0 l 712 0 m 556 925 q 586 982 585 947 q 547 1053 586 1028 q 510 1063 529 1063 q 468 1048 488 1062 q 395 970 450 1035 q 285 859 342 909 l 305 829 q 483 892 345 848 q 556 925 536 911 z "},"Ž":{"ha":749,"x_min":27,"x_max":715,"o":"m 712 0 l 715 281 l 673 281 l 633 151 q 500 37 594 41 l 232 37 l 707 784 l 707 814 l 92 814 l 83 568 l 123 568 l 180 690 q 290 777 222 776 l 513 779 l 27 30 l 27 0 l 712 0 m 423 856 q 507 906 464 856 q 538 943 517 916 q 627 1044 590 1005 l 606 1072 q 423 986 521 1023 q 237 1072 308 1032 l 217 1044 q 331 914 248 1013 q 410 857 376 863 q 423 856 416 856 z "},"Ż":{"ha":749,"x_min":27,"x_max":715,"o":"m 712 0 l 715 281 l 673 281 l 633 151 q 500 37 594 41 l 232 37 l 707 784 l 707 814 l 92 814 l 83 568 l 123 568 l 180 690 q 290 777 222 776 l 513 779 l 27 30 l 27 0 l 712 0 m 522 937 q 469 1025 522 997 q 420 1039 446 1039 q 332 986 362 1039 q 320 937 320 963 q 373 850 320 878 q 420 838 396 838 q 509 888 480 838 q 522 937 522 911 z "},"a":{"ha":669,"x_min":27,"x_max":662,"o":"m 526 -14 q 650 58 625 -14 q 662 127 658 85 l 627 129 q 579 34 618 35 q 549 102 549 37 l 549 385 q 392 594 549 555 q 304 604 351 604 q 72 524 119 604 q 60 480 60 503 q 110 414 60 427 q 136 410 122 410 q 214 467 194 410 q 222 494 217 475 q 260 562 237 548 q 294 568 275 568 q 372 491 358 568 q 377 423 377 463 l 377 335 q 27 151 28 328 q 133 -4 27 30 q 202 -14 164 -14 q 372 73 317 -14 q 389 110 382 91 q 526 -14 418 -7 m 273 45 q 203 165 205 47 q 277 282 203 255 q 377 297 316 294 l 377 165 q 294 49 351 71 q 273 45 282 45 z "},"á":{"ha":669,"x_min":27,"x_max":662,"o":"m 526 -14 q 650 58 625 -14 q 662 127 658 85 l 627 129 q 579 34 618 35 q 549 102 549 37 l 549 385 q 392 594 549 555 q 304 604 351 604 q 72 524 119 604 q 60 480 60 503 q 110 414 60 427 q 136 410 122 410 q 214 467 194 410 q 222 494 217 475 q 260 562 237 548 q 294 568 275 568 q 372 491 358 568 q 377 423 377 463 l 377 335 q 27 151 28 328 q 133 -4 27 30 q 202 -14 164 -14 q 372 73 317 -14 q 389 110 382 91 q 526 -14 418 -7 m 273 45 q 203 165 205 47 q 277 282 203 255 q 377 297 316 294 l 377 165 q 294 49 351 71 q 273 45 282 45 m 469 749 q 499 806 498 770 q 460 876 499 852 q 423 887 442 887 q 381 872 401 886 q 308 793 363 859 q 198 682 255 732 l 218 652 q 396 716 258 671 q 469 749 449 735 z "},"ă":{"ha":669,"x_min":27,"x_max":662,"o":"m 526 -14 q 650 58 625 -14 q 662 127 658 85 l 627 129 q 579 34 618 35 q 549 102 549 37 l 549 385 q 392 594 549 555 q 304 604 351 604 q 72 524 119 604 q 60 480 60 503 q 110 414 60 427 q 136 410 122 410 q 214 467 194 410 q 222 494 217 475 q 260 562 237 548 q 294 568 275 568 q 372 491 358 568 q 377 423 377 463 l 377 335 q 27 151 28 328 q 133 -4 27 30 q 202 -14 164 -14 q 372 73 317 -14 q 389 110 382 91 q 526 -14 418 -7 m 273 45 q 203 165 205 47 q 277 282 203 255 q 377 297 316 294 l 377 165 q 294 49 351 71 q 273 45 282 45 m 339 795 q 476 850 452 795 q 483 871 480 860 l 511 871 q 423 701 511 745 q 335 682 385 682 q 168 798 205 682 q 157 871 157 833 l 184 871 q 339 795 202 795 z "},"â":{"ha":669,"x_min":27,"x_max":662,"o":"m 526 -14 q 650 58 625 -14 q 662 127 658 85 l 627 129 q 579 34 618 35 q 549 102 549 37 l 549 385 q 392 594 549 555 q 304 604 351 604 q 72 524 119 604 q 60 480 60 503 q 110 414 60 427 q 136 410 122 410 q 214 467 194 410 q 222 494 217 475 q 260 562 237 548 q 294 568 275 568 q 372 491 358 568 q 377 423 377 463 l 377 335 q 27 151 28 328 q 133 -4 27 30 q 202 -14 164 -14 q 372 73 317 -14 q 389 110 382 91 q 526 -14 418 -7 m 273 45 q 203 165 205 47 q 277 282 203 255 q 377 297 316 294 l 377 165 q 294 49 351 71 q 273 45 282 45 m 505 678 l 524 704 q 415 830 487 741 q 345 882 377 878 q 334 883 339 883 q 259 838 296 883 q 235 808 251 829 q 146 704 186 745 l 165 678 q 336 757 236 718 q 505 678 426 722 z "},"´":{"ha":678,"x_min":228,"x_max":529,"o":"m 499 749 q 529 806 528 770 q 490 876 529 852 q 453 887 472 887 q 411 872 431 886 q 338 793 393 859 q 228 682 285 732 l 248 652 q 426 716 288 671 q 499 749 479 735 z "},"ä":{"ha":669,"x_min":27,"x_max":662,"o":"m 526 -14 q 650 58 625 -14 q 662 127 658 85 l 627 129 q 579 34 618 35 q 549 102 549 37 l 549 385 q 392 594 549 555 q 304 604 351 604 q 72 524 119 604 q 60 480 60 503 q 110 414 60 427 q 136 410 122 410 q 214 467 194 410 q 222 494 217 475 q 260 562 237 548 q 294 568 275 568 q 372 491 358 568 q 377 423 377 463 l 377 335 q 27 151 28 328 q 133 -4 27 30 q 202 -14 164 -14 q 372 73 317 -14 q 389 110 382 91 q 526 -14 418 -7 m 273 45 q 203 165 205 47 q 277 282 203 255 q 377 297 316 294 l 377 165 q 294 49 351 71 q 273 45 282 45 m 298 769 q 250 850 298 825 q 208 861 229 861 q 125 811 151 861 q 115 769 115 791 q 165 689 115 713 q 208 680 186 680 q 288 726 260 680 q 298 769 298 747 m 552 769 q 502 850 552 825 q 458 861 480 861 q 380 812 406 861 q 369 769 369 792 q 418 689 369 715 q 458 680 437 680 q 541 727 515 680 q 552 769 552 747 z "},"æ":{"ha":963,"x_min":19,"x_max":928,"o":"m 656 570 q 742 492 728 570 q 747 420 747 465 q 709 342 747 357 q 631 335 684 332 l 545 338 l 545 376 q 632 567 553 548 q 656 570 644 570 m 914 144 l 880 151 q 765 39 844 71 q 697 26 731 26 q 555 178 585 26 q 545 264 548 217 l 545 302 l 669 298 q 917 361 880 292 q 928 407 928 381 q 814 574 928 521 q 665 604 747 604 q 481 543 559 602 q 300 604 414 604 q 62 522 110 604 q 52 480 52 502 q 102 414 52 427 q 127 410 114 410 q 203 465 183 410 q 213 492 208 473 q 254 562 229 548 q 290 570 270 570 q 376 458 368 570 q 377 423 377 442 l 377 335 q 19 151 20 330 q 125 -4 19 30 q 194 -14 156 -14 q 372 72 309 -14 q 404 137 393 102 q 666 -14 465 -12 q 898 106 833 -14 q 914 144 907 125 m 269 45 q 195 165 197 47 q 278 285 195 258 q 377 298 317 297 l 377 165 q 294 50 353 75 q 269 45 281 45 z "},"à":{"ha":669,"x_min":27,"x_max":662,"o":"m 526 -14 q 650 58 625 -14 q 662 127 658 85 l 627 129 q 579 34 618 35 q 549 102 549 37 l 549 385 q 392 594 549 555 q 304 604 351 604 q 72 524 119 604 q 60 480 60 503 q 110 414 60 427 q 136 410 122 410 q 214 467 194 410 q 222 494 217 475 q 260 562 237 548 q 294 568 275 568 q 372 491 358 568 q 377 423 377 463 l 377 335 q 27 151 28 328 q 133 -4 27 30 q 202 -14 164 -14 q 372 73 317 -14 q 389 110 382 91 q 526 -14 418 -7 m 273 45 q 203 165 205 47 q 277 282 203 255 q 377 297 316 294 l 377 165 q 294 49 351 71 q 273 45 282 45 m 481 682 q 346 825 423 732 q 298 872 317 859 q 256 887 277 887 q 189 841 212 887 q 180 806 180 823 q 210 749 182 769 q 340 699 231 734 q 461 652 414 674 l 481 682 z "},"ā":{"ha":669,"x_min":27,"x_max":662,"o":"m 526 -14 q 650 58 625 -14 q 662 127 658 85 l 627 129 q 579 34 618 35 q 549 102 549 37 l 549 385 q 392 594 549 555 q 304 604 351 604 q 72 524 119 604 q 60 480 60 503 q 110 414 60 427 q 136 410 122 410 q 214 467 194 410 q 222 494 217 475 q 260 562 237 548 q 294 568 275 568 q 372 491 358 568 q 377 423 377 463 l 377 335 q 27 151 28 328 q 133 -4 27 30 q 202 -14 164 -14 q 372 73 317 -14 q 389 110 382 91 q 526 -14 418 -7 m 273 45 q 203 165 205 47 q 277 282 203 255 q 377 297 316 294 l 377 165 q 294 49 351 71 q 273 45 282 45 m 121 732 l 555 732 l 555 807 l 121 807 l 121 732 z "},"&":{"ha":799,"x_min":34,"x_max":819,"o":"m 334 692 q 385 783 334 761 q 419 789 400 789 q 510 692 507 784 q 442 578 510 629 q 381 544 415 557 q 334 692 334 637 m 368 27 q 217 144 244 27 q 206 274 206 191 q 250 457 208 423 q 518 72 340 279 q 368 27 452 27 m 716 433 l 715 433 l 719 433 l 761 434 q 796 450 792 434 q 799 471 799 460 l 604 471 l 604 435 l 678 435 q 624 193 678 297 q 397 513 471 382 q 536 635 499 551 q 548 692 548 665 q 457 818 548 789 q 392 827 427 827 q 221 754 277 827 q 189 651 189 711 q 233 490 190 586 q 41 301 72 442 q 34 239 34 271 q 133 42 34 114 q 324 -14 210 -14 q 541 45 450 -12 l 582 0 l 819 0 q 798 34 819 31 q 785 35 792 35 l 762 35 q 650 161 724 76 q 716 433 716 278 z "},"ං":{"ha":481,"x_min":38,"x_max":420,"o":"m 109 255 q 165 156 109 190 q 229 138 195 138 q 332 195 297 138 q 349 255 349 224 q 290 354 349 320 q 229 370 262 370 q 125 313 160 370 q 109 255 109 286 m 38 218 q 115 369 38 312 q 229 407 165 407 q 382 330 326 407 q 420 218 420 279 q 343 68 420 125 q 229 31 292 31 q 76 107 133 31 q 38 218 38 157 z "},"ą":{"ha":669,"x_min":27,"x_max":662,"o":"m 273 45 q 203 165 205 47 q 277 282 203 255 q 377 297 316 294 l 377 165 q 294 49 351 71 q 273 45 282 45 m 536 -220 q 488 -152 490 -217 q 556 -35 488 -90 q 616 0 583 -14 l 614 8 q 662 127 655 39 l 627 129 q 579 34 618 35 q 549 102 549 37 l 549 385 q 392 594 549 555 q 304 604 351 604 q 72 524 119 604 q 60 480 60 503 q 110 414 60 427 q 136 410 122 410 q 214 467 194 410 q 222 494 217 475 q 260 562 237 548 q 294 568 275 568 q 372 491 358 568 q 377 423 377 463 l 377 335 q 27 151 28 328 q 133 -4 27 30 q 202 -14 164 -14 q 372 73 317 -14 q 389 110 382 91 q 495 -11 406 7 q 345 -145 357 -56 q 343 -160 343 -153 q 426 -252 343 -228 q 490 -260 456 -260 q 623 -212 578 -259 l 606 -189 q 536 -220 568 -220 z "},"≈":{"ha":654,"x_min":41,"x_max":613,"o":"m 216 537 q 366 484 277 537 q 475 441 441 441 q 575 537 547 441 q 576 540 576 538 l 613 533 q 521 361 601 410 q 445 340 486 340 q 297 392 388 340 q 183 435 220 435 q 77 332 104 433 l 41 340 q 132 513 53 461 q 216 537 170 537 m 216 309 q 366 256 277 309 q 475 213 441 213 q 575 309 547 213 q 576 312 576 311 l 613 305 q 521 133 601 182 q 445 113 486 113 q 297 164 388 113 q 183 208 220 208 q 77 104 104 205 l 41 113 q 132 285 53 233 q 216 309 170 309 z "},"å":{"ha":669,"x_min":27,"x_max":662,"o":"m 526 -14 q 650 58 625 -14 q 662 127 658 85 l 627 129 q 579 34 618 35 q 549 102 549 37 l 549 385 q 392 594 549 555 q 304 604 351 604 q 72 524 119 604 q 60 480 60 503 q 110 414 60 427 q 136 410 122 410 q 214 467 194 410 q 222 494 217 475 q 260 562 237 548 q 294 568 275 568 q 372 491 358 568 q 377 423 377 463 l 377 335 q 27 151 28 328 q 133 -4 27 30 q 202 -14 164 -14 q 372 73 317 -14 q 389 110 382 91 q 526 -14 418 -7 m 273 45 q 203 165 205 47 q 277 282 203 255 q 377 297 316 294 l 377 165 q 294 49 351 71 q 273 45 282 45 m 270 780 q 324 875 271 873 q 380 783 380 873 q 324 686 378 688 q 270 780 270 688 m 328 907 q 174 827 206 907 q 165 783 165 806 q 247 666 165 697 q 321 654 279 654 q 475 734 439 654 q 484 784 484 757 q 404 895 484 865 q 328 907 370 907 z "},"^":{"ha":696,"x_min":88,"x_max":608,"o":"m 88 454 l 136 423 l 349 768 l 560 423 l 608 454 l 365 846 l 332 846 l 88 454 z "},"~":{"ha":654,"x_min":41,"x_max":613,"o":"m 216 438 q 366 385 277 438 q 475 342 441 342 q 575 438 547 342 q 576 441 576 439 l 613 434 q 524 260 601 311 q 445 237 487 237 q 297 289 388 237 q 183 332 220 332 q 77 233 103 330 l 41 241 q 132 414 53 362 q 216 438 170 438 z "},"*":{"ha":519,"x_min":46,"x_max":477,"o":"m 263 882 q 199 844 208 882 q 198 834 198 838 q 227 738 198 815 q 247 674 240 703 q 171 760 237 684 q 110 803 132 802 q 56 758 76 803 q 47 723 47 739 q 68 686 49 697 q 163 663 85 675 q 233 648 203 656 q 114 624 212 642 q 68 609 83 617 q 46 572 47 595 q 80 506 46 533 q 111 494 96 494 q 183 549 138 494 q 247 623 228 605 q 209 509 241 601 q 198 460 198 477 q 260 414 206 418 q 324 452 316 414 q 326 461 326 457 q 298 553 326 480 q 277 623 283 593 q 350 540 288 613 q 414 492 391 494 q 468 537 448 492 q 476 572 476 556 q 456 609 475 598 q 361 632 438 620 q 290 647 320 639 q 410 671 312 654 q 456 686 441 678 q 477 723 476 700 q 444 789 477 762 q 412 802 427 802 q 342 747 385 802 q 275 670 296 689 q 315 785 279 688 q 326 836 326 817 q 263 882 317 878 z "},"@":{"ha":1218,"x_min":61,"x_max":1150,"o":"m 929 -160 l 913 -125 q 673 -182 795 -182 q 355 -49 481 -182 q 231 294 231 85 q 403 692 231 579 q 616 751 494 751 q 926 604 817 751 q 1015 288 1015 481 q 958 73 1015 137 q 906 47 935 47 q 859 119 860 50 l 859 373 q 719 564 859 526 q 631 575 678 575 q 419 502 461 575 q 408 464 408 484 q 453 403 408 416 q 477 399 465 399 q 549 452 532 399 q 556 475 552 460 q 594 537 571 526 q 621 543 606 543 q 685 484 674 543 q 690 411 690 457 l 690 332 q 372 164 373 326 q 484 20 372 46 q 538 15 510 15 q 692 100 647 15 q 701 125 697 113 q 803 22 718 41 q 884 14 838 14 q 1111 149 1042 14 q 1150 321 1150 224 q 958 704 1150 578 q 625 792 821 792 q 209 643 365 792 q 61 260 61 500 q 233 -102 61 38 q 623 -232 399 -229 q 929 -160 785 -232 m 602 76 q 545 178 547 79 q 613 285 545 260 q 690 297 644 294 l 690 178 q 602 76 661 77 z "},"ã":{"ha":669,"x_min":27,"x_max":662,"o":"m 526 -14 q 650 58 625 -14 q 662 127 658 85 l 627 129 q 579 34 618 35 q 549 102 549 37 l 549 385 q 392 594 549 555 q 304 604 351 604 q 72 524 119 604 q 60 480 60 503 q 110 414 60 427 q 136 410 122 410 q 214 467 194 410 q 222 494 217 475 q 260 562 237 548 q 294 568 275 568 q 372 491 358 568 q 377 423 377 463 l 377 335 q 27 151 28 328 q 133 -4 27 30 q 202 -14 164 -14 q 372 73 317 -14 q 389 110 382 91 q 526 -14 418 -7 m 273 45 q 203 165 205 47 q 277 282 203 255 q 377 297 316 294 l 377 165 q 294 49 351 71 q 273 45 282 45 m 252 884 q 365 838 293 884 q 454 800 425 800 q 529 875 510 803 l 557 871 q 475 705 548 743 q 429 694 453 694 q 315 742 388 694 q 231 779 258 779 q 153 711 172 779 q 152 704 153 707 l 125 708 q 208 873 134 837 q 252 884 229 884 z "},"b":{"ha":754,"x_min":20,"x_max":716,"o":"m 433 -14 q 646 87 566 -14 q 716 311 716 175 q 606 564 716 487 q 480 604 549 604 q 270 465 340 602 l 270 882 l 20 882 l 20 845 l 98 845 l 98 107 q 53 39 98 49 q 20 37 38 37 l 20 0 l 228 0 l 239 95 q 433 -14 311 -12 m 414 538 q 530 292 530 536 q 404 23 529 24 q 285 140 316 23 q 270 266 270 194 q 349 515 270 452 q 414 538 378 538 z "},"\\":{"ha":618,"x_min":7,"x_max":585,"o":"m 469 -210 l 7 963 l 122 963 l 585 -210 l 469 -210 z "},"|":{"ha":353,"x_min":122,"x_max":231,"o":"m 122 -184 l 122 882 l 231 882 l 231 -184 l 122 -184 z "},"{":{"ha":543,"x_min":95,"x_max":515,"o":"m 368 201 l 368 -4 q 373 -107 368 -92 q 446 -142 384 -138 q 515 -145 473 -145 l 515 -184 q 281 -163 335 -184 q 201 -41 210 -134 q 198 5 198 -19 l 198 208 q 163 307 198 282 q 95 331 140 321 l 95 359 q 189 415 171 376 q 198 483 198 439 l 198 685 q 262 844 198 807 q 476 875 313 873 q 515 875 494 875 l 515 836 q 382 814 404 836 q 368 730 366 798 q 368 694 368 701 l 368 490 q 298 366 368 406 q 264 349 288 359 l 264 342 q 346 282 327 312 q 368 201 368 248 z "},"}":{"ha":543,"x_min":27,"x_max":448,"o":"m 175 487 l 175 692 q 170 795 175 780 q 96 830 159 826 q 27 833 69 833 l 27 872 q 262 850 208 872 q 342 728 332 822 q 345 682 345 707 l 345 480 q 380 381 345 406 q 448 357 403 366 l 448 328 q 354 273 372 312 q 345 205 345 248 l 345 3 q 281 -156 345 -119 q 66 -187 229 -186 q 27 -187 49 -187 l 27 -148 q 160 -126 138 -148 q 175 -42 176 -110 q 175 -7 175 -14 l 175 198 q 244 321 175 282 q 278 339 255 328 l 278 346 q 197 406 216 376 q 175 487 175 439 z "},"[":{"ha":510,"x_min":95,"x_max":476,"o":"m 476 -184 l 95 -184 l 95 875 l 476 875 l 476 836 l 267 836 l 267 -142 l 476 -145 l 476 -184 z "},"]":{"ha":528,"x_min":52,"x_max":433,"o":"m 52 -184 l 433 -184 l 433 875 l 52 875 l 52 836 l 260 836 l 260 -142 l 52 -145 l 52 -184 z "},"˘":{"ha":678,"x_min":163,"x_max":517,"o":"m 345 795 q 481 850 457 795 q 488 871 486 860 l 517 871 q 429 701 517 745 q 340 682 391 682 q 174 798 210 682 q 163 871 163 833 l 190 871 q 345 795 208 795 z "},"¦":{"ha":353,"x_min":122,"x_max":231,"o":"m 231 427 l 231 882 l 122 882 l 122 427 l 231 427 m 231 -184 l 231 270 l 122 270 l 122 -184 l 231 -184 z "},"•":{"ha":468,"x_min":76,"x_max":392,"o":"m 392 307 q 323 438 392 391 q 233 467 282 467 q 102 396 149 467 q 76 307 76 354 q 145 178 76 222 q 233 152 186 152 q 365 220 317 152 q 392 307 392 259 z "},"c":{"ha":616,"x_min":41,"x_max":609,"o":"m 41 293 q 191 20 41 95 q 353 -14 262 -14 q 570 72 494 -14 q 609 137 595 102 l 574 146 q 445 37 536 65 q 374 26 410 26 q 250 110 281 26 q 227 286 227 172 q 298 557 227 514 q 350 570 320 570 q 423 514 410 570 q 430 477 426 503 q 463 397 438 415 q 514 384 481 384 q 600 435 583 384 q 602 457 602 446 q 530 562 602 517 q 354 604 460 604 q 121 510 210 604 q 41 293 41 426 z "},"ć":{"ha":616,"x_min":41,"x_max":609,"o":"m 41 293 q 191 20 41 95 q 353 -14 262 -14 q 570 72 494 -14 q 609 137 595 102 l 574 146 q 445 37 536 65 q 374 26 410 26 q 250 110 281 26 q 227 286 227 172 q 298 557 227 514 q 350 570 320 570 q 423 514 410 570 q 430 477 426 503 q 463 397 438 415 q 514 384 481 384 q 600 435 583 384 q 602 457 602 446 q 530 562 602 517 q 354 604 460 604 q 121 510 210 604 q 41 293 41 426 m 473 749 q 503 806 502 770 q 464 876 503 852 q 427 887 446 887 q 385 872 406 886 q 312 793 368 859 q 202 682 259 732 l 222 652 q 400 716 262 671 q 473 749 453 735 z "},"ˇ":{"ha":678,"x_min":134,"x_max":544,"o":"m 340 680 q 425 730 381 680 q 456 766 434 739 q 544 868 507 829 l 524 895 q 340 810 438 846 q 155 895 225 856 l 134 868 q 248 738 165 837 q 327 681 293 686 q 340 680 334 680 z "},"č":{"ha":616,"x_min":41,"x_max":609,"o":"m 41 293 q 191 20 41 95 q 353 -14 262 -14 q 570 72 494 -14 q 609 137 595 102 l 574 146 q 445 37 536 65 q 374 26 410 26 q 250 110 281 26 q 227 286 227 172 q 298 557 227 514 q 350 570 320 570 q 423 514 410 570 q 430 477 426 503 q 463 397 438 415 q 514 384 481 384 q 600 435 583 384 q 602 457 602 446 q 530 562 602 517 q 354 604 460 604 q 121 510 210 604 q 41 293 41 426 m 340 680 q 425 730 381 680 q 456 766 434 739 q 544 868 507 829 l 524 895 q 340 810 438 846 q 155 895 225 856 l 134 868 q 248 738 165 837 q 327 681 293 686 q 340 680 334 680 z "},"ç":{"ha":616,"x_min":41,"x_max":609,"o":"m 41 293 q 197 19 41 92 q 277 -7 235 1 l 222 -115 l 241 -129 q 307 -104 277 -104 q 359 -165 354 -104 q 361 -182 361 -174 q 309 -269 361 -259 q 298 -270 304 -270 q 210 -218 251 -269 l 189 -237 q 340 -309 243 -308 q 498 -236 456 -309 q 513 -183 513 -212 q 444 -84 513 -115 q 355 -66 406 -66 q 279 -81 315 -66 l 311 -12 q 353 -14 326 -14 q 570 72 494 -14 q 609 137 595 102 l 574 146 q 445 37 536 65 q 374 26 410 26 q 250 110 281 26 q 227 286 227 172 q 298 557 227 514 q 350 570 320 570 q 423 514 410 570 q 430 477 426 503 q 463 397 438 415 q 514 384 481 384 q 600 435 583 384 q 602 457 602 446 q 530 562 602 517 q 354 604 460 604 q 121 510 210 604 q 41 293 41 426 z "},"¸":{"ha":678,"x_min":176,"x_max":500,"o":"m 210 -115 l 229 -129 q 294 -104 263 -104 q 347 -165 342 -104 q 349 -182 349 -174 q 297 -269 349 -259 q 286 -270 292 -270 q 198 -218 239 -269 l 176 -237 q 328 -309 231 -308 q 486 -236 444 -309 q 500 -183 500 -212 q 431 -84 500 -115 q 343 -66 393 -66 q 267 -81 302 -66 l 308 11 l 273 11 l 210 -115 z "},"¢":{"ha":633,"x_min":38,"x_max":606,"o":"m 38 368 q 187 96 38 172 q 321 62 247 68 l 321 -27 l 361 -27 l 361 61 q 576 156 507 65 q 606 212 595 182 l 572 221 q 450 113 534 145 q 372 99 411 99 l 361 99 l 361 643 q 427 581 415 637 q 433 549 430 571 q 464 471 441 487 q 511 458 483 458 q 597 510 581 458 q 600 532 600 521 q 529 635 600 591 q 361 678 461 675 l 361 773 l 321 773 l 321 677 q 95 559 174 665 q 38 368 38 480 m 217 361 q 283 627 217 579 q 321 642 301 637 l 321 104 q 222 262 239 127 q 217 361 217 305 z "},"ˆ":{"ha":678,"x_min":151,"x_max":528,"o":"m 509 678 l 528 704 q 419 830 491 741 q 349 882 381 878 q 338 883 343 883 q 263 838 300 883 q 239 808 255 829 q 151 704 190 745 l 170 678 q 340 757 240 718 q 509 678 430 722 z "},":":{"ha":273,"x_min":41,"x_max":232,"o":"m 232 450 q 180 536 232 507 q 136 547 159 547 q 52 495 79 547 q 41 450 41 473 q 92 366 41 392 q 136 355 113 355 q 221 404 194 355 q 232 450 232 426 m 232 141 q 186 228 232 197 q 136 244 161 244 q 53 191 81 244 q 41 141 41 167 q 92 57 41 83 q 136 46 113 46 q 221 95 194 46 q 232 141 232 117 z "},",":{"ha":254,"x_min":34,"x_max":227,"o":"m 227 72 q 163 179 227 156 q 126 184 145 184 q 45 133 71 184 q 34 88 34 111 q 90 1 34 28 q 111 -5 100 -3 q 146 -39 145 -15 q 96 -134 146 -80 q 94 -137 95 -136 l 122 -159 q 224 39 208 -66 q 227 72 227 57 z "},"":{"ha":678,"x_min":243,"x_max":435,"o":"m 435 -161 q 372 -54 435 -77 q 335 -49 354 -49 q 254 -100 279 -49 q 243 -145 243 -122 q 298 -232 243 -205 q 320 -239 309 -236 q 355 -273 354 -248 q 305 -368 355 -313 q 302 -370 304 -369 l 331 -392 q 433 -194 416 -300 q 435 -161 435 -176 z "},"©":{"ha":856,"x_min":41,"x_max":815,"o":"m 815 373 q 697 655 815 544 q 429 758 589 758 q 133 629 245 758 q 41 373 41 522 q 160 90 41 201 q 429 -14 270 -14 q 720 114 609 -14 q 815 373 815 222 m 84 373 q 197 637 84 537 q 429 720 292 720 q 696 597 597 720 q 772 373 772 502 q 662 111 772 213 q 429 24 566 24 q 161 146 260 24 q 84 373 84 243 m 437 617 q 237 532 307 617 q 186 372 186 467 q 302 163 186 227 q 430 132 361 132 q 608 217 545 132 q 625 245 618 231 l 594 259 q 457 172 549 174 q 351 334 365 172 q 349 384 349 358 q 412 579 349 551 q 434 583 423 583 q 477 541 471 583 q 480 518 479 534 q 511 442 487 460 q 563 430 532 430 q 632 491 627 439 q 547 595 632 559 q 437 617 496 617 z "},"¤":{"ha":822,"x_min":75,"x_max":734,"o":"m 403 151 q 235 233 294 151 q 190 381 190 294 q 294 581 190 521 q 401 609 343 609 q 568 528 507 609 q 613 380 613 467 q 509 178 613 237 q 403 151 460 151 m 400 102 q 579 167 505 103 l 696 50 l 730 84 l 613 202 q 671 382 671 277 q 618 553 670 483 l 734 669 l 699 704 l 586 590 q 404 658 509 658 q 224 593 298 656 l 109 705 l 75 671 l 190 556 q 132 378 132 484 q 193 197 133 269 l 77 83 l 113 47 l 228 163 q 400 102 302 102 z "},"d":{"ha":774,"x_min":41,"x_max":754,"o":"m 511 0 l 754 0 q 738 35 754 31 q 722 37 731 37 l 659 37 l 659 882 l 363 882 l 363 846 l 487 846 l 487 545 q 321 605 418 605 q 111 506 193 605 q 41 281 41 416 q 151 33 41 113 q 289 -14 213 -14 q 476 94 415 -14 q 492 127 486 110 l 511 0 m 227 297 q 312 547 227 495 q 363 560 336 560 q 484 410 461 560 q 490 323 490 369 q 404 64 490 119 q 351 49 380 49 q 233 203 256 49 q 227 297 227 245 z "},"†":{"ha":631,"x_min":54,"x_max":576,"o":"m 316 753 q 248 692 250 750 q 274 593 248 673 q 296 507 289 545 q 168 547 273 511 q 115 557 134 557 q 54 492 56 555 q 117 425 57 426 q 221 453 136 425 q 316 476 275 469 q 457 437 353 472 q 515 425 496 425 q 576 490 575 427 q 514 557 574 556 q 411 529 495 557 q 334 507 366 514 q 370 642 339 541 q 381 693 381 674 q 316 753 380 751 m 316 434 q 237 378 250 434 q 235 359 235 370 q 256 228 235 324 q 296 -107 289 90 l 335 -107 q 381 264 343 96 q 395 361 395 324 q 335 433 395 422 q 316 434 326 434 z "},"‡":{"ha":617,"x_min":47,"x_max":570,"o":"m 309 753 q 241 692 243 750 q 267 593 241 673 q 289 507 282 545 q 161 547 266 511 q 109 557 127 557 q 47 492 49 555 q 110 425 50 426 q 214 453 129 425 q 309 476 269 469 q 450 437 346 472 q 509 425 490 425 q 570 490 568 427 q 507 557 567 556 q 404 529 488 557 q 327 507 359 514 q 363 642 332 541 q 374 693 374 674 q 309 753 373 751 m 308 -100 q 376 -39 374 -98 q 350 60 376 -20 q 328 145 335 107 q 456 106 351 141 q 509 95 491 95 q 570 160 568 98 q 507 228 567 227 q 403 199 488 228 q 308 176 349 183 q 167 216 271 180 q 109 228 127 228 q 47 163 49 225 q 110 95 50 96 q 213 123 129 95 q 290 145 258 138 q 254 11 285 111 q 243 -41 243 -23 q 308 -100 244 -99 m 396 323 q 347 401 396 377 q 308 411 328 411 q 232 362 255 411 q 222 323 222 343 q 271 244 222 267 q 308 236 289 236 q 387 283 362 236 q 396 323 396 302 z "},"ď":{"ha":819,"x_min":41,"x_max":880,"o":"m 511 0 l 754 0 q 738 35 754 31 q 722 37 731 37 l 659 37 l 659 882 l 363 882 l 363 846 l 487 846 l 487 545 q 321 605 418 605 q 111 506 193 605 q 41 281 41 416 q 151 33 41 113 q 289 -14 213 -14 q 476 94 415 -14 q 492 127 486 110 l 511 0 m 227 297 q 312 547 227 495 q 363 560 336 560 q 484 410 461 560 q 490 323 490 369 q 404 64 490 119 q 351 49 380 49 q 233 203 256 49 q 227 297 227 245 m 880 781 q 817 888 880 865 q 780 894 799 894 q 699 842 724 894 q 688 798 688 821 q 743 711 688 738 q 765 704 754 707 q 800 670 799 694 q 750 575 800 629 q 747 572 749 574 l 776 551 q 878 749 861 643 q 880 781 880 766 z "},"đ":{"ha":774,"x_min":41,"x_max":754,"o":"m 252 690 l 487 690 l 487 545 q 321 605 418 605 q 111 506 193 605 q 41 281 41 416 q 151 33 41 113 q 289 -14 213 -14 q 476 94 415 -14 q 492 127 486 110 l 511 0 l 754 0 q 738 35 754 31 q 722 37 731 37 l 659 37 l 659 690 l 754 690 l 754 735 l 659 735 l 659 882 l 363 882 l 363 846 l 487 846 l 487 735 l 252 735 l 252 690 m 227 297 q 312 547 227 495 q 363 560 336 560 q 484 410 461 560 q 490 323 490 369 q 404 64 490 119 q 351 49 380 49 q 233 203 256 49 q 227 297 227 245 z "},"°":{"ha":377,"x_min":54,"x_max":323,"o":"m 98 735 q 145 821 98 792 q 189 831 167 831 q 267 783 240 831 q 279 735 279 761 q 231 654 279 680 q 189 644 210 644 q 107 693 133 644 q 98 735 98 713 m 323 735 q 262 849 323 808 q 189 872 228 872 q 76 810 117 872 q 54 735 54 774 q 117 624 54 662 q 189 605 151 605 q 302 666 263 605 q 323 735 323 699 z "},"¨":{"ha":678,"x_min":121,"x_max":557,"o":"m 304 772 q 255 853 304 827 q 213 864 235 864 q 130 814 156 864 q 121 772 121 793 q 171 692 121 716 q 213 682 191 682 q 293 728 266 682 q 304 772 304 750 m 557 772 q 507 853 557 827 q 464 864 486 864 q 385 815 411 864 q 374 772 374 795 q 423 692 374 718 q 464 682 442 682 q 547 730 521 682 q 557 772 557 750 z "},"÷":{"ha":608,"x_min":41,"x_max":567,"o":"m 567 289 l 567 346 l 41 346 l 41 289 l 567 289 m 292 194 q 363 152 345 194 q 372 115 372 136 q 330 45 372 64 q 292 37 312 37 q 220 79 239 37 q 212 115 212 95 q 225 161 213 142 q 292 194 248 194 m 292 597 q 363 555 345 597 q 372 518 372 538 q 330 448 372 467 q 292 439 312 439 q 220 481 239 439 q 212 518 212 498 q 225 564 213 545 q 292 597 248 597 z "},"$":{"ha":766,"x_min":54,"x_max":712,"o":"m 269 674 q 374 787 269 772 q 377 787 376 787 l 377 514 q 269 674 270 583 m 534 167 q 416 33 532 53 l 416 328 q 534 167 530 252 m 416 -123 l 416 -12 q 667 96 590 -1 q 712 227 712 152 q 591 401 712 327 q 444 477 576 410 q 416 491 429 484 l 416 788 q 494 731 477 788 q 502 696 498 720 q 538 612 513 631 q 601 595 563 595 q 678 658 666 595 q 680 678 680 667 q 568 798 680 753 q 416 827 500 823 l 416 948 l 377 948 l 377 827 q 126 736 206 825 q 80 612 80 684 q 205 437 80 511 q 358 359 220 429 q 377 350 369 354 l 377 28 l 365 28 q 264 92 288 28 q 254 133 260 106 q 213 218 239 199 q 148 236 190 236 q 60 183 80 236 q 54 153 54 168 q 148 30 54 77 q 377 -14 236 -12 l 377 -123 l 416 -123 z "},"˙":{"ha":384,"x_min":91,"x_max":293,"o":"m 293 761 q 240 849 293 821 q 191 863 217 863 q 103 810 133 863 q 91 761 91 787 q 144 674 91 701 q 191 662 167 662 q 279 712 251 662 q 293 761 293 735 z "},"ı":{"ha":384,"x_min":27,"x_max":363,"o":"m 331 35 l 285 35 l 285 583 l 27 583 l 27 548 l 106 548 l 106 106 q 58 38 106 46 q 27 35 45 35 l 27 0 l 363 0 q 346 34 363 31 q 331 35 339 35 z "},"◌":{"ha":738,"x_min":52,"x_max":675,"o":"m 127 127 q 171 170 134 167 q 214 136 209 170 q 214 126 214 130 q 171 84 208 87 q 129 117 134 84 q 127 127 127 122 m 72 217 q 114 259 76 258 q 155 225 151 259 q 155 216 155 220 q 113 174 151 175 q 72 208 76 174 q 72 217 72 213 m 214 71 q 256 113 218 111 q 297 80 292 113 q 298 69 298 75 q 256 28 294 30 q 214 61 220 28 q 214 71 214 66 m 315 50 q 357 91 324 87 q 399 58 393 91 q 399 49 399 53 q 357 7 389 12 q 316 39 321 7 q 315 50 315 45 m 53 319 q 95 361 57 359 q 138 327 133 361 q 138 317 138 321 q 95 275 132 278 q 54 308 60 275 q 53 319 53 313 m 76 420 q 118 463 83 460 q 159 429 153 463 q 159 418 159 423 q 118 376 152 378 q 76 411 80 376 q 76 420 76 416 m 419 71 q 463 113 426 110 q 503 80 498 113 q 505 69 505 75 q 461 28 500 30 q 419 61 425 28 q 419 71 419 66 m 136 509 q 170 548 137 543 q 179 549 175 549 q 220 519 214 549 q 220 507 220 513 q 186 468 218 473 q 176 467 180 467 q 136 496 141 467 q 136 509 136 503 m 509 127 q 543 168 510 163 q 552 170 548 170 q 591 136 587 170 q 591 126 591 130 q 549 84 582 90 q 509 118 513 84 q 509 127 509 123 m 222 567 q 266 609 229 606 q 307 576 301 609 q 308 566 308 571 q 264 524 301 526 q 224 556 229 524 q 222 567 222 562 m 567 217 q 610 259 574 256 q 652 221 651 259 q 652 216 652 217 q 609 174 646 176 q 567 212 568 174 q 567 217 567 216 m 326 587 q 369 629 332 627 q 410 595 406 629 q 410 586 410 590 q 368 543 406 544 q 327 574 334 543 q 326 587 326 581 m 589 319 q 632 361 595 358 q 674 327 669 361 q 674 317 674 321 q 631 275 667 278 q 590 308 595 275 q 589 319 589 313 m 429 567 q 471 609 433 608 q 511 576 506 609 q 513 566 513 571 q 471 524 509 525 q 430 556 435 524 q 429 567 429 562 m 571 420 q 614 463 578 460 q 656 425 655 463 q 656 419 656 420 q 613 376 647 380 q 571 411 575 376 q 571 420 571 416 m 514 509 q 557 549 521 547 q 600 517 594 549 q 600 507 600 511 q 556 467 593 469 q 514 499 519 467 q 514 509 514 505 z "},"e":{"ha":646,"x_min":41,"x_max":613,"o":"m 345 568 q 433 420 431 566 q 395 342 433 357 q 313 335 368 332 l 227 339 q 345 568 236 564 m 598 140 l 566 151 q 446 38 528 68 q 380 26 414 26 q 240 164 271 26 q 227 300 228 221 l 351 296 q 605 365 570 289 q 613 407 613 384 q 495 575 613 522 q 345 604 429 604 q 106 499 191 604 q 41 297 41 418 q 189 23 41 100 q 349 -14 259 -14 q 576 98 507 -14 q 598 140 590 118 z "},"é":{"ha":646,"x_min":41,"x_max":613,"o":"m 345 568 q 433 420 431 566 q 395 342 433 357 q 313 335 368 332 l 227 339 q 345 568 236 564 m 598 140 l 566 151 q 446 38 528 68 q 380 26 414 26 q 240 164 271 26 q 227 300 228 221 l 351 296 q 605 365 570 289 q 613 407 613 384 q 495 575 613 522 q 345 604 429 604 q 106 499 191 604 q 41 297 41 418 q 189 23 41 100 q 349 -14 259 -14 q 576 98 507 -14 q 598 140 590 118 m 463 749 q 492 806 491 770 q 453 876 492 852 q 416 887 435 887 q 374 872 395 886 q 301 793 357 859 q 191 682 248 732 l 212 652 q 389 716 251 671 q 463 749 442 735 z "},"ě":{"ha":646,"x_min":41,"x_max":613,"o":"m 345 568 q 433 420 431 566 q 395 342 433 357 q 313 335 368 332 l 227 339 q 345 568 236 564 m 598 140 l 566 151 q 446 38 528 68 q 380 26 414 26 q 240 164 271 26 q 227 300 228 221 l 351 296 q 605 365 570 289 q 613 407 613 384 q 495 575 613 522 q 345 604 429 604 q 106 499 191 604 q 41 297 41 418 q 189 23 41 100 q 349 -14 259 -14 q 576 98 507 -14 q 598 140 590 118 m 330 680 q 414 730 370 680 q 445 766 423 739 q 533 868 496 829 l 513 895 q 330 810 427 846 q 144 895 214 856 l 123 868 q 237 738 155 837 q 316 681 282 686 q 330 680 323 680 z "},"ê":{"ha":646,"x_min":41,"x_max":613,"o":"m 345 568 q 433 420 431 566 q 395 342 433 357 q 313 335 368 332 l 227 339 q 345 568 236 564 m 598 140 l 566 151 q 446 38 528 68 q 380 26 414 26 q 240 164 271 26 q 227 300 228 221 l 351 296 q 605 365 570 289 q 613 407 613 384 q 495 575 613 522 q 345 604 429 604 q 106 499 191 604 q 41 297 41 418 q 189 23 41 100 q 349 -14 259 -14 q 576 98 507 -14 q 598 140 590 118 m 498 678 l 517 704 q 408 830 480 741 q 338 882 370 878 q 327 883 332 883 q 252 838 289 883 q 228 808 244 829 q 140 704 179 745 l 159 678 q 330 757 229 718 q 498 678 419 722 z "},"ë":{"ha":646,"x_min":41,"x_max":613,"o":"m 345 568 q 433 420 431 566 q 395 342 433 357 q 313 335 368 332 l 227 339 q 345 568 236 564 m 598 140 l 566 151 q 446 38 528 68 q 380 26 414 26 q 240 164 271 26 q 227 300 228 221 l 351 296 q 605 365 570 289 q 613 407 613 384 q 495 575 613 522 q 345 604 429 604 q 106 499 191 604 q 41 297 41 418 q 189 23 41 100 q 349 -14 259 -14 q 576 98 507 -14 q 598 140 590 118 m 292 769 q 243 850 292 825 q 201 861 222 861 q 118 811 144 861 q 109 769 109 791 q 159 689 109 713 q 201 680 179 680 q 281 726 254 680 q 292 769 292 747 m 545 769 q 495 850 545 825 q 452 861 473 861 q 373 812 399 861 q 362 769 362 792 q 411 689 362 715 q 452 680 430 680 q 534 727 509 680 q 545 769 545 747 z "},"ė":{"ha":646,"x_min":41,"x_max":613,"o":"m 345 568 q 433 420 431 566 q 395 342 433 357 q 313 335 368 332 l 227 339 q 345 568 236 564 m 598 140 l 566 151 q 446 38 528 68 q 380 26 414 26 q 240 164 271 26 q 227 300 228 221 l 351 296 q 605 365 570 289 q 613 407 613 384 q 495 575 613 522 q 345 604 429 604 q 106 499 191 604 q 41 297 41 418 q 189 23 41 100 q 349 -14 259 -14 q 576 98 507 -14 q 598 140 590 118 m 429 761 q 376 849 429 821 q 327 863 353 863 q 239 810 269 863 q 227 761 227 787 q 279 674 227 701 q 327 662 302 662 q 415 712 387 662 q 429 761 429 735 z "},"è":{"ha":646,"x_min":41,"x_max":613,"o":"m 345 568 q 433 420 431 566 q 395 342 433 357 q 313 335 368 332 l 227 339 q 345 568 236 564 m 598 140 l 566 151 q 446 38 528 68 q 380 26 414 26 q 240 164 271 26 q 227 300 228 221 l 351 296 q 605 365 570 289 q 613 407 613 384 q 495 575 613 522 q 345 604 429 604 q 106 499 191 604 q 41 297 41 418 q 189 23 41 100 q 349 -14 259 -14 q 576 98 507 -14 q 598 140 590 118 m 475 682 q 339 825 416 732 q 292 872 311 859 q 250 887 270 887 q 182 841 205 887 q 174 806 174 823 q 203 749 175 769 q 334 699 224 734 q 454 652 407 674 l 475 682 z "},"…":{"ha":814,"x_min":61,"x_max":776,"o":"m 514 88 q 463 174 514 145 q 418 184 441 184 q 334 133 361 184 q 323 88 323 111 q 374 4 323 30 q 418 -7 395 -7 q 503 42 476 -7 q 514 88 514 64 m 776 88 q 724 174 776 145 q 680 184 703 184 q 595 133 623 184 q 585 88 585 111 q 636 4 585 30 q 680 -7 656 -7 q 765 42 738 -7 q 776 88 776 64 m 252 88 q 201 174 252 145 q 156 184 179 184 q 72 133 99 184 q 61 88 61 111 q 113 4 61 30 q 156 -7 133 -7 q 241 42 214 -7 q 252 88 252 64 z "},"ē":{"ha":646,"x_min":41,"x_max":613,"o":"m 345 568 q 433 420 431 566 q 395 342 433 357 q 313 335 368 332 l 227 339 q 345 568 236 564 m 598 140 l 566 151 q 446 38 528 68 q 380 26 414 26 q 240 164 271 26 q 227 300 228 221 l 351 296 q 605 365 570 289 q 613 407 613 384 q 495 575 613 522 q 345 604 429 604 q 106 499 191 604 q 41 297 41 418 q 189 23 41 100 q 349 -14 259 -14 q 576 98 507 -14 q 598 140 590 118 m 114 732 l 548 732 l 548 807 l 114 807 l 114 732 z "},"—":{"ha":1099,"x_min":68,"x_max":1031,"o":"m 68 264 l 1031 264 l 1031 326 l 68 326 l 68 264 z "},"–":{"ha":827,"x_min":68,"x_max":760,"o":"m 68 264 l 760 264 l 760 326 l 68 326 l 68 264 z "},"ę":{"ha":646,"x_min":41,"x_max":613,"o":"m 345 568 q 433 420 431 566 q 395 342 433 357 q 313 335 368 332 l 227 339 q 345 568 236 564 m 598 140 l 566 151 q 446 38 528 68 q 380 26 414 26 q 240 164 271 26 q 227 300 228 221 l 351 296 q 605 365 570 289 q 613 407 613 384 q 495 575 613 522 q 345 604 429 604 q 106 499 191 604 q 41 297 41 418 q 189 23 41 100 q 349 -14 259 -14 q 419 -7 384 -14 q 254 -148 263 -50 q 252 -160 252 -155 q 335 -252 252 -228 q 399 -260 365 -260 q 532 -212 487 -259 l 515 -189 q 445 -220 477 -220 q 397 -152 399 -217 q 465 -35 397 -90 q 525 0 492 -14 l 524 14 q 446 0 492 11 q 598 140 557 35 z "},"=":{"ha":608,"x_min":41,"x_max":567,"o":"m 567 363 l 567 420 l 41 420 l 41 363 l 567 363 m 567 214 l 567 271 l 41 271 l 41 214 l 567 214 z "},"℮":{"ha":997,"x_min":54,"x_max":956,"o":"m 289 90 l 289 456 l 956 456 q 791 799 956 681 q 518 882 673 882 q 148 715 278 882 q 54 431 54 593 q 171 121 54 247 q 506 -14 297 -14 q 814 75 674 -14 q 892 138 860 103 l 860 168 q 616 39 769 75 q 506 27 559 27 q 289 90 380 28 m 718 793 l 718 499 l 289 499 l 289 774 q 522 841 388 841 q 718 793 639 841 z "},"ð":{"ha":814,"x_min":41,"x_max":665,"o":"m 665 331 q 553 674 665 522 q 444 785 505 739 l 557 850 l 537 886 l 404 811 q 157 882 293 876 l 153 845 q 343 777 271 833 l 176 684 l 198 646 l 376 746 q 465 525 438 674 q 347 549 410 549 q 117 458 206 549 q 41 273 41 382 q 145 52 41 136 q 347 -15 229 -15 q 620 137 537 -15 q 665 331 665 221 m 227 267 q 271 487 227 439 q 353 515 301 515 q 465 433 441 515 q 480 273 480 381 q 429 45 480 92 q 351 19 399 19 q 241 102 266 19 q 227 267 227 155 z "},"!":{"ha":317,"x_min":58,"x_max":259,"o":"m 182 260 q 231 589 182 415 q 259 731 259 686 q 160 827 256 826 q 58 730 64 819 q 91 572 58 686 q 136 260 136 412 l 182 260 m 256 88 q 205 174 256 145 q 160 184 183 184 q 76 133 103 184 q 65 88 65 111 q 117 4 65 30 q 160 -7 137 -7 q 245 42 218 -7 q 256 88 256 64 z "},"¡":{"ha":392,"x_min":65,"x_max":266,"o":"m 142 336 q 94 8 142 182 q 65 -134 65 -90 q 164 -231 68 -229 q 266 -133 260 -222 q 239 5 266 -88 q 189 336 189 182 l 142 336 m 68 509 q 119 423 68 452 q 164 412 141 412 q 248 464 221 412 q 259 509 259 486 q 208 593 259 567 q 164 604 187 604 q 79 555 106 604 q 68 509 68 533 z "},"f":{"ha":469,"x_min":27,"x_max":605,"o":"m 406 35 l 309 35 l 309 547 l 463 547 l 463 583 l 309 583 l 309 590 q 340 834 309 795 q 382 853 357 853 q 438 802 416 853 q 473 728 465 739 q 528 701 496 703 q 601 745 583 701 q 605 768 605 755 q 534 863 605 827 q 410 888 483 888 q 180 774 251 888 q 137 601 137 704 l 137 583 l 27 583 l 27 547 l 137 547 l 137 106 q 34 35 134 35 l 34 0 l 438 0 q 420 34 438 31 q 406 35 414 35 z "},"ﬁ":{"ha":815,"x_min":27,"x_max":795,"o":"m 365 35 l 309 35 l 309 548 l 540 548 l 540 106 q 505 39 540 49 q 469 35 490 35 l 469 0 l 795 0 q 777 34 795 31 q 762 35 770 35 l 712 35 l 712 583 l 309 583 l 309 590 q 349 825 309 776 q 434 857 377 857 q 507 802 483 857 q 519 774 511 793 q 572 690 544 709 q 632 675 598 675 q 711 723 690 675 q 718 753 718 736 q 631 856 718 815 q 456 888 557 888 q 165 741 235 888 q 137 601 137 681 l 137 583 l 27 583 l 27 548 l 137 548 l 137 106 q 34 35 134 35 l 34 0 l 397 0 q 380 34 397 31 q 365 35 373 35 z "},"ﬂ":{"ha":846,"x_min":27,"x_max":826,"o":"m 826 0 q 808 34 826 31 q 793 35 802 35 l 726 35 l 726 882 l 522 882 q 407 888 468 888 q 187 783 260 888 q 137 601 137 711 l 137 583 l 27 583 l 27 548 l 137 548 l 137 106 q 34 35 134 35 l 34 0 l 385 0 q 368 34 385 31 q 353 35 361 35 l 309 35 l 309 548 l 444 548 l 444 583 l 309 583 l 309 590 q 358 831 309 787 q 434 854 385 854 q 553 831 500 854 l 553 109 q 506 39 553 49 q 461 35 487 35 l 461 0 l 826 0 z "},"ƒ":{"ha":719,"x_min":-81,"x_max":726,"o":"m 418 354 q 420 418 420 397 l 600 418 l 600 454 l 423 454 q 463 753 435 694 q 515 792 483 791 q 559 743 549 792 q 563 720 560 735 q 600 636 572 654 q 642 625 617 625 q 722 675 704 625 q 726 700 726 688 q 651 806 726 769 q 544 827 604 827 q 273 623 345 827 q 237 454 250 551 l 96 454 l 96 418 l 233 418 q 227 309 229 382 q 208 -61 217 12 q 121 -229 186 -228 q 81 -180 90 -229 q 68 -107 69 -113 q -3 -60 49 -61 q -77 -110 -60 -60 q -81 -138 -81 -125 q -8 -241 -81 -205 q 94 -264 38 -264 q 378 27 308 -264 q 418 354 408 153 z "},"⁄":{"ha":199,"x_min":-203,"x_max":430,"o":"m -152 -45 l 430 827 l 380 859 l -203 -14 l -152 -45 z "},"g":{"ha":686,"x_min":58,"x_max":707,"o":"m 231 374 q 260 544 231 509 q 324 568 282 568 q 410 506 392 568 q 419 378 419 468 q 387 205 419 241 q 323 182 363 182 q 240 244 256 182 q 231 374 231 281 m 330 604 q 99 503 172 604 q 58 378 58 448 q 153 208 58 281 q 190 183 171 194 l 189 183 q 77 113 109 184 q 66 58 66 85 q 117 -47 68 -7 q 81 -130 81 -90 q 178 -240 81 -203 q 335 -264 243 -264 q 623 -160 557 -264 q 643 -92 643 -127 q 494 64 643 45 q 457 66 476 66 l 176 72 q 134 103 141 73 q 133 111 133 107 q 167 146 133 142 q 178 148 172 148 l 323 146 q 548 248 472 146 q 591 381 591 308 q 517 544 590 480 q 574 583 541 582 q 617 560 591 583 q 655 544 637 544 q 705 582 696 544 q 707 595 707 589 q 659 665 707 644 q 612 674 637 674 q 502 593 541 674 q 490 563 495 578 q 330 604 425 604 m 335 -228 q 136 -155 170 -228 q 129 -125 129 -140 q 149 -68 129 -96 q 206 -79 176 -79 l 480 -81 q 572 -106 559 -81 q 578 -129 578 -115 q 452 -217 578 -193 q 335 -228 399 -228 z "},"ğ":{"ha":686,"x_min":58,"x_max":707,"o":"m 231 374 q 260 544 231 509 q 324 568 282 568 q 410 506 392 568 q 419 378 419 468 q 387 205 419 241 q 323 182 363 182 q 240 244 256 182 q 231 374 231 281 m 330 604 q 99 503 172 604 q 58 378 58 448 q 153 208 58 281 q 190 183 171 194 l 189 183 q 77 113 109 184 q 66 58 66 85 q 117 -47 68 -7 q 81 -130 81 -90 q 178 -240 81 -203 q 335 -264 243 -264 q 623 -160 557 -264 q 643 -92 643 -127 q 494 64 643 45 q 457 66 476 66 l 176 72 q 134 103 141 73 q 133 111 133 107 q 167 146 133 142 q 178 148 172 148 l 323 146 q 548 248 472 146 q 591 381 591 308 q 517 544 590 480 q 574 583 541 582 q 617 560 591 583 q 655 544 637 544 q 705 582 696 544 q 707 595 707 589 q 659 665 707 644 q 612 674 637 674 q 502 593 541 674 q 490 563 495 578 q 330 604 425 604 m 335 -228 q 136 -155 170 -228 q 129 -125 129 -140 q 149 -68 129 -96 q 206 -79 176 -79 l 480 -81 q 572 -106 559 -81 q 578 -129 578 -115 q 452 -217 578 -193 q 335 -228 399 -228 m 345 795 q 481 850 457 795 q 488 871 486 860 l 517 871 q 429 701 517 745 q 340 682 391 682 q 174 798 210 682 q 163 871 163 833 l 190 871 q 345 795 208 795 z "},"ß":{"ha":826,"x_min":27,"x_max":806,"o":"m 806 161 q 699 346 806 273 q 642 380 680 358 q 547 454 564 426 q 536 492 536 473 q 595 572 536 541 q 623 586 605 578 q 708 648 689 617 q 720 700 720 671 q 600 854 720 806 q 448 882 533 882 q 187 770 267 882 q 137 601 137 701 l 137 583 l 27 583 l 27 548 l 137 548 l 137 106 q 34 35 134 35 l 34 0 l 309 0 l 309 590 q 399 845 309 817 q 437 850 416 850 q 544 709 538 850 q 544 694 544 701 q 486 587 544 627 q 464 574 479 583 q 393 507 408 540 q 380 444 380 480 q 468 305 380 369 q 515 273 483 293 q 627 178 601 216 q 650 102 650 142 q 564 24 647 26 q 499 83 517 24 q 491 109 496 91 q 453 180 475 168 q 426 187 441 187 q 353 144 369 187 q 349 121 349 132 q 452 7 349 43 q 579 -14 509 -14 q 764 57 699 -14 q 806 161 806 102 z "},"`":{"ha":678,"x_min":224,"x_max":525,"o":"m 525 682 q 389 825 467 732 q 342 872 361 859 q 300 887 320 887 q 232 841 255 887 q 224 806 224 823 q 254 749 225 769 q 384 699 274 734 q 505 652 457 674 l 525 682 z "},">":{"ha":600,"x_min":41,"x_max":559,"o":"m 66 549 l 41 491 l 454 317 l 41 142 l 62 88 l 559 296 l 559 342 l 66 549 z "},"≥":{"ha":604,"x_min":41,"x_max":563,"o":"m 563 336 l 563 382 l 64 556 l 46 500 l 460 358 l 41 213 l 60 163 l 563 336 m 553 58 l 553 115 l 41 115 l 41 58 l 553 58 z "},"«":{"ha":571,"x_min":20,"x_max":551,"o":"m 293 513 l 264 536 q 98 380 233 503 q 42 326 57 343 q 20 277 20 302 q 42 228 22 251 q 179 100 53 216 q 264 19 232 52 l 292 43 q 193 260 273 79 q 184 278 189 270 q 293 513 269 465 m 551 513 l 522 536 q 353 377 490 500 q 298 326 313 342 q 278 277 278 301 q 298 228 278 252 q 437 100 307 218 q 522 19 488 53 l 549 43 q 454 250 534 72 q 441 278 446 266 q 469 340 449 296 q 551 513 521 456 z "},"»":{"ha":571,"x_min":20,"x_max":551,"o":"m 278 513 l 307 536 q 473 380 338 503 q 529 326 514 343 q 551 277 551 302 q 529 228 549 251 q 392 100 518 216 q 307 19 339 52 l 279 43 q 378 260 298 79 q 387 278 382 270 q 278 513 302 465 m 20 513 l 49 536 q 218 377 81 500 q 273 326 258 342 q 293 277 293 301 q 273 228 293 252 q 134 100 264 218 q 49 19 83 53 l 22 43 q 117 250 37 72 q 130 278 125 266 q 102 340 122 296 q 20 513 50 456 z "},"‹":{"ha":327,"x_min":20,"x_max":307,"o":"m 307 513 l 278 536 q 104 382 237 490 q 41 326 56 342 q 20 277 20 301 q 41 228 20 252 q 163 123 50 217 q 278 19 237 61 l 305 43 q 183 278 212 218 q 256 418 209 323 q 307 513 290 481 z "},"›":{"ha":327,"x_min":20,"x_max":307,"o":"m 20 513 l 49 536 q 222 382 90 490 q 286 326 271 342 q 307 277 307 301 q 286 228 307 252 q 164 123 277 217 q 49 19 90 61 l 22 43 q 144 278 115 218 q 71 418 118 323 q 20 513 37 481 z "},"h":{"ha":762,"x_min":27,"x_max":742,"o":"m 313 35 l 279 35 l 279 361 q 353 519 279 480 q 397 532 376 532 q 490 430 480 532 q 491 406 491 419 l 491 106 q 475 42 491 52 q 438 35 461 35 l 438 0 l 742 0 q 724 34 742 31 q 708 35 716 35 l 663 35 l 663 382 q 543 593 663 552 q 477 604 513 604 q 302 519 368 604 q 279 481 289 500 l 279 882 l 27 882 l 27 846 l 107 846 l 107 106 q 46 37 107 42 q 27 35 37 35 l 27 0 l 346 0 q 328 34 346 31 q 313 35 321 35 z "},"˝":{"ha":678,"x_min":133,"x_max":680,"o":"m 392 785 q 418 842 419 807 q 377 909 416 887 q 340 917 358 918 q 300 901 321 916 q 233 821 285 887 q 133 707 186 758 l 153 680 q 321 750 189 699 q 392 785 373 770 m 640 753 q 675 804 670 770 q 640 879 678 853 q 610 891 625 890 q 567 880 587 892 q 488 812 548 869 q 372 716 431 758 l 388 685 q 568 730 430 700 q 640 753 620 742 z "},"i":{"ha":395,"x_min":34,"x_max":368,"o":"m 335 35 l 285 35 l 285 583 l 34 583 l 34 548 l 113 548 l 113 106 q 65 38 113 46 q 34 35 52 35 l 34 0 l 368 0 q 350 34 368 31 q 335 35 343 35 m 297 761 q 244 849 297 821 q 195 863 221 863 q 107 810 137 863 q 95 761 95 787 q 148 674 95 701 q 195 662 171 662 q 283 712 255 662 q 297 761 297 735 z "},"í":{"ha":384,"x_min":27,"x_max":363,"o":"m 331 35 l 285 35 l 285 583 l 27 583 l 27 548 l 106 548 l 106 106 q 58 38 106 46 q 27 35 45 35 l 27 0 l 363 0 q 346 34 363 31 q 331 35 339 35 m 327 749 q 357 806 355 770 q 317 876 357 852 q 281 887 300 887 q 239 872 259 886 q 165 793 221 859 q 56 682 113 732 l 76 652 q 254 716 115 671 q 327 749 307 735 z "},"î":{"ha":384,"x_min":4,"x_max":381,"o":"m 331 35 l 285 35 l 285 583 l 27 583 l 27 548 l 106 548 l 106 106 q 58 38 106 46 q 27 35 45 35 l 27 0 l 363 0 q 346 34 363 31 q 331 35 339 35 m 362 678 l 381 704 q 273 830 345 741 q 202 882 235 878 q 191 883 197 883 q 117 838 153 883 q 92 808 109 829 q 4 704 43 745 l 23 678 q 194 757 94 718 q 362 678 283 722 z "},"ï":{"ha":384,"x_min":-11,"x_max":393,"o":"m 164 769 q 117 846 164 822 q 77 857 98 857 q -1 808 23 857 q -11 769 -11 789 q 38 693 -11 716 q 77 684 57 684 q 153 728 127 684 q 164 769 164 749 m 393 769 q 345 848 393 822 q 304 857 326 857 q 229 811 254 857 q 218 769 218 791 q 264 693 218 718 q 304 684 283 684 q 382 730 358 684 q 393 769 393 749 m 331 35 l 285 35 l 285 583 l 27 583 l 27 548 l 106 548 l 106 106 q 58 38 106 46 q 27 35 45 35 l 27 0 l 363 0 q 346 34 363 31 q 331 35 339 35 z "},"ì":{"ha":384,"x_min":27,"x_max":363,"o":"m 331 35 l 285 35 l 285 583 l 27 583 l 27 548 l 106 548 l 106 106 q 58 38 106 46 q 27 35 45 35 l 27 0 l 363 0 q 346 34 363 31 q 331 35 339 35 m 339 682 q 203 825 281 732 q 156 872 175 859 q 114 887 134 887 q 46 841 69 887 q 38 806 38 823 q 68 749 39 769 q 198 699 88 734 q 319 652 271 674 l 339 682 z "},"ī":{"ha":384,"x_min":19,"x_max":372,"o":"m 19 732 l 372 732 l 372 807 l 19 807 l 19 732 m 331 35 l 285 35 l 285 583 l 27 583 l 27 548 l 106 548 l 106 106 q 58 38 106 46 q 27 35 45 35 l 27 0 l 363 0 q 346 34 363 31 q 331 35 339 35 z "},"∞":{"ha":901,"x_min":34,"x_max":867,"o":"m 685 232 q 844 326 796 232 q 867 419 867 369 q 793 571 867 518 q 680 604 745 604 q 472 490 578 604 q 444 458 458 476 q 216 604 327 602 q 57 510 104 604 q 34 416 34 467 q 107 264 34 317 q 221 232 156 232 q 422 339 319 232 q 456 376 438 355 q 685 232 568 233 m 216 292 q 95 374 122 292 q 88 425 88 399 q 149 537 88 503 q 216 553 179 553 q 414 425 316 552 q 277 305 330 330 q 216 292 245 292 m 685 282 q 486 410 583 283 q 623 529 571 506 q 685 544 654 544 q 804 460 780 544 q 811 411 811 435 q 749 297 811 330 q 685 282 720 282 z "},"∫":{"ha":536,"x_min":-54,"x_max":590,"o":"m 377 121 q 347 519 377 218 q 331 784 331 688 q 381 921 332 920 q 418 872 408 921 q 439 791 431 806 q 506 754 461 755 q 586 804 568 754 q 590 829 590 817 q 500 945 590 916 q 423 956 467 956 q 194 749 250 956 q 165 471 165 639 q 194 22 165 359 q 208 -203 208 -127 q 148 -358 205 -355 q 109 -309 117 -358 q 95 -236 96 -241 q 24 -189 76 -190 q -50 -239 -33 -189 q -54 -267 -54 -254 q 28 -380 -54 -349 q 107 -393 64 -393 q 340 -198 281 -393 q 377 121 377 -77 z "},"į":{"ha":384,"x_min":27,"x_max":370,"o":"m 331 35 l 285 35 l 285 583 l 27 583 l 27 548 l 106 548 l 106 106 q 58 38 106 46 q 27 35 45 35 l 27 0 l 283 0 q 95 -133 118 -38 q 91 -160 91 -146 q 174 -252 91 -228 q 237 -260 203 -260 q 370 -212 326 -259 l 354 -189 q 283 -220 316 -220 q 236 -152 237 -217 q 304 -35 236 -90 q 363 0 331 -14 q 346 34 363 31 q 331 35 339 35 m 293 761 q 240 849 293 821 q 191 863 217 863 q 103 810 133 863 q 91 761 91 787 q 144 674 91 701 q 191 662 167 662 q 279 712 251 662 q 293 761 293 735 z "},"j":{"ha":389,"x_min":-75,"x_max":316,"o":"m 316 761 q 263 849 316 821 q 214 863 240 863 q 126 810 156 863 q 114 761 114 787 q 167 674 114 701 q 214 662 190 662 q 302 712 274 662 q 316 761 316 735 m 50 583 l 50 548 l 136 548 l 136 106 q 141 -75 136 42 q 144 -163 144 -141 q 107 -228 142 -227 q 69 -186 80 -228 q 47 -117 57 -130 q -8 -92 28 -92 q -72 -136 -60 -92 q -75 -155 -75 -145 q -8 -245 -75 -214 q 90 -264 33 -264 q 307 7 292 -264 q 308 49 308 27 l 308 583 l 50 583 z "},"k":{"ha":715,"x_min":20,"x_max":728,"o":"m 366 35 l 296 35 l 296 244 l 338 285 l 503 -1 l 728 0 q 712 34 728 30 q 696 35 705 35 l 675 35 l 457 400 l 557 496 q 631 547 605 541 q 652 548 642 548 q 686 570 682 548 q 688 583 688 576 l 458 583 l 458 548 l 557 548 l 296 300 l 296 882 l 20 882 l 20 846 l 123 846 l 123 106 q 20 35 121 35 l 20 0 l 399 0 q 381 34 399 31 q 366 35 374 35 z "},"l":{"ha":423,"x_min":20,"x_max":399,"o":"m 366 35 l 298 35 l 298 882 l 20 882 l 20 846 l 126 846 l 126 109 q 81 41 126 53 q 20 35 58 35 l 20 0 l 399 0 q 381 34 399 31 q 366 35 374 35 z "},"ĺ":{"ha":433,"x_min":20,"x_max":399,"o":"m 327 997 q 362 1051 359 1017 q 328 1126 366 1097 q 293 1139 311 1137 q 250 1128 271 1141 q 172 1058 231 1116 q 52 955 114 1000 l 69 924 q 251 971 111 939 q 327 997 305 985 m 366 35 l 298 35 l 298 882 l 20 882 l 20 846 l 126 846 l 126 109 q 81 41 126 53 q 20 35 58 35 l 20 0 l 399 0 q 381 34 399 31 q 366 35 374 35 z "},"ľ":{"ha":505,"x_min":20,"x_max":533,"o":"m 366 35 l 298 35 l 298 882 l 20 882 l 20 846 l 126 846 l 126 109 q 81 41 126 53 q 20 35 58 35 l 20 0 l 399 0 q 381 34 399 31 q 366 35 374 35 m 533 781 q 469 888 533 865 q 433 894 452 894 q 351 842 377 894 q 340 798 340 821 q 396 711 340 738 q 418 704 407 707 q 453 670 452 694 q 403 575 453 629 q 400 572 401 574 l 429 551 q 530 749 514 643 q 533 781 533 766 z "},"<":{"ha":600,"x_min":41,"x_max":559,"o":"m 533 88 l 559 146 l 145 320 l 559 495 l 537 549 l 41 342 l 41 296 l 533 88 z "},"≤":{"ha":597,"x_min":41,"x_max":563,"o":"m 557 218 l 144 361 l 563 506 l 544 556 l 41 382 l 41 336 l 540 163 l 557 218 m 553 58 l 553 115 l 41 115 l 41 58 l 553 58 z "},"¬":{"ha":651,"x_min":41,"x_max":610,"o":"m 536 146 l 610 146 l 610 461 l 41 461 l 41 404 l 536 404 l 536 146 z "},"◊":{"ha":727,"x_min":27,"x_max":700,"o":"m 342 812 l 27 342 l 340 -129 l 387 -129 l 700 342 l 388 812 l 342 812 m 629 342 l 363 -58 l 98 342 l 365 742 l 629 342 z "},"ł":{"ha":433,"x_min":-18,"x_max":458,"o":"m 5 293 l 126 359 l 126 109 q 81 41 126 53 q 20 35 58 35 l 20 0 l 399 0 q 381 34 399 31 q 366 35 374 35 l 298 35 l 298 456 l 458 544 l 435 586 l 298 510 l 298 882 l 20 882 l 20 846 l 126 846 l 126 415 l -18 336 l 5 293 z "},"m":{"ha":1096,"x_min":27,"x_max":1076,"o":"m 302 35 l 278 35 l 279 385 q 350 525 288 492 q 385 534 368 534 q 457 472 435 534 q 467 406 467 442 l 467 106 q 441 39 467 50 q 407 35 429 35 l 407 0 l 694 0 q 677 34 694 31 q 661 35 669 35 l 637 35 l 637 382 l 637 392 q 711 532 647 505 q 738 537 724 537 q 818 468 796 537 q 826 406 826 439 l 826 106 q 800 39 826 50 q 766 35 788 35 l 766 0 l 1076 0 q 1058 34 1076 31 q 1042 35 1050 35 l 997 35 l 997 389 q 909 578 997 522 q 821 604 868 604 q 624 477 689 602 q 509 598 591 574 q 465 604 487 604 q 275 484 335 602 l 269 583 l 27 583 l 27 548 l 106 548 l 106 106 q 47 37 106 43 q 27 35 38 35 l 27 0 l 335 0 q 317 34 335 31 q 302 35 311 35 z "},"¯":{"ha":678,"x_min":122,"x_max":556,"o":"m 122 732 l 556 732 l 556 807 l 122 807 l 122 732 z "},"−":{"ha":608,"x_min":41,"x_max":567,"o":"m 567 289 l 567 346 l 41 346 l 41 289 l 567 289 z "},"×":{"ha":548,"x_min":54,"x_max":487,"o":"m 445 100 l 487 142 l 312 319 l 487 494 l 448 534 l 271 358 l 96 534 l 54 492 l 229 316 l 56 142 l 95 102 l 270 277 l 445 100 z "},"n":{"ha":762,"x_min":27,"x_max":742,"o":"m 312 35 l 278 35 l 279 382 q 358 524 289 490 q 397 533 377 533 q 488 442 475 533 q 491 406 491 425 l 491 106 q 461 39 491 49 q 429 35 448 35 l 429 0 l 742 0 q 724 34 742 31 q 708 35 716 35 l 663 35 l 663 382 q 544 593 663 551 q 476 604 511 604 q 308 525 377 604 q 275 477 288 502 l 269 583 l 27 583 l 27 548 l 106 548 l 106 106 q 47 37 106 43 q 27 35 38 35 l 27 0 l 345 0 q 327 34 345 31 q 312 35 320 35 z "},"ń":{"ha":762,"x_min":27,"x_max":742,"o":"m 312 35 l 278 35 l 279 382 q 358 524 289 490 q 397 533 377 533 q 488 442 475 533 q 491 406 491 425 l 491 106 q 461 39 491 49 q 429 35 448 35 l 429 0 l 742 0 q 724 34 742 31 q 708 35 716 35 l 663 35 l 663 382 q 544 593 663 551 q 476 604 511 604 q 308 525 377 604 q 275 477 288 502 l 269 583 l 27 583 l 27 548 l 106 548 l 106 106 q 47 37 106 43 q 27 35 38 35 l 27 0 l 345 0 q 327 34 345 31 q 312 35 320 35 m 515 749 q 545 806 544 770 q 506 876 545 852 q 469 887 488 887 q 427 872 448 886 q 354 793 410 859 q 244 682 301 732 l 264 652 q 442 716 304 671 q 515 749 495 735 z "},"ň":{"ha":762,"x_min":27,"x_max":742,"o":"m 312 35 l 278 35 l 279 382 q 358 524 289 490 q 397 533 377 533 q 488 442 475 533 q 491 406 491 425 l 491 106 q 461 39 491 49 q 429 35 448 35 l 429 0 l 742 0 q 724 34 742 31 q 708 35 716 35 l 663 35 l 663 382 q 544 593 663 551 q 476 604 511 604 q 308 525 377 604 q 275 477 288 502 l 269 583 l 27 583 l 27 548 l 106 548 l 106 106 q 47 37 106 43 q 27 35 38 35 l 27 0 l 345 0 q 327 34 345 31 q 312 35 320 35 m 382 680 q 467 730 423 680 q 498 766 476 739 q 586 868 549 829 l 566 895 q 382 810 480 846 q 197 895 267 856 l 176 868 q 290 738 208 837 q 369 681 335 686 q 382 680 376 680 z "},"≠":{"ha":608,"x_min":41,"x_max":567,"o":"m 567 214 l 567 271 l 311 271 l 347 363 l 567 363 l 567 420 l 370 420 l 434 583 l 382 583 l 319 420 l 41 420 l 41 363 l 296 363 l 259 271 l 41 271 l 41 214 l 237 214 l 176 61 l 228 61 l 289 214 l 567 214 z "},"ñ":{"ha":762,"x_min":27,"x_max":742,"o":"m 312 35 l 278 35 l 279 382 q 358 524 289 490 q 397 533 377 533 q 488 442 475 533 q 491 406 491 425 l 491 106 q 461 39 491 49 q 429 35 448 35 l 429 0 l 742 0 q 724 34 742 31 q 708 35 716 35 l 663 35 l 663 382 q 544 593 663 551 q 476 604 511 604 q 308 525 377 604 q 275 477 288 502 l 269 583 l 27 583 l 27 548 l 106 548 l 106 106 q 47 37 106 43 q 27 35 38 35 l 27 0 l 345 0 q 327 34 345 31 q 312 35 320 35 m 298 884 q 411 838 339 884 q 500 800 471 800 q 575 875 556 803 l 604 871 q 521 705 594 743 q 475 694 499 694 q 361 742 434 694 q 277 779 304 779 q 199 711 218 779 q 198 704 199 707 l 171 708 q 254 873 180 837 q 298 884 275 884 z "},"#":{"ha":785,"x_min":81,"x_max":704,"o":"m 423 -14 l 477 -14 l 513 260 l 686 260 l 686 339 l 524 339 l 544 488 l 704 488 l 704 567 l 553 567 l 586 814 l 532 814 l 499 567 l 331 567 l 363 814 l 309 814 l 277 567 l 99 567 l 99 488 l 267 488 l 247 339 l 81 339 l 81 260 l 236 260 l 201 -14 l 255 -14 l 290 260 l 458 260 l 423 -14 m 469 339 l 301 339 l 321 488 l 490 488 l 469 339 z "},"o":{"ha":707,"x_min":41,"x_max":666,"o":"m 227 294 q 273 537 227 484 q 353 568 301 568 q 464 480 439 568 q 480 300 480 423 q 429 50 480 102 q 351 22 399 22 q 243 109 267 22 q 227 294 227 167 m 359 604 q 103 490 193 604 q 41 300 41 408 q 146 57 41 146 q 347 -14 231 -14 q 598 102 507 -14 q 666 302 666 189 q 559 540 666 454 q 359 604 476 604 z "},"ó":{"ha":707,"x_min":41,"x_max":666,"o":"m 227 294 q 273 537 227 484 q 353 568 301 568 q 464 480 439 568 q 480 300 480 423 q 429 50 480 102 q 351 22 399 22 q 243 109 267 22 q 227 294 227 167 m 359 604 q 103 490 193 604 q 41 300 41 408 q 146 57 41 146 q 347 -14 231 -14 q 598 102 507 -14 q 666 302 666 189 q 559 540 666 454 q 359 604 476 604 m 502 749 q 532 806 530 770 q 492 876 532 852 q 456 887 475 887 q 414 872 434 886 q 340 793 396 859 q 231 682 288 732 l 251 652 q 429 716 290 671 q 502 749 481 735 z "},"ô":{"ha":707,"x_min":41,"x_max":666,"o":"m 227 294 q 273 537 227 484 q 353 568 301 568 q 464 480 439 568 q 480 300 480 423 q 429 50 480 102 q 351 22 399 22 q 243 109 267 22 q 227 294 227 167 m 359 604 q 103 490 193 604 q 41 300 41 408 q 146 57 41 146 q 347 -14 231 -14 q 598 102 507 -14 q 666 302 666 189 q 559 540 666 454 q 359 604 476 604 m 537 678 l 556 704 q 448 830 519 741 q 377 882 410 878 q 366 883 372 883 q 292 838 328 883 q 267 808 283 829 q 179 704 218 745 l 198 678 q 369 757 269 718 q 537 678 458 722 z "},"ö":{"ha":707,"x_min":41,"x_max":666,"o":"m 227 294 q 273 537 227 484 q 353 568 301 568 q 464 480 439 568 q 480 300 480 423 q 429 50 480 102 q 351 22 399 22 q 243 109 267 22 q 227 294 227 167 m 359 604 q 103 490 193 604 q 41 300 41 408 q 146 57 41 146 q 347 -14 231 -14 q 598 102 507 -14 q 666 302 666 189 q 559 540 666 454 q 359 604 476 604 m 331 769 q 282 850 331 825 q 240 861 262 861 q 157 811 183 861 q 148 769 148 791 q 198 689 148 713 q 240 680 218 680 q 320 726 293 680 q 331 769 331 747 m 585 769 q 534 850 585 825 q 491 861 513 861 q 412 812 438 861 q 401 769 401 792 q 450 689 401 715 q 491 680 469 680 q 574 727 548 680 q 585 769 585 747 z "},"œ":{"ha":1077,"x_min":41,"x_max":1044,"o":"m 768 570 q 861 472 849 570 q 864 420 864 449 q 826 342 864 357 q 745 335 799 332 l 658 339 q 734 564 661 536 q 768 570 750 570 m 227 294 q 273 537 227 486 q 353 570 302 570 q 464 480 439 570 q 480 300 480 422 q 427 47 480 100 q 351 20 397 20 q 241 109 267 20 q 227 294 227 167 m 359 604 q 103 490 193 604 q 41 300 41 408 q 146 57 41 146 q 347 -14 231 -14 q 563 83 481 -12 q 780 -14 640 -14 q 1017 113 954 -14 q 1031 144 1025 127 l 997 151 q 878 38 959 68 q 811 26 845 26 q 667 182 696 26 q 658 302 659 235 l 783 298 q 1034 359 994 293 q 1044 407 1044 380 q 928 574 1044 521 q 779 604 863 604 q 568 515 646 602 q 359 604 492 604 z "},"˛":{"ha":678,"x_min":163,"x_max":442,"o":"m 355 -220 q 308 -152 309 -217 q 376 -35 308 -90 q 435 0 403 -14 l 434 14 q 174 -113 220 -12 q 163 -160 163 -136 q 245 -252 163 -228 q 309 -260 275 -260 q 442 -212 397 -259 l 426 -189 q 355 -220 388 -220 z "},"ò":{"ha":707,"x_min":41,"x_max":666,"o":"m 227 294 q 273 537 227 484 q 353 568 301 568 q 464 480 439 568 q 480 300 480 423 q 429 50 480 102 q 351 22 399 22 q 243 109 267 22 q 227 294 227 167 m 359 604 q 103 490 193 604 q 41 300 41 408 q 146 57 41 146 q 347 -14 231 -14 q 598 102 507 -14 q 666 302 666 189 q 559 540 666 454 q 359 604 476 604 m 514 682 q 378 825 456 732 q 331 872 350 859 q 289 887 309 887 q 221 841 244 887 q 213 806 213 823 q 243 749 214 769 q 373 699 263 734 q 494 652 446 674 l 514 682 z "},"ő":{"ha":707,"x_min":41,"x_max":697,"o":"m 227 294 q 273 537 227 484 q 353 568 301 568 q 464 480 439 568 q 480 300 480 423 q 429 50 480 102 q 351 22 399 22 q 243 109 267 22 q 227 294 227 167 m 359 604 q 103 490 193 604 q 41 300 41 408 q 146 57 41 146 q 347 -14 231 -14 q 598 102 507 -14 q 666 302 666 189 q 559 540 666 454 q 359 604 476 604 m 410 785 q 435 842 437 807 q 395 909 434 887 q 358 917 376 918 q 317 901 339 916 q 251 821 302 887 q 151 707 203 758 l 171 680 q 339 750 206 699 q 410 785 391 770 m 658 753 q 693 804 688 770 q 658 879 696 853 q 628 891 643 890 q 585 880 605 892 q 506 812 566 869 q 389 716 449 758 l 406 685 q 586 730 448 700 q 658 753 637 742 z "},"ō":{"ha":707,"x_min":41,"x_max":666,"o":"m 227 294 q 273 537 227 484 q 353 568 301 568 q 464 480 439 568 q 480 300 480 423 q 429 50 480 102 q 351 22 399 22 q 243 109 267 22 q 227 294 227 167 m 359 604 q 103 490 193 604 q 41 300 41 408 q 146 57 41 146 q 347 -14 231 -14 q 598 102 507 -14 q 666 302 666 189 q 559 540 666 454 q 359 604 476 604 m 153 732 l 587 732 l 587 807 l 153 807 l 153 732 z "},"½":{"ha":1066,"x_min":54,"x_max":998,"o":"m 267 -45 l 849 827 l 799 859 l 216 -14 l 267 -45 m 255 840 l 54 704 l 75 671 l 198 754 l 198 431 l 81 422 l 81 392 l 452 392 q 425 420 452 416 q 416 422 419 422 l 347 431 l 347 840 l 255 840 m 689 102 q 806 168 711 136 q 947 233 913 206 q 993 331 993 273 q 886 449 993 418 q 798 461 845 461 q 646 411 700 461 q 614 343 614 381 q 684 279 620 282 q 746 303 728 279 q 761 356 764 327 q 764 409 758 385 q 795 433 770 433 q 842 378 836 433 q 844 331 844 361 q 769 194 844 245 q 727 168 755 186 q 633 91 655 126 q 612 7 612 54 l 612 0 l 997 0 l 998 168 l 977 168 l 960 126 q 891 102 939 103 l 689 102 z "},"¼":{"ha":1036,"x_min":54,"x_max":982,"o":"m 270 -45 l 852 827 l 802 859 l 218 -14 l 270 -45 m 255 840 l 54 704 l 75 671 l 198 754 l 198 431 l 81 422 l 81 392 l 452 392 q 425 420 452 416 q 416 422 419 422 l 347 431 l 347 840 l 255 840 m 982 -61 q 967 -31 982 -34 q 955 -30 962 -30 l 884 -30 l 884 62 l 982 62 l 982 96 l 884 96 l 884 274 l 859 274 l 846 240 q 770 191 830 195 q 749 191 761 191 l 732 191 l 732 98 l 543 99 q 765 250 726 218 q 891 415 890 347 q 834 477 891 467 q 814 479 823 479 q 739 431 765 479 q 719 387 732 419 q 597 194 669 269 q 488 99 549 144 l 495 65 l 732 64 l 732 -30 l 625 -30 l 625 -61 l 982 -61 z "},"¹":{"ha":445,"x_min":27,"x_max":425,"o":"m 228 880 l 27 745 l 47 712 l 171 795 l 171 472 l 54 463 l 54 433 l 425 433 q 397 461 425 457 q 389 463 392 463 l 320 472 l 320 880 l 228 880 z "},"ª":{"ha":415,"x_min":9,"x_max":401,"o":"m 388 328 l 388 378 l 19 378 l 19 328 l 388 328 m 401 528 l 376 528 q 347 477 372 479 q 331 518 331 480 l 331 681 q 208 812 331 800 q 180 814 194 814 q 31 757 53 814 q 28 739 28 747 q 64 696 28 704 q 77 694 72 694 q 136 735 123 694 q 149 777 145 773 q 175 788 159 788 q 221 726 217 788 q 222 704 222 715 l 222 654 q 9 538 19 639 q 88 442 9 457 q 118 439 103 439 q 229 506 199 441 q 300 439 243 452 q 319 438 309 438 q 399 499 384 438 q 401 528 401 514 m 164 488 q 126 548 127 494 q 180 620 126 608 q 222 625 199 624 l 222 551 q 164 488 203 491 z "},"º":{"ha":429,"x_min":9,"x_max":415,"o":"m 151 627 q 191 776 151 758 q 212 780 201 780 q 270 713 259 780 q 274 629 274 682 q 227 475 274 490 q 212 473 218 473 q 155 544 164 473 q 151 627 151 575 m 216 814 q 39 731 98 814 q 9 629 9 686 q 90 475 9 529 q 209 439 142 439 q 382 525 324 439 q 415 631 415 572 q 335 781 415 730 q 216 814 283 814 m 28 328 l 397 328 l 397 378 l 28 378 l 28 328 z "},"ø":{"ha":707,"x_min":11,"x_max":666,"o":"m 46 -19 l 134 68 q 347 -14 221 -14 q 598 102 507 -14 q 666 302 666 189 q 583 517 665 433 l 665 598 l 629 631 l 547 548 q 359 604 468 604 q 103 490 193 604 q 41 300 41 408 q 102 106 42 187 l 11 15 l 46 -19 m 227 294 q 273 537 227 484 q 353 568 301 568 q 467 469 444 566 l 228 231 q 227 294 227 252 m 351 22 q 244 104 269 22 q 232 167 236 132 l 476 410 q 480 300 480 363 q 429 50 480 102 q 351 22 399 22 z "},"õ":{"ha":707,"x_min":41,"x_max":666,"o":"m 227 294 q 273 537 227 484 q 353 568 301 568 q 464 480 439 568 q 480 300 480 423 q 429 50 480 102 q 351 22 399 22 q 243 109 267 22 q 227 294 227 167 m 359 604 q 103 490 193 604 q 41 300 41 408 q 146 57 41 146 q 347 -14 231 -14 q 598 102 507 -14 q 666 302 666 189 q 559 540 666 454 q 359 604 476 604 m 285 884 q 397 838 326 884 q 487 800 457 800 q 562 875 543 803 l 590 871 q 507 705 581 743 q 461 694 486 694 q 347 742 420 694 q 263 779 290 779 q 186 711 205 779 q 184 704 186 707 l 157 708 q 240 873 167 837 q 285 884 262 884 z "},"p":{"ha":760,"x_min":27,"x_max":722,"o":"m 277 -222 l 277 49 q 438 -14 330 -11 q 654 90 572 -14 q 722 312 722 179 q 618 562 722 484 q 491 604 563 604 q 315 524 382 604 q 274 453 288 491 l 267 583 l 27 583 l 27 548 l 104 548 l 104 -152 q 60 -220 104 -210 q 27 -222 45 -222 l 27 -258 l 380 -258 q 362 -224 380 -227 q 346 -222 354 -222 l 277 -222 m 419 538 q 536 292 536 536 q 410 23 534 24 q 300 113 336 23 q 275 266 275 175 q 349 507 275 435 q 419 538 381 538 z "},"¶":{"ha":751,"x_min":39,"x_max":738,"o":"m 320 -159 q 567 -76 473 -159 q 646 102 646 -5 l 646 779 l 738 779 l 738 814 l 370 814 q 85 686 172 814 q 39 533 39 618 q 140 317 39 396 q 334 258 218 258 l 372 258 l 372 83 q 351 -109 372 -81 q 323 -122 340 -122 q 273 -73 283 -122 q 267 -42 270 -64 q 229 49 255 28 q 168 66 205 66 q 87 14 106 66 q 81 -16 81 -1 q 186 -137 81 -96 q 320 -159 247 -159 m 483 88 q 453 -91 483 -52 q 378 -123 429 -121 q 411 41 408 -94 q 411 83 411 60 l 411 779 l 483 779 l 483 88 z "},"(":{"ha":456,"x_min":68,"x_max":435,"o":"m 423 882 q 134 633 232 830 q 68 334 68 496 q 189 -49 68 106 q 419 -203 281 -165 l 433 -165 q 254 146 282 -110 q 245 336 245 224 q 321 749 245 631 q 435 844 366 817 l 423 882 z "},")":{"ha":456,"x_min":20,"x_max":388,"o":"m 33 882 q 321 633 224 830 q 388 334 388 496 q 267 -49 388 106 q 37 -203 175 -165 l 23 -165 q 202 146 174 -110 q 210 336 210 224 q 134 749 210 631 q 20 844 90 817 l 33 882 z "},"∂":{"ha":728,"x_min":41,"x_max":674,"o":"m 674 463 q 549 772 674 677 q 366 827 475 827 q 165 772 262 826 l 187 735 q 346 785 279 785 q 499 637 469 785 q 507 547 507 595 q 499 460 507 503 q 351 519 438 519 q 91 393 175 519 q 41 221 41 317 q 134 31 41 96 q 293 -14 198 -14 q 583 148 475 -14 q 674 463 674 282 m 224 191 q 302 453 224 385 q 363 477 332 477 q 458 361 441 477 q 463 300 463 332 q 403 77 463 160 q 313 23 363 24 q 224 191 225 26 z "},"%":{"ha":1134,"x_min":54,"x_max":1073,"o":"m 286 -45 l 868 827 l 818 859 l 235 -14 l 286 -45 m 296 853 q 99 760 167 853 q 54 617 54 699 q 157 415 54 480 q 292 378 216 378 q 488 472 422 378 q 532 614 532 533 q 426 819 532 755 q 296 853 369 853 m 294 407 q 218 481 236 407 q 208 614 208 529 q 258 815 208 785 q 294 825 274 825 q 370 736 354 825 q 378 618 378 692 q 334 418 378 450 q 294 407 316 407 m 837 461 q 640 368 708 461 q 595 225 595 307 q 699 23 595 88 q 833 -14 757 -14 q 1029 80 963 -14 q 1073 222 1073 140 q 967 427 1073 363 q 837 461 910 461 m 836 15 q 760 90 777 15 q 749 222 749 137 q 799 423 749 393 q 836 433 815 433 q 911 345 895 433 q 920 227 920 300 q 875 26 920 58 q 836 15 857 15 z "},".":{"ha":259,"x_min":34,"x_max":225,"o":"m 225 88 q 174 174 225 145 q 129 184 152 184 q 45 133 72 184 q 34 88 34 111 q 85 4 34 30 q 129 -7 106 -7 q 214 42 187 -7 q 225 88 225 64 z "},"·":{"ha":338,"x_min":68,"x_max":270,"o":"m 270 308 q 217 396 270 368 q 168 410 194 410 q 80 357 110 410 q 68 308 68 334 q 121 221 68 248 q 168 209 142 209 q 256 259 228 209 q 270 308 270 282 z "},"‰":{"ha":1670,"x_min":54,"x_max":1609,"o":"m 1373 461 q 1176 368 1244 461 q 1131 225 1131 307 q 1234 23 1131 88 q 1369 -14 1293 -14 q 1565 80 1499 -14 q 1609 222 1609 140 q 1503 427 1609 363 q 1373 461 1446 461 m 1371 15 q 1295 90 1313 15 q 1284 222 1284 137 q 1335 423 1284 393 q 1371 433 1351 433 q 1447 345 1431 433 q 1455 227 1455 300 q 1411 26 1455 58 q 1371 15 1393 15 m 286 -45 l 868 827 l 818 859 l 235 -14 l 286 -45 m 296 853 q 99 760 167 853 q 54 617 54 699 q 157 415 54 480 q 292 378 216 378 q 488 472 422 378 q 532 614 532 533 q 426 819 532 755 q 296 853 369 853 m 294 407 q 218 481 236 407 q 208 614 208 529 q 258 815 208 785 q 294 825 274 825 q 370 736 354 825 q 378 618 378 692 q 334 418 378 450 q 294 407 316 407 m 837 461 q 640 368 708 461 q 595 225 595 307 q 699 23 595 88 q 833 -14 757 -14 q 1029 80 963 -14 q 1073 222 1073 140 q 967 427 1073 363 q 837 461 910 461 m 836 15 q 760 90 777 15 q 749 222 749 137 q 799 423 749 393 q 836 433 815 433 q 911 345 895 433 q 920 227 920 300 q 875 26 920 58 q 836 15 857 15 z "},"π":{"ha":777,"x_min":27,"x_max":764,"o":"m 764 102 l 732 109 q 681 22 722 34 q 671 20 675 20 q 637 81 642 20 q 637 103 637 92 l 637 548 l 734 548 l 734 583 l 27 583 l 27 548 l 106 548 l 106 106 q 58 38 106 46 q 27 35 45 35 l 27 0 l 359 0 q 342 34 359 31 q 327 35 335 35 l 278 35 l 278 548 l 465 548 l 465 205 q 608 -14 465 0 q 633 -15 621 -15 q 760 83 735 -15 q 764 102 762 92 z "},"+":{"ha":608,"x_min":41,"x_max":567,"o":"m 567 289 l 567 346 l 342 346 l 342 590 l 267 590 l 267 346 l 41 346 l 41 289 l 267 289 l 267 45 l 342 45 l 342 289 l 567 289 z "},"±":{"ha":608,"x_min":41,"x_max":567,"o":"m 567 343 l 567 400 l 342 400 l 342 590 l 267 590 l 267 400 l 41 400 l 41 343 l 267 343 l 267 153 l 342 153 l 342 343 l 567 343 m 567 38 l 567 95 l 41 95 l 41 38 l 567 38 z "},"∏":{"ha":811,"x_min":14,"x_max":798,"o":"m 365 -176 q 347 -141 365 -144 q 332 -140 340 -140 l 297 -140 l 297 777 l 514 777 l 514 -140 l 448 -140 l 448 -176 l 798 -176 q 780 -141 798 -144 q 765 -140 773 -140 l 704 -140 l 704 777 l 798 777 l 798 814 l 14 814 l 14 777 l 107 777 l 107 -140 l 14 -140 l 14 -176 l 365 -176 z "},"q":{"ha":770,"x_min":38,"x_max":743,"o":"m 38 282 q 149 30 38 111 q 285 -14 210 -14 q 460 75 395 -14 q 484 117 473 95 l 484 -152 q 439 -220 484 -210 q 407 -222 425 -222 l 407 -258 l 743 -258 q 727 -224 743 -228 q 711 -222 720 -222 l 656 -222 l 656 548 l 743 548 l 743 583 l 498 583 l 494 543 q 323 604 426 604 q 109 505 190 604 q 38 282 38 416 m 487 323 q 401 64 487 119 q 349 49 377 49 q 231 203 254 49 q 224 297 224 245 q 309 547 224 495 q 361 560 334 560 q 481 410 458 560 q 487 323 487 369 z "},"?":{"ha":633,"x_min":68,"x_max":566,"o":"m 305 260 q 389 426 305 357 q 437 461 404 438 q 538 556 514 517 q 566 655 566 600 q 431 810 566 768 q 304 827 373 827 q 107 769 175 827 q 68 688 69 734 q 122 617 68 631 q 149 614 136 614 q 222 670 210 614 q 228 704 225 681 q 256 780 235 764 q 304 792 275 792 q 388 724 369 792 q 393 678 393 703 q 340 481 393 560 q 292 410 294 415 q 259 260 259 349 l 305 260 m 384 88 q 332 174 384 145 q 288 184 311 184 q 203 133 231 184 q 193 88 193 111 q 244 4 193 30 q 288 -7 264 -7 q 373 42 346 -7 q 384 88 384 64 z "},"¿":{"ha":667,"x_min":47,"x_max":545,"o":"m 308 336 q 224 171 308 240 q 176 136 209 159 q 75 41 99 80 q 47 -58 47 -3 q 182 -213 47 -171 q 309 -231 240 -231 q 506 -172 438 -231 q 545 -91 544 -137 q 491 -20 545 -34 q 464 -18 477 -18 q 391 -73 403 -18 q 385 -107 388 -84 q 357 -183 378 -167 q 309 -195 338 -195 q 225 -127 244 -195 q 220 -81 220 -106 q 273 115 220 37 q 321 187 319 182 q 354 336 354 248 l 308 336 m 229 509 q 281 423 229 452 q 326 412 302 412 q 410 464 382 412 q 420 509 420 486 q 369 593 420 567 q 326 604 349 604 q 240 555 267 604 q 229 509 229 533 z "},"\"":{"ha":418,"x_min":34,"x_max":384,"o":"m 111 895 q 35 849 46 895 q 34 834 34 841 q 62 708 34 808 q 90 585 81 640 l 130 585 q 174 765 137 633 q 186 837 186 812 q 111 895 172 888 m 309 895 q 233 849 244 895 q 232 834 232 841 q 260 708 232 808 q 288 585 279 640 l 328 585 q 372 765 335 633 q 384 837 384 811 q 309 895 370 888 z "},"„":{"ha":456,"x_min":27,"x_max":429,"o":"m 429 76 q 369 178 429 156 q 334 184 353 184 q 255 133 279 184 q 245 92 245 114 q 298 9 245 34 q 319 3 309 5 q 353 -30 351 -7 q 302 -122 351 -71 l 330 -142 q 426 45 411 -57 q 429 76 429 61 m 210 76 q 151 178 210 156 q 115 184 134 184 q 37 133 61 184 q 27 92 27 114 q 80 9 27 34 q 100 3 91 5 q 134 -30 133 -7 q 84 -122 133 -71 l 111 -142 q 208 45 193 -57 q 210 76 210 61 z "},"“":{"ha":456,"x_min":27,"x_max":429,"o":"m 27 674 q 87 572 27 594 q 122 566 103 566 q 201 617 176 566 q 210 658 210 636 q 157 741 210 716 q 137 747 146 745 q 103 780 104 757 q 153 872 104 821 l 126 892 q 30 705 45 807 q 27 674 27 689 m 245 674 q 305 572 245 594 q 340 566 321 566 q 419 617 395 566 q 429 658 429 636 q 376 741 429 716 q 355 747 365 745 q 321 780 323 757 q 372 872 323 821 l 345 892 q 248 705 263 807 q 245 674 245 689 z "},"”":{"ha":456,"x_min":27,"x_max":429,"o":"m 429 780 q 369 882 429 860 q 334 888 353 888 q 255 837 279 888 q 245 796 245 818 q 298 713 245 738 q 319 707 309 709 q 353 674 351 697 q 302 582 351 633 l 330 562 q 426 749 411 647 q 429 780 429 765 m 210 780 q 151 882 210 860 q 115 888 134 888 q 37 837 61 888 q 27 796 27 818 q 80 713 27 738 q 100 707 91 709 q 134 674 133 697 q 84 582 133 633 l 111 562 q 208 749 193 647 q 210 780 210 765 z "},"‘":{"ha":254,"x_min":27,"x_max":220,"o":"m 220 658 q 164 745 220 718 q 142 751 153 749 q 107 785 109 761 q 157 880 107 826 q 160 883 159 882 l 132 905 q 30 707 46 812 q 27 674 27 689 q 91 567 27 590 q 127 562 107 562 q 209 613 183 562 q 220 658 220 635 z "},"’":{"ha":323,"x_min":35,"x_max":228,"o":"m 228 783 q 164 890 228 867 q 127 895 146 895 q 46 844 72 895 q 35 799 35 822 q 91 712 35 739 q 113 705 102 708 q 148 671 146 696 q 98 576 148 631 q 95 574 96 575 l 123 552 q 225 750 209 644 q 228 783 228 768 z "},"‚":{"ha":237,"x_min":27,"x_max":212,"o":"m 212 76 q 149 179 212 155 q 117 184 133 184 q 38 138 62 184 q 27 92 27 117 q 80 9 27 34 q 100 3 91 5 q 134 -30 133 -7 q 95 -109 133 -61 l 125 -127 q 212 76 205 -22 z "},"'":{"ha":228,"x_min":34,"x_max":194,"o":"m 115 895 q 37 852 50 895 q 34 834 34 842 q 64 713 34 808 q 94 585 85 642 l 134 585 q 179 764 141 637 q 194 837 194 811 q 136 894 194 884 q 115 895 125 895 z "},"r":{"ha":572,"x_min":27,"x_max":566,"o":"m 378 35 l 278 35 l 278 328 q 347 502 288 471 q 365 506 357 506 q 397 475 380 506 q 450 420 422 431 q 480 416 464 416 q 557 468 534 416 q 566 505 566 486 q 499 590 566 572 q 465 594 483 594 q 317 528 381 594 q 274 457 289 495 l 264 583 l 27 583 l 27 548 l 106 548 l 106 106 q 58 38 106 46 q 27 35 45 35 l 27 0 l 411 0 q 393 34 411 31 q 378 35 387 35 z "},"ŕ":{"ha":572,"x_min":27,"x_max":566,"o":"m 378 35 l 278 35 l 278 328 q 347 502 288 471 q 365 506 357 506 q 397 475 380 506 q 450 420 422 431 q 480 416 464 416 q 557 468 534 416 q 566 505 566 486 q 499 590 566 572 q 465 594 483 594 q 317 528 381 594 q 274 457 289 495 l 264 583 l 27 583 l 27 548 l 106 548 l 106 106 q 58 38 106 46 q 27 35 45 35 l 27 0 l 411 0 q 393 34 411 31 q 378 35 387 35 m 406 749 q 435 806 434 770 q 396 876 435 852 q 359 887 378 887 q 317 872 338 886 q 244 793 300 859 q 134 682 191 732 l 155 652 q 332 716 194 671 q 406 749 385 735 z "},"√":{"ha":610,"x_min":-20,"x_max":651,"o":"m 228 595 l -20 487 l -5 449 l 96 494 l 243 88 q 304 -1 270 12 q 343 -7 320 -7 l 400 -7 l 651 982 l 598 994 l 378 145 l 228 595 z "},"ř":{"ha":572,"x_min":27,"x_max":566,"o":"m 378 35 l 278 35 l 278 328 q 347 502 288 471 q 365 506 357 506 q 397 475 380 506 q 450 420 422 431 q 480 416 464 416 q 557 468 534 416 q 566 505 566 486 q 499 590 566 572 q 465 594 483 594 q 317 528 381 594 q 274 457 289 495 l 264 583 l 27 583 l 27 548 l 106 548 l 106 106 q 58 38 106 46 q 27 35 45 35 l 27 0 l 411 0 q 393 34 411 31 q 378 35 387 35 m 273 680 q 357 730 313 680 q 388 766 366 739 q 476 868 439 829 l 456 895 q 273 810 370 846 q 87 895 157 856 l 66 868 q 180 738 98 837 q 259 681 225 686 q 273 680 266 680 z "},"®":{"ha":536,"x_min":20,"x_max":502,"o":"m 502 642 q 411 827 502 758 q 260 876 346 876 q 68 784 137 876 q 20 642 20 722 q 111 456 20 525 q 260 407 176 407 q 453 498 382 407 q 502 642 502 562 m 58 642 q 141 808 58 750 q 260 845 193 845 q 429 760 370 845 q 464 642 464 708 q 381 475 464 534 q 260 438 328 438 q 94 524 151 438 q 58 642 58 576 m 412 509 q 395 529 407 528 l 388 529 l 321 636 q 389 708 388 652 q 330 774 389 757 q 281 780 308 780 l 126 780 l 126 758 l 153 758 l 153 529 l 126 529 l 126 509 l 264 509 l 264 529 l 233 529 l 233 629 l 251 629 l 319 507 l 412 509 m 233 758 l 254 758 q 298 719 290 758 q 300 705 300 711 q 266 652 300 661 q 256 651 260 651 l 233 651 l 233 758 z "},"˚":{"ha":678,"x_min":170,"x_max":488,"o":"m 274 780 q 328 875 275 873 q 384 783 384 873 q 328 686 382 688 q 274 780 274 688 m 332 907 q 178 827 210 907 q 170 783 170 806 q 251 666 170 697 q 326 654 283 654 q 479 734 444 654 q 488 784 488 757 q 408 895 488 865 q 332 907 374 907 z "},"s":{"ha":568,"x_min":54,"x_max":528,"o":"m 266 24 q 370 90 357 24 q 372 107 372 99 q 285 222 372 176 q 224 251 266 233 q 90 334 122 296 q 54 430 54 374 q 180 586 54 545 q 298 604 233 604 q 464 566 404 604 q 488 610 464 606 q 499 612 494 612 l 499 442 l 456 442 q 321 567 450 566 q 214 510 235 567 q 210 483 210 496 q 292 384 210 425 q 346 358 308 374 q 487 271 452 311 q 528 161 528 225 q 406 3 528 43 q 293 -14 355 -14 q 92 28 174 -14 q 75 -12 92 -7 q 56 -14 66 -14 l 56 193 l 102 193 q 266 24 104 26 z "},"ś":{"ha":568,"x_min":54,"x_max":528,"o":"m 266 24 q 370 90 357 24 q 372 107 372 99 q 285 222 372 176 q 224 251 266 233 q 90 334 122 296 q 54 430 54 374 q 180 586 54 545 q 298 604 233 604 q 464 566 404 604 q 488 610 464 606 q 499 612 494 612 l 499 442 l 456 442 q 321 567 450 566 q 214 510 235 567 q 210 483 210 496 q 292 384 210 425 q 346 358 308 374 q 487 271 452 311 q 528 161 528 225 q 406 3 528 43 q 293 -14 355 -14 q 92 28 174 -14 q 75 -12 92 -7 q 56 -14 66 -14 l 56 193 l 102 193 q 266 24 104 26 m 419 749 q 449 806 448 770 q 410 876 449 852 q 373 887 392 887 q 331 872 351 886 q 258 793 313 859 q 148 682 205 732 l 168 652 q 346 716 208 671 q 419 749 399 735 z "},"š":{"ha":568,"x_min":54,"x_max":528,"o":"m 266 24 q 370 90 357 24 q 372 107 372 99 q 285 222 372 176 q 224 251 266 233 q 90 334 122 296 q 54 430 54 374 q 180 586 54 545 q 298 604 233 604 q 464 566 404 604 q 488 610 464 606 q 499 612 494 612 l 499 442 l 456 442 q 321 567 450 566 q 214 510 235 567 q 210 483 210 496 q 292 384 210 425 q 346 358 308 374 q 487 271 452 311 q 528 161 528 225 q 406 3 528 43 q 293 -14 355 -14 q 92 28 174 -14 q 75 -12 92 -7 q 56 -14 66 -14 l 56 193 l 102 193 q 266 24 104 26 m 286 680 q 370 730 327 680 q 401 766 380 739 q 490 868 453 829 l 469 895 q 286 810 384 846 q 100 895 171 856 l 80 868 q 194 738 111 837 q 273 681 239 686 q 286 680 279 680 z "},"§":{"ha":642,"x_min":47,"x_max":594,"o":"m 210 426 q 237 500 212 469 q 358 446 354 448 q 431 353 430 404 q 399 274 430 304 q 264 342 286 328 q 210 426 212 381 m 594 408 q 476 568 594 506 q 392 606 449 582 q 262 682 288 651 q 243 731 243 705 q 296 802 243 784 q 327 807 311 807 q 400 755 384 807 q 407 731 403 747 q 441 667 418 680 q 477 659 457 659 q 538 707 529 659 q 540 723 540 715 q 446 823 540 785 q 327 845 389 845 q 107 766 171 845 q 76 677 76 727 q 174 533 77 590 q 50 408 69 498 q 47 376 47 392 q 171 205 47 275 q 250 165 197 191 q 372 88 349 118 q 387 47 387 68 q 331 -23 387 -8 q 302 -27 317 -27 q 235 23 250 -27 q 228 50 232 31 q 193 119 217 104 q 149 129 175 129 q 83 81 92 129 q 81 66 81 73 q 190 -49 81 -14 q 307 -65 243 -65 q 513 1 439 -65 q 559 104 559 45 q 456 244 557 187 q 589 366 564 278 q 594 408 594 388 z "},";":{"ha":254,"x_min":34,"x_max":227,"o":"m 225 410 q 174 495 225 467 q 129 506 152 506 q 45 454 72 506 q 34 410 34 433 q 85 326 34 351 q 129 315 106 315 q 214 363 187 315 q 225 410 225 385 m 227 90 q 163 197 227 174 q 126 202 145 202 q 45 151 71 202 q 34 106 34 129 q 90 19 34 46 q 111 12 100 15 q 146 -22 145 3 q 96 -117 146 -62 q 94 -119 95 -118 l 122 -141 q 224 57 208 -49 q 227 90 227 75 z "},"-":{"ha":403,"x_min":58,"x_max":332,"o":"m 58 307 l 332 307 l 332 254 l 58 254 l 58 307 z "},"‐":{"ha":403,"x_min":58,"x_max":332,"o":"m 58 307 l 332 307 l 332 254 l 58 254 l 58 307 z "},"අ":{"ha":758,"x_min":43,"x_max":701,"o":"m 538 307 q 514 309 521 307 l 514 412 q 556 526 515 487 l 556 521 q 576 458 557 487 q 598 385 598 426 q 557 309 598 326 q 538 307 548 307 m 472 -285 l 514 -285 l 514 5 q 693 68 627 24 l 693 113 q 514 50 625 61 l 514 267 q 570 262 548 262 q 689 320 656 262 q 701 372 701 343 q 639 480 701 433 q 593 521 598 511 q 590 534 590 529 q 604 556 591 551 q 614 562 608 559 l 582 576 q 507 530 538 564 q 472 415 472 490 l 472 46 l 444 46 q 267 136 313 46 q 248 217 248 172 q 317 355 248 313 q 410 377 355 377 l 456 377 l 456 384 q 342 566 456 530 q 279 574 313 574 q 151 522 183 574 q 141 488 141 506 q 179 437 141 450 q 197 434 189 434 q 260 475 239 435 q 308 511 277 507 q 323 513 316 513 q 403 454 377 513 q 412 410 411 433 l 267 410 q 66 308 121 410 q 43 212 43 264 q 187 23 43 77 q 373 -5 264 -5 q 472 0 431 -5 l 472 -285 z "},"ආ":{"ha":1139,"x_min":43,"x_max":1073,"o":"m 538 307 q 514 309 521 307 l 514 412 q 556 526 515 487 l 556 521 q 576 458 557 487 q 598 385 598 426 q 557 309 598 326 q 538 307 548 307 m 472 -285 l 514 -285 l 514 5 q 693 68 627 24 l 693 113 q 514 50 625 61 l 514 267 q 570 262 548 262 q 689 320 656 262 q 701 372 701 343 q 639 480 701 433 q 593 521 598 511 q 590 534 590 529 q 604 556 591 551 q 614 562 608 559 l 582 576 q 507 530 538 564 q 472 415 472 490 l 472 46 l 444 46 q 267 136 313 46 q 248 217 248 172 q 317 355 248 313 q 410 377 355 377 l 456 377 l 456 384 q 342 566 456 530 q 279 574 313 574 q 151 522 183 574 q 141 488 141 506 q 179 437 141 450 q 197 434 189 434 q 260 475 239 435 q 308 511 277 507 q 323 513 316 513 q 403 454 377 513 q 412 410 411 433 l 267 410 q 66 308 121 410 q 43 212 43 264 q 187 23 43 77 q 373 -5 264 -5 q 472 0 431 -5 l 472 -285 m 743 146 q 825 11 743 46 q 891 -1 856 -1 q 1065 172 1035 -1 q 1073 266 1073 216 q 937 529 1073 495 q 891 534 916 534 q 768 471 810 534 q 743 387 743 433 q 745 357 743 366 l 783 357 q 781 377 781 365 q 827 448 785 442 q 890 266 890 445 q 827 87 888 88 q 781 155 783 91 q 783 175 781 168 l 745 175 q 743 146 743 164 z "},"ඈ":{"ha":1162,"x_min":43,"x_max":1122,"o":"m 538 307 q 514 309 521 307 l 514 412 q 556 526 515 487 l 556 521 q 576 458 557 487 q 598 385 598 426 q 557 309 598 326 q 538 307 548 307 m 472 -285 l 514 -285 l 514 5 q 693 68 627 24 l 693 113 q 514 50 625 61 l 514 267 q 570 262 548 262 q 689 320 656 262 q 701 372 701 343 q 639 480 701 433 q 593 521 598 511 q 590 534 590 529 q 604 556 591 551 q 614 562 608 559 l 582 576 q 507 530 538 564 q 472 415 472 490 l 472 46 l 444 46 q 267 136 313 46 q 248 217 248 172 q 317 355 248 313 q 410 377 355 377 l 456 377 l 456 384 q 342 566 456 530 q 279 574 313 574 q 151 522 183 574 q 141 488 141 506 q 179 437 141 450 q 197 434 189 434 q 260 475 239 435 q 308 511 277 507 q 323 513 316 513 q 403 454 377 513 q 412 410 411 433 l 267 410 q 66 308 121 410 q 43 212 43 264 q 187 23 43 77 q 373 -5 264 -5 q 472 0 431 -5 l 472 -285 m 722 414 l 978 414 l 811 293 l 811 260 l 1017 260 q 853 137 899 190 q 789 -24 789 64 q 892 -180 789 -138 q 990 -197 936 -197 q 1122 -168 1055 -197 l 1122 -132 q 983 -39 1024 -132 q 966 47 966 3 q 1077 266 967 180 l 1077 296 l 878 296 l 1046 420 l 1046 449 l 722 449 l 722 414 z "},"ඇ":{"ha":1162,"x_min":43,"x_max":1126,"o":"m 724 412 l 996 412 q 869 264 901 311 q 787 24 787 146 q 878 -167 787 -107 q 982 -195 925 -195 q 1126 -141 1077 -194 l 1120 -114 q 1062 -100 1085 -111 q 960 68 978 -61 q 956 119 956 95 q 1039 414 956 281 q 1046 425 1043 419 q 1050 449 1048 445 l 724 449 l 724 412 m 538 307 q 514 309 521 307 l 514 412 q 556 526 515 487 l 556 521 q 576 458 557 487 q 598 385 598 426 q 557 309 598 326 q 538 307 548 307 m 472 -285 l 514 -285 l 514 5 q 693 68 627 24 l 693 113 q 514 50 625 61 l 514 267 q 570 262 548 262 q 689 320 656 262 q 701 372 701 343 q 639 480 701 433 q 593 521 598 511 q 590 534 590 529 q 604 556 591 551 q 614 562 608 559 l 582 576 q 507 530 538 564 q 472 415 472 490 l 472 46 l 444 46 q 267 136 313 46 q 248 217 248 172 q 317 355 248 313 q 410 377 355 377 l 456 377 l 456 384 q 342 566 456 530 q 279 574 313 574 q 151 522 183 574 q 141 488 141 506 q 179 437 141 450 q 197 434 189 434 q 260 475 239 435 q 308 511 277 507 q 323 513 316 513 q 403 454 377 513 q 412 410 411 433 l 267 410 q 66 308 121 410 q 43 212 43 264 q 187 23 43 77 q 373 -5 264 -5 q 472 0 431 -5 l 472 -285 z "},"ඓ":{"ha":1560,"x_min":43,"x_max":1496,"o":"m 834 218 q 994 20 834 71 q 1141 0 1059 0 q 1446 144 1354 0 q 1496 324 1496 224 q 1439 548 1496 444 q 1427 570 1432 559 q 1263 753 1367 673 q 1204 791 1232 776 q 1149 636 1149 726 q 1214 496 1149 538 q 1282 476 1244 476 q 1398 543 1364 477 q 1431 399 1431 486 q 1294 209 1431 259 q 1143 186 1230 186 q 917 274 920 189 q 954 335 918 312 q 1084 365 1004 365 l 1165 365 l 1165 384 q 1088 547 1165 499 q 998 571 1050 571 q 871 519 906 571 q 859 476 859 499 q 897 426 859 437 q 910 425 903 425 q 970 471 955 426 q 1015 513 981 503 q 1029 515 1023 515 q 1109 463 1084 515 q 1120 408 1120 437 l 1120 400 l 796 400 l 796 355 q 945 365 841 363 l 947 365 q 878 328 909 355 q 834 218 834 289 m 1195 647 q 1217 738 1195 693 q 1369 585 1312 667 q 1297 537 1344 541 q 1206 595 1232 537 q 1195 647 1195 618 m 292 366 q 334 422 292 404 q 365 427 350 427 q 431 389 412 427 q 437 366 437 377 q 396 311 437 327 q 365 304 381 304 q 298 342 317 304 q 292 366 292 353 m 43 281 q 161 54 43 134 q 357 0 244 0 q 610 109 533 0 q 650 235 650 165 q 529 437 650 376 q 384 469 465 469 q 259 412 294 469 q 245 365 245 391 q 307 278 245 308 q 365 264 335 264 q 465 313 430 264 q 483 365 483 338 q 456 427 481 403 q 548 350 529 411 q 552 323 552 335 q 460 199 552 236 q 357 182 415 182 q 165 269 221 182 q 141 350 141 307 q 241 498 141 446 q 399 532 309 532 q 656 427 557 532 q 732 273 718 361 l 773 273 q 631 506 760 419 q 399 572 529 572 q 133 477 237 572 q 43 281 45 396 z "},"ඖ":{"ha":1369,"x_min":39,"x_max":1305,"o":"m 363 479 q 401 536 363 519 q 425 540 412 540 q 481 502 465 540 q 486 479 486 491 q 448 422 486 438 q 425 418 437 418 q 368 456 384 418 q 363 479 363 467 m 39 297 q 109 75 39 163 q 259 0 168 1 q 404 73 365 1 q 522 0 431 7 q 537 0 529 0 q 761 180 707 0 q 781 336 781 251 q 661 665 781 544 q 397 766 556 766 q 95 633 197 766 q 83 617 88 625 l 127 617 q 343 730 210 718 q 395 732 369 732 q 658 595 575 732 q 704 427 704 519 q 612 203 704 256 q 534 184 578 184 q 425 251 439 184 q 423 270 423 260 l 423 275 l 385 275 l 385 271 q 270 183 382 184 q 122 269 168 183 q 98 369 98 313 q 138 503 98 450 q 193 534 163 533 q 225 492 225 532 l 225 449 q 323 309 225 340 q 392 298 354 298 q 537 368 495 298 q 556 437 556 399 q 488 562 556 528 q 426 575 460 575 q 330 518 354 575 q 321 477 321 498 q 369 391 321 420 q 422 377 393 377 q 511 430 486 377 q 514 438 513 435 q 515 431 515 434 q 442 346 515 366 q 391 339 418 339 q 271 408 294 339 q 266 446 266 427 l 266 491 q 241 560 264 543 q 197 571 224 571 q 69 460 114 571 q 39 297 39 388 m 827 425 q 887 297 827 335 q 945 281 914 281 q 1050 381 1047 286 q 1001 457 1048 431 l 1001 467 q 1047 515 1004 513 q 1112 407 1096 515 q 1118 315 1118 366 q 1058 87 1118 109 q 1039 84 1048 84 q 978 148 985 84 q 977 165 977 157 q 981 208 977 187 l 944 208 q 939 159 939 184 q 1021 11 939 49 q 1093 -3 1053 -3 q 1287 157 1241 -3 q 1305 292 1305 217 q 1225 522 1305 446 q 1095 572 1172 572 q 972 509 1004 572 q 963 463 963 487 q 964 446 963 452 q 990 384 990 419 q 939 327 987 328 q 873 385 890 327 q 868 426 868 404 q 925 567 869 518 l 876 567 q 827 425 827 513 z "},"බ":{"ha":819,"x_min":43,"x_max":762,"o":"m 136 100 q 174 43 136 60 q 198 38 186 38 q 255 75 237 38 q 262 100 262 87 q 225 157 262 140 q 198 164 212 164 q 141 127 159 164 q 136 100 136 114 m 43 248 q 152 475 43 396 q 316 525 224 525 q 513 439 460 525 q 536 353 536 401 q 463 232 536 273 q 439 220 454 228 q 388 179 395 198 q 387 168 387 174 q 441 138 388 138 q 609 252 541 138 q 667 471 667 350 q 557 693 667 620 q 387 739 486 739 q 129 623 206 738 l 84 623 q 330 772 148 753 q 387 774 358 774 q 697 620 598 774 q 762 376 762 519 q 671 73 762 178 q 505 -3 604 -3 q 358 77 399 -3 q 343 144 343 107 q 388 233 343 201 q 430 273 423 260 q 438 305 438 288 q 362 362 438 350 q 313 365 339 365 q 130 289 193 365 q 92 183 92 244 q 102 121 92 146 q 163 197 109 178 q 198 202 180 202 q 290 151 259 202 q 304 102 304 127 q 245 9 304 37 q 198 -1 222 -1 q 60 126 98 -1 q 43 248 43 182 z "},"භ":{"ha":887,"x_min":8,"x_max":822,"o":"m 8 355 q 159 365 34 361 q 65 205 66 305 q 161 30 65 87 q 288 -1 217 -1 q 476 85 418 -1 q 506 193 506 133 q 453 312 506 282 q 419 320 437 320 q 382 311 400 319 q 460 407 407 387 q 517 416 486 416 q 665 308 624 416 q 680 220 680 264 q 609 58 680 102 q 534 38 576 38 q 487 41 503 38 l 487 3 q 541 -1 515 -1 q 762 102 681 -1 q 822 279 822 179 q 736 514 822 431 q 591 572 675 572 q 406 458 481 572 q 338 258 346 370 l 370 247 q 414 285 384 283 q 442 252 441 282 q 346 189 442 203 q 301 184 323 184 q 152 244 182 184 q 145 277 145 260 q 209 354 145 328 q 293 369 247 369 q 338 366 309 369 q 264 544 338 490 q 178 572 227 572 q 73 517 102 572 q 65 481 65 499 q 107 429 65 437 q 119 427 113 427 q 172 467 156 429 q 222 500 189 500 q 281 452 260 500 q 292 401 292 427 l 8 401 l 8 355 z "},"ච":{"ha":791,"x_min":18,"x_max":762,"o":"m 84 218 q 244 20 84 71 q 391 0 309 0 q 708 155 613 0 q 762 363 762 243 q 647 662 762 547 q 401 764 545 764 q 111 623 210 762 l 157 623 q 401 730 250 730 q 631 612 549 730 q 685 435 685 533 q 529 205 685 258 q 395 186 469 186 q 171 259 191 186 q 170 274 170 267 q 213 336 172 315 q 359 363 264 363 l 423 363 l 423 384 q 309 563 423 532 q 250 571 281 571 q 122 519 157 571 q 110 476 110 499 q 148 425 110 433 q 160 423 153 423 q 222 471 208 425 q 292 515 239 514 q 363 465 339 515 q 376 408 376 439 l 376 400 l 18 400 l 18 354 q 193 363 60 362 q 129 328 153 350 q 84 218 84 289 z "},"ඡ":{"ha":791,"x_min":43,"x_max":760,"o":"m 627 385 q 500 412 575 410 q 524 540 505 484 l 533 540 q 662 442 644 540 q 665 407 665 425 q 658 366 665 391 q 627 385 642 377 m 410 411 q 408 429 408 418 q 475 529 410 502 q 461 414 463 464 q 410 411 429 414 m 43 225 q 237 18 43 65 q 395 0 308 0 q 681 96 595 0 q 727 222 727 149 q 690 336 726 289 q 705 410 705 372 q 620 559 705 515 q 538 576 583 576 q 586 650 559 618 q 700 719 624 696 q 755 751 746 734 q 760 773 760 761 q 719 817 760 808 q 703 818 711 818 q 575 754 632 817 q 484 571 513 681 q 369 437 377 547 q 369 423 369 430 q 376 374 369 399 q 461 380 422 378 q 560 247 465 256 q 574 247 567 247 q 650 275 620 248 q 387 182 642 182 q 126 267 155 182 q 123 288 123 277 q 186 362 123 336 q 304 381 232 381 q 336 378 316 381 q 342 431 342 401 q 255 563 342 534 q 197 572 228 572 q 83 521 114 572 q 71 477 71 500 q 107 427 71 438 q 123 425 117 425 q 189 475 163 425 q 190 479 190 477 q 243 509 206 509 q 300 452 293 509 q 301 437 301 444 q 298 412 301 429 q 275 414 292 414 q 71 320 130 414 q 43 225 43 277 m 576 283 q 500 378 503 286 q 639 321 606 373 q 576 283 612 285 z "},"ද":{"ha":604,"x_min":41,"x_max":541,"o":"m 41 224 q 296 420 43 419 l 450 420 q 378 513 435 496 q 355 517 366 517 q 300 479 317 515 q 237 441 281 442 q 183 476 195 441 q 180 491 180 484 q 243 563 180 540 q 308 574 273 574 q 483 456 439 574 q 502 385 495 425 l 420 385 q 248 271 267 385 q 244 229 244 251 q 317 76 244 121 q 378 58 346 58 q 475 94 434 58 q 505 125 490 107 l 538 99 q 444 -122 445 -12 q 541 -273 446 -241 l 541 -315 q 463 -326 498 -326 q 319 -233 349 -326 q 311 -180 311 -208 q 385 -23 311 -104 q 418 11 399 -8 q 311 -1 373 -1 q 69 111 134 -1 q 41 224 41 161 z "},"ඩ":{"ha":856,"x_min":20,"x_max":792,"o":"m 20 377 l 20 418 l 342 418 q 298 502 339 472 q 260 514 279 514 q 203 477 224 511 q 149 444 183 445 q 98 480 107 444 q 96 494 96 488 q 165 566 96 545 q 216 572 191 572 q 380 458 343 572 q 391 377 391 422 l 297 377 q 151 304 179 377 q 145 278 145 290 q 222 191 145 209 q 269 186 244 186 q 393 264 392 187 l 393 293 l 434 293 l 434 264 q 548 186 437 187 q 693 278 648 186 q 715 388 715 327 q 621 642 715 543 q 395 735 532 735 q 144 620 239 734 l 96 620 q 403 770 202 770 q 697 633 586 770 q 792 342 792 514 q 661 22 792 88 q 567 0 618 0 q 419 72 473 0 q 415 79 416 76 q 263 0 350 1 q 87 103 141 0 q 61 214 61 155 q 144 366 61 316 q 165 377 155 372 l 20 377 z "},"ඪ":{"ha":856,"x_min":20,"x_max":792,"o":"m 20 377 l 20 418 l 339 418 q 296 503 338 476 q 260 514 278 514 q 203 477 224 511 q 149 444 183 445 q 98 480 107 444 q 96 494 96 488 q 165 566 96 545 q 216 572 191 572 q 376 460 340 572 q 388 377 388 422 l 297 377 q 151 304 179 377 q 145 278 145 290 q 222 191 145 209 q 269 186 244 186 q 393 264 392 187 l 393 293 l 434 293 l 434 264 q 548 186 437 187 q 692 282 650 186 q 712 388 712 328 q 673 548 712 465 q 559 480 625 481 q 434 562 468 480 q 422 632 422 594 q 476 798 422 715 l 476 799 q 689 621 593 753 q 792 339 792 479 q 665 23 792 92 q 567 0 621 0 q 419 72 473 0 q 415 79 416 76 q 263 0 350 1 q 87 103 141 0 q 61 214 61 155 q 144 366 61 316 q 165 377 155 372 l 20 377 m 464 637 q 562 525 467 526 q 651 590 616 526 q 506 739 590 690 q 495 745 500 742 q 464 637 467 704 z "},"ධ":{"ha":845,"x_min":43,"x_max":780,"o":"m 43 258 q 122 52 43 126 q 252 0 176 0 q 401 79 339 1 q 559 0 463 1 q 758 178 705 0 q 780 346 780 254 q 655 663 780 541 q 396 768 547 768 q 85 620 197 766 l 132 620 q 389 734 236 734 q 633 608 544 734 q 697 403 697 515 q 570 187 697 205 q 545 186 557 186 q 425 279 435 186 q 423 298 423 289 l 423 330 l 382 330 l 382 298 q 278 187 382 198 q 255 186 266 186 q 122 279 145 186 q 117 320 117 298 q 183 461 117 411 q 279 492 225 492 l 293 492 l 293 528 q 201 513 243 528 q 71 384 114 481 q 43 258 43 324 z "},"එ":{"ha":788,"x_min":22,"x_max":722,"o":"m 60 218 q 220 20 60 71 q 366 0 285 0 q 671 144 579 0 q 722 324 722 224 q 665 548 722 444 q 652 570 658 559 q 488 753 593 673 q 430 791 457 776 q 374 636 374 726 q 439 496 374 538 q 507 476 469 476 q 624 543 590 477 q 656 399 656 486 q 519 209 656 259 q 369 186 456 186 q 142 274 145 189 q 179 335 144 312 q 309 365 229 365 l 391 365 l 391 384 q 313 547 391 499 q 224 571 275 571 q 96 519 132 571 q 84 476 84 499 q 122 426 84 437 q 136 425 129 425 q 195 471 180 426 q 240 513 206 503 q 255 515 248 515 q 335 463 309 515 q 346 408 346 437 l 346 400 l 22 400 l 22 355 q 171 365 66 363 l 172 365 q 103 328 134 355 q 60 218 60 289 m 420 647 q 442 738 420 693 q 594 585 537 667 q 522 537 570 541 q 431 595 457 537 q 420 647 420 618 z "},"ඒ":{"ha":788,"x_min":22,"x_max":784,"o":"m 621 685 l 621 860 q 709 788 694 811 q 724 739 724 765 q 684 678 724 690 q 665 675 674 675 q 621 685 640 675 m 60 218 q 220 20 60 71 q 366 0 285 0 q 671 144 579 0 q 722 324 722 224 q 684 491 722 416 q 652 547 671 514 q 621 594 627 586 l 621 650 q 681 637 648 637 q 773 690 746 637 q 784 735 784 711 q 705 856 784 811 q 658 878 690 864 q 583 920 605 903 l 583 640 q 430 768 507 727 q 374 612 374 703 q 439 472 374 514 q 507 452 469 452 q 624 519 590 453 q 656 418 654 469 q 656 399 656 408 q 519 209 656 259 q 369 186 456 186 q 142 274 145 189 q 179 335 144 312 q 309 365 229 365 l 382 365 l 382 384 q 297 547 382 505 q 217 564 262 564 q 94 509 125 564 q 84 468 84 490 q 122 419 84 429 q 136 418 129 418 q 195 463 180 419 q 240 505 206 495 q 255 507 248 507 q 330 452 308 507 q 338 408 338 431 l 338 400 l 22 400 l 22 355 q 171 365 66 363 l 172 365 q 103 328 134 355 q 60 218 60 289 m 420 623 q 442 715 420 669 q 594 560 536 646 q 522 514 571 517 q 430 572 457 514 q 420 623 420 595 z "},"ෆ":{"ha":803,"x_min":43,"x_max":741,"o":"m 43 281 q 118 514 43 431 q 247 571 171 571 q 392 476 351 570 q 537 571 434 570 q 712 437 659 571 q 741 281 741 366 q 669 57 741 140 q 543 -1 616 0 q 492 8 517 -1 l 492 45 q 537 37 514 37 q 658 149 631 37 q 666 225 666 184 q 562 392 666 374 q 536 393 548 393 q 414 282 423 393 q 414 264 414 273 l 414 239 l 370 239 l 370 264 q 250 393 362 388 q 119 273 142 393 q 115 221 115 247 q 179 58 115 106 q 248 37 210 37 q 292 45 271 37 l 292 8 q 241 -1 266 -1 q 73 125 127 -1 q 43 281 43 197 z "},"ග":{"ha":842,"x_min":45,"x_max":776,"o":"m 45 274 q 130 53 45 133 q 275 -3 191 -3 q 441 83 389 -3 q 467 180 467 126 q 401 316 467 283 q 358 326 381 326 q 331 319 345 326 q 408 410 343 382 q 480 423 441 423 q 654 286 628 423 q 659 232 659 260 q 586 65 659 118 q 480 35 543 35 q 448 38 468 35 l 448 1 q 488 -1 475 -1 q 720 110 639 -1 q 776 288 776 187 q 689 514 776 434 q 543 571 628 571 q 326 419 393 571 q 286 256 293 347 l 323 256 q 326 283 323 267 q 357 292 340 292 q 389 254 387 285 q 327 191 389 206 q 279 186 305 186 q 140 258 184 186 q 117 342 117 296 q 182 494 117 434 q 294 537 231 537 l 309 537 l 309 571 l 292 571 q 98 461 168 571 q 45 274 45 380 z "},"ඝ":{"ha":897,"x_min":7,"x_max":831,"o":"m 68 203 q 140 45 68 106 q 264 0 194 0 q 374 16 315 0 q 380 62 380 24 q 366 133 380 81 q 361 178 361 156 q 439 264 363 263 q 519 178 518 262 q 505 104 519 157 q 499 62 499 83 q 505 16 499 26 q 614 0 566 0 q 799 94 742 0 q 831 220 831 148 q 762 372 831 313 q 728 393 746 384 q 766 465 765 416 q 685 566 766 543 q 633 572 661 572 q 486 480 528 572 q 467 385 467 437 q 467 377 467 382 q 468 369 468 372 q 594 381 525 381 q 749 312 722 381 q 754 283 754 297 q 686 191 754 216 q 639 183 663 183 q 560 198 578 183 q 555 229 560 214 q 454 307 534 300 q 439 308 446 308 q 328 240 355 308 q 324 229 326 233 q 319 198 319 213 q 241 183 300 183 q 153 235 172 183 q 148 266 148 250 q 216 353 148 321 q 297 370 254 370 l 415 370 l 415 388 q 326 556 415 514 q 248 571 292 571 q 121 519 156 571 q 109 476 109 499 q 149 425 109 431 q 160 423 155 423 q 224 471 208 425 q 282 513 241 511 q 359 460 336 513 q 369 414 369 438 q 368 408 369 412 l 7 408 l 7 362 q 179 370 38 368 q 68 203 69 326 m 510 411 q 624 517 522 515 q 704 481 681 517 q 711 456 711 469 q 690 407 709 423 q 590 419 655 419 q 510 411 537 419 z "},"හ":{"ha":864,"x_min":43,"x_max":802,"o":"m 43 205 q 140 30 43 87 q 266 -1 195 -1 q 454 85 395 -1 q 486 193 486 132 q 433 312 486 282 q 399 320 416 320 q 362 311 380 319 q 431 404 385 382 q 495 416 460 416 q 643 308 602 416 q 658 220 658 264 q 586 56 658 99 q 514 38 555 38 q 467 41 483 38 l 467 3 q 521 -1 495 -1 q 742 102 661 -1 q 802 279 802 179 q 715 514 802 431 q 570 572 654 572 q 384 458 460 572 q 316 258 324 370 l 350 247 q 392 285 363 283 q 422 252 420 282 q 326 189 422 203 q 281 184 302 184 q 137 239 172 184 q 125 279 125 258 q 190 357 125 332 q 271 369 225 369 q 316 366 288 369 q 243 545 316 491 q 157 572 205 572 q 53 517 83 572 q 43 481 43 499 q 85 429 43 437 q 98 427 91 427 q 151 467 134 429 q 201 500 167 500 q 259 452 239 500 q 270 401 270 427 l 256 401 q 73 312 129 401 q 43 205 43 264 z "},"්":{"ha":1,"x_min":-187,"x_max":14,"o":"m -187 461 l -187 902 q -92 851 -170 888 q 5 766 -14 814 q 14 718 14 743 q -43 629 14 655 q -90 620 -65 620 q -149 633 -121 620 l -149 438 l -187 461 m -149 667 q -107 659 -132 659 q -49 705 -60 659 q -46 723 -46 715 q -103 812 -46 770 q -149 844 -115 822 l -149 667 z "},"ඉ":{"ha":785,"x_min":43,"x_max":720,"o":"m 43 293 q 178 524 43 446 q 377 572 263 572 q 674 438 587 572 q 720 263 720 365 q 625 47 720 130 q 509 -8 574 4 q 582 -99 579 -26 q 484 -201 582 -171 q 395 -213 441 -213 q 237 -141 267 -213 q 229 -100 229 -122 q 266 -53 229 -60 q 275 -52 271 -52 q 316 -85 311 -58 q 315 -98 316 -88 q 312 -125 312 -115 q 397 -179 315 -178 q 479 -123 469 -179 q 480 -110 480 -117 q 395 -22 480 -38 q 354 -19 376 -19 q 330 -22 350 -19 l 330 19 q 362 20 346 20 q 393 19 373 20 q 427 18 416 18 q 598 113 545 18 q 624 214 624 160 q 529 387 624 328 q 377 426 467 426 q 159 323 206 426 q 144 252 144 290 q 201 144 144 187 q 312 110 248 110 q 431 146 400 111 q 377 130 411 130 q 286 182 316 130 q 273 229 273 203 q 328 326 273 294 q 380 338 353 338 q 494 263 468 338 q 500 217 500 241 q 317 72 500 81 q 292 72 304 72 q 84 163 152 72 q 43 293 43 218 m 315 233 q 354 174 315 191 q 381 168 368 168 q 442 206 423 168 q 448 233 448 220 q 408 293 448 275 q 381 298 395 298 q 320 260 339 298 q 315 233 315 247 z "},"ඊ":{"ha":699,"x_min":41,"x_max":680,"o":"m 544 620 q 575 574 544 586 q 593 571 585 571 q 640 604 628 571 q 643 620 643 612 q 612 666 643 652 q 593 670 602 670 q 547 636 559 670 q 544 620 544 628 m 506 620 q 553 697 506 673 q 593 707 572 707 q 670 659 646 707 q 680 620 680 640 q 632 543 680 567 q 593 533 613 533 q 515 581 540 533 q 506 620 506 600 m 193 713 q 225 666 193 678 q 241 663 233 663 q 288 694 274 663 q 292 713 292 704 q 258 760 292 747 q 241 762 250 762 q 195 731 208 762 q 193 713 193 722 m 155 712 q 202 789 155 765 q 241 799 221 799 q 319 751 294 799 q 328 712 328 732 q 281 635 328 659 q 241 625 262 625 q 164 673 189 625 q 155 712 155 692 m 41 282 q 218 555 41 458 q 225 559 222 557 q 377 686 311 604 q 426 764 382 693 q 514 833 471 831 q 567 800 555 833 q 570 787 570 792 q 486 682 570 753 q 476 674 480 677 q 327 578 425 631 q 347 579 336 579 q 568 486 483 578 q 639 298 639 406 q 537 75 639 163 q 328 0 449 0 q 102 102 186 0 q 41 282 41 179 m 104 339 q 187 206 104 248 q 302 183 236 183 q 517 289 463 183 q 537 385 537 332 q 446 525 537 484 q 345 544 401 544 q 174 480 250 544 q 104 339 106 420 z "},"ජ":{"ha":791,"x_min":43,"x_max":753,"o":"m 582 412 q 522 464 536 412 q 519 490 519 476 q 525 536 519 517 q 549 537 533 537 q 647 486 633 537 q 648 471 648 477 q 604 415 648 427 q 582 412 593 412 m 433 410 q 429 442 429 429 q 481 526 430 506 q 481 509 481 521 q 480 488 480 495 q 506 411 481 442 q 472 412 492 412 q 433 410 453 412 m 43 225 q 237 18 43 65 q 395 0 308 0 q 681 96 595 0 q 727 222 727 149 q 627 384 726 336 q 689 468 686 407 q 606 567 689 541 q 555 575 581 575 l 537 575 q 614 671 564 639 q 709 727 625 680 q 753 777 751 753 q 707 819 750 818 q 601 768 659 819 q 597 764 598 765 q 488 568 515 686 q 388 438 389 541 q 397 377 388 407 q 471 381 456 381 q 643 292 633 373 q 387 186 636 187 q 126 285 127 187 q 304 380 130 378 q 347 377 316 380 q 353 431 353 400 q 269 562 353 529 q 203 572 239 572 q 88 524 121 572 q 75 477 75 502 q 117 425 75 431 q 129 423 123 423 q 190 469 168 426 q 248 511 210 510 q 309 454 300 511 q 311 438 311 445 q 309 412 311 420 q 275 414 296 414 q 71 320 130 414 q 43 225 43 277 z "},"ඣ":{"ha":1439,"x_min":28,"x_max":1377,"o":"m 121 190 q 174 281 145 237 q 239 355 208 328 q 399 380 289 380 q 579 305 544 380 q 587 270 587 288 q 537 193 587 214 q 499 186 519 186 q 416 229 431 186 q 408 285 408 251 l 408 286 l 370 286 l 370 283 q 319 190 370 203 q 281 186 302 186 q 210 203 255 186 q 171 212 190 212 q 121 190 146 210 m 404 416 q 286 403 335 416 q 564 530 415 514 q 624 533 594 533 q 792 510 705 533 q 663 376 705 476 q 644 307 650 342 q 404 416 571 415 m 28 28 l 65 15 q 115 96 73 95 q 153 65 132 96 q 224 5 186 18 q 270 -1 245 -1 q 392 84 355 0 q 526 -1 434 -1 q 667 91 631 -1 q 674 110 671 100 q 848 0 732 1 q 997 79 935 1 q 1156 0 1058 1 q 1355 178 1302 0 q 1377 346 1377 254 q 1251 663 1377 541 q 991 768 1142 768 q 682 620 793 766 l 727 620 q 986 734 831 734 q 1229 608 1141 734 q 1293 403 1293 515 q 1142 186 1289 190 q 1020 275 1034 186 q 1019 298 1019 288 l 1019 330 l 978 330 l 978 298 q 871 187 978 197 q 852 186 861 186 q 718 275 743 186 q 712 320 712 297 q 777 460 712 410 q 876 492 821 492 l 888 492 l 888 528 q 614 571 735 571 q 343 492 467 571 q 290 452 313 473 q 292 475 292 464 q 233 563 292 537 q 180 574 210 574 q 61 517 103 574 q 38 450 38 487 q 73 396 38 408 q 95 393 84 393 q 149 427 133 395 q 161 471 153 437 q 164 480 163 476 q 209 511 174 510 q 254 467 252 509 q 227 403 252 433 q 146 312 168 342 q 144 308 145 309 q 41 91 76 214 q 28 28 33 57 z "},"ඥ":{"ha":1115,"x_min":35,"x_max":1058,"o":"m 178 274 q 263 53 178 133 q 408 -3 324 -3 q 575 87 525 -3 q 586 111 582 99 q 826 -1 652 0 q 933 11 890 -1 q 834 -132 849 -73 q 827 -180 827 -156 q 905 -311 827 -277 q 979 -326 937 -326 q 1058 -315 1016 -326 l 1058 -273 q 960 -122 960 -240 q 1055 99 962 -11 l 1021 125 q 913 58 967 62 q 895 58 905 58 q 788 123 827 58 q 761 229 761 168 q 887 382 761 363 q 937 385 911 385 l 1019 385 q 875 568 989 544 q 742 581 821 581 q 416 256 445 578 l 454 256 q 458 282 454 259 q 486 292 471 292 q 522 252 518 286 q 408 186 514 189 q 266 270 308 186 q 248 342 248 304 q 312 494 248 434 q 426 537 361 537 l 441 537 l 441 571 l 431 571 q 316 574 363 574 q 54 415 113 574 q 35 293 35 361 q 121 43 35 134 q 179 0 148 15 l 179 45 q 79 289 79 136 q 210 518 79 464 q 304 537 254 536 q 182 334 203 473 q 178 274 178 304 m 490 326 q 464 319 476 324 q 620 525 495 476 q 715 541 665 541 l 722 541 q 697 491 697 519 q 735 444 697 454 q 753 441 745 441 q 817 479 798 442 q 872 517 836 515 q 956 453 929 517 q 967 420 963 437 l 812 420 q 566 288 605 419 q 490 326 534 324 z "},"ක":{"ha":987,"x_min":28,"x_max":929,"o":"m 28 28 l 65 15 q 115 96 73 95 q 153 65 132 96 q 224 5 186 18 q 270 -1 245 -1 q 392 84 355 0 q 526 -1 434 -1 q 670 96 633 -1 q 682 167 682 130 q 552 387 682 323 q 404 416 487 416 q 283 403 332 416 q 475 461 353 461 q 715 369 627 461 q 791 163 791 290 q 732 41 791 53 q 719 39 726 39 q 667 53 693 41 l 667 16 q 732 -1 694 -1 q 903 126 852 0 q 929 255 929 187 q 818 500 929 410 q 600 575 728 575 q 319 476 446 575 q 290 452 302 464 q 292 475 292 464 q 233 563 292 537 q 180 574 210 574 q 61 517 103 574 q 38 450 38 487 q 73 396 38 408 q 95 393 84 393 q 149 427 133 395 q 161 471 153 437 q 164 480 163 476 q 209 511 174 510 q 255 467 254 509 q 227 403 254 434 q 146 312 168 342 q 144 308 145 309 q 41 91 76 214 q 28 28 33 57 m 121 190 q 174 281 145 237 q 239 355 208 328 q 399 380 289 380 q 579 305 544 380 q 587 270 587 288 q 537 193 587 214 q 499 186 519 186 q 416 229 431 186 q 408 285 408 251 l 408 286 l 370 286 l 370 283 q 319 190 370 203 q 281 186 302 186 q 210 203 255 186 q 171 212 190 212 q 121 190 146 210 z "},"ඛ":{"ha":834,"x_min":42,"x_max":773,"o":"m 123 96 q 159 43 123 60 q 182 39 171 39 q 235 75 220 39 q 239 96 239 85 q 205 149 239 134 q 182 155 193 155 q 129 119 144 155 q 123 96 123 107 m 42 243 q 167 487 42 412 q 317 525 232 525 q 506 450 439 525 q 547 342 547 403 q 544 307 547 324 q 538 279 541 290 q 529 254 534 267 q 520 236 524 241 q 510 222 517 231 l 505 213 q 517 214 510 214 q 552 195 534 214 q 589 180 567 180 q 699 323 674 180 q 705 422 705 369 q 604 680 705 582 q 389 761 517 761 q 132 623 213 760 l 84 623 q 395 796 180 795 q 681 663 574 796 q 773 378 773 548 q 700 94 773 208 q 551 0 637 1 q 461 45 500 0 q 425 72 437 71 q 323 -26 396 72 q 320 -28 320 -27 l 267 -24 q 313 30 277 -15 q 378 111 353 81 q 460 264 460 209 q 312 365 457 363 q 132 292 195 365 q 92 186 92 245 q 96 141 92 156 q 168 195 114 189 q 182 197 176 197 q 271 142 247 197 q 281 98 281 121 q 235 14 281 43 q 187 -1 212 -1 q 54 136 88 -1 q 42 243 42 186 z "},"ල":{"ha":887,"x_min":41,"x_max":827,"o":"m 41 179 q 203 499 41 392 q 481 572 317 572 q 770 479 689 572 q 810 370 810 433 q 732 239 810 283 q 643 216 692 216 q 506 288 551 216 q 484 370 484 324 l 351 370 l 351 408 l 686 408 l 686 370 l 525 370 q 524 365 525 369 q 587 294 524 316 q 644 286 614 286 q 757 363 742 286 q 760 389 760 376 q 617 521 760 491 q 524 529 572 529 q 286 412 365 529 q 236 227 236 335 q 369 -68 236 26 q 557 -123 449 -123 q 720 -62 652 -123 q 784 87 784 -4 q 779 111 784 102 l 826 111 q 827 100 826 107 q 827 92 827 95 q 694 -145 827 -62 q 479 -203 601 -203 q 137 -77 258 -203 q 41 179 41 23 z "},"ළ":{"ha":842,"x_min":41,"x_max":819,"o":"m 240 393 q 343 533 243 532 q 429 479 400 533 q 439 435 439 457 l 483 435 q 529 513 483 483 q 589 532 557 532 q 707 450 677 532 q 716 393 716 423 l 240 393 m 41 151 q 195 -136 41 -39 q 454 -202 304 -202 q 708 -118 598 -202 q 819 98 818 -30 l 780 98 q 643 -73 776 -30 q 533 -90 593 -90 q 267 37 361 -90 q 206 199 214 109 q 391 61 267 85 q 442 57 416 57 q 701 241 654 57 q 704 252 703 248 l 665 252 q 491 183 617 190 q 467 183 477 183 q 259 296 311 183 q 248 327 252 311 q 368 355 288 355 l 762 355 q 667 555 762 507 q 590 572 632 572 q 475 518 515 572 q 463 499 467 509 q 345 572 422 566 q 199 488 250 572 q 167 378 171 441 q 52 227 83 339 q 41 151 41 187 z "},"ම":{"ha":841,"x_min":43,"x_max":774,"o":"m 351 467 q 389 408 351 425 q 415 403 403 403 q 473 441 457 403 q 479 467 479 454 q 441 525 479 509 q 415 530 427 530 q 357 492 373 530 q 351 467 351 479 m 43 331 q 106 524 43 450 q 206 572 151 571 q 278 500 278 571 q 274 461 278 484 q 270 411 270 434 q 340 315 270 340 q 397 305 366 305 q 528 387 505 305 q 532 423 532 404 q 514 483 532 458 l 513 484 q 515 454 515 469 q 464 370 515 396 q 415 359 442 359 q 320 420 349 359 q 309 465 309 444 q 368 560 309 530 q 422 572 393 572 q 559 492 521 572 q 574 418 574 458 q 483 278 574 316 q 400 262 445 262 q 258 319 308 262 q 227 403 227 355 q 235 483 227 411 q 236 498 236 492 q 203 533 233 532 q 130 461 151 533 q 123 411 123 435 q 229 222 123 289 q 400 178 302 178 q 631 278 553 178 q 682 441 682 346 q 597 661 682 574 q 401 738 518 738 q 149 621 243 736 l 103 621 q 350 773 190 753 q 400 776 376 776 q 673 655 563 776 q 774 387 774 543 q 632 65 774 168 q 411 0 540 0 q 106 130 203 0 q 43 331 43 214 z "},"ා":{"ha":412,"x_min":28,"x_max":358,"o":"m 28 146 q 30 175 28 165 l 68 175 q 66 155 66 167 q 113 87 68 88 q 175 266 175 90 q 113 448 175 446 q 69 404 79 448 q 66 377 66 391 q 68 357 66 363 l 30 357 q 28 387 28 368 q 102 515 28 475 q 176 534 137 534 q 350 362 319 534 q 358 266 358 317 q 218 3 358 34 q 176 -1 198 -1 q 41 80 76 -1 q 28 146 28 110 z "},"ෑ":{"ha":445,"x_min":5,"x_max":406,"o":"m 5 414 l 5 449 l 330 449 l 330 420 l 161 296 l 361 296 l 361 266 q 250 47 251 179 q 312 -99 250 -47 q 406 -132 353 -132 l 406 -168 q 274 -197 338 -197 q 92 -106 140 -197 q 73 -24 73 -69 q 231 217 73 111 q 301 260 254 232 l 95 260 l 95 293 l 262 414 l 5 414 z "},"ැ":{"ha":442,"x_min":4,"x_max":406,"o":"m 4 412 l 4 449 l 330 449 q 326 425 328 445 q 236 119 237 279 q 301 -72 236 -5 q 342 -100 320 -90 q 400 -114 365 -111 l 406 -141 q 262 -195 355 -195 q 98 -103 152 -195 q 66 24 66 -47 q 212 343 66 180 q 275 412 220 353 l 4 412 z "},"ෛ":{"ha":1592,"x_min":43,"x_max":1541,"o":"m 292 366 q 334 309 292 327 q 365 304 350 304 q 430 340 411 304 q 437 366 437 354 q 395 422 437 406 q 365 427 380 427 q 298 391 317 427 q 292 366 292 378 m 43 281 q 172 509 43 423 q 399 572 270 572 q 680 467 570 572 q 773 273 762 385 l 732 273 q 589 481 711 408 q 399 532 503 532 q 179 450 251 532 q 141 350 141 406 q 222 214 141 262 q 357 182 279 182 q 534 258 487 182 q 552 323 552 288 q 496 412 552 380 q 456 427 477 422 q 483 365 483 403 q 423 278 483 308 q 365 264 395 264 q 264 312 300 264 q 245 365 245 336 q 315 457 245 429 q 384 469 347 469 q 604 377 530 469 q 650 235 650 317 q 547 49 650 114 q 357 0 469 0 q 107 103 195 0 q 43 281 43 178 m 1059 366 q 1101 309 1059 327 q 1133 304 1118 304 q 1198 340 1179 304 q 1204 366 1204 353 q 1162 422 1204 406 q 1133 427 1147 427 q 1066 391 1085 427 q 1059 366 1059 378 m 811 281 q 940 509 811 423 q 1166 572 1038 572 q 1447 467 1337 572 q 1541 273 1530 385 l 1500 273 q 1356 481 1478 408 q 1166 532 1271 532 q 947 450 1019 532 q 909 350 909 406 q 990 214 909 262 q 1124 182 1047 182 q 1302 258 1255 182 q 1320 323 1320 288 q 1264 412 1320 380 q 1223 427 1245 422 q 1251 365 1251 403 q 1191 278 1251 308 q 1133 264 1162 264 q 1032 312 1067 264 q 1013 365 1013 336 q 1082 457 1013 429 q 1152 469 1115 469 q 1371 377 1298 469 q 1417 235 1417 317 q 1314 49 1417 114 q 1124 0 1237 0 q 875 103 963 0 q 811 281 811 178 z "},"ෞ":{"ha":1495,"x_min":43,"x_max":1416,"o":"m 292 366 q 334 422 292 404 q 365 427 350 427 q 431 389 412 427 q 437 366 437 377 q 396 311 437 327 q 365 304 381 304 q 298 342 317 304 q 292 366 292 353 m 43 281 q 161 54 43 134 q 357 0 244 0 q 610 109 533 0 q 650 235 650 165 q 529 437 650 376 q 384 469 465 469 q 259 412 294 469 q 245 365 245 391 q 307 278 245 308 q 365 264 335 264 q 465 313 430 264 q 483 365 483 338 q 456 427 481 403 q 548 350 529 411 q 552 323 552 335 q 460 199 552 236 q 357 182 415 182 q 165 269 221 182 q 141 350 141 307 q 241 498 141 446 q 399 532 309 532 q 656 427 557 532 q 732 273 718 361 l 773 273 q 631 506 760 419 q 399 572 529 572 q 133 477 237 572 q 43 281 45 396 m 939 425 q 998 297 939 335 q 1057 281 1025 281 q 1161 381 1158 286 q 1112 457 1160 431 l 1112 467 q 1158 515 1115 513 q 1223 407 1207 515 q 1229 315 1229 366 q 1169 87 1229 109 q 1150 84 1160 84 q 1089 148 1096 84 q 1088 165 1088 157 q 1092 208 1088 187 l 1055 208 q 1050 159 1050 184 q 1133 11 1050 49 q 1204 -3 1164 -3 q 1398 157 1352 -3 q 1416 292 1416 217 q 1336 522 1416 446 q 1206 572 1283 572 q 1084 509 1115 572 q 1074 463 1074 487 q 1076 446 1074 452 q 1101 384 1101 419 q 1050 327 1099 328 q 985 385 1001 327 q 979 426 979 404 q 1036 567 981 518 l 987 567 q 939 425 939 513 z "},"ෙ":{"ha":798,"x_min":43,"x_max":773,"o":"m 292 366 q 334 309 292 327 q 365 304 350 304 q 430 340 411 304 q 437 366 437 354 q 395 422 437 406 q 365 427 380 427 q 298 391 317 427 q 292 366 292 378 m 43 281 q 172 509 43 423 q 399 572 270 572 q 680 467 570 572 q 773 273 762 385 l 732 273 q 589 481 711 408 q 399 532 503 532 q 179 450 251 532 q 141 350 141 406 q 222 214 141 262 q 357 182 279 182 q 534 258 487 182 q 552 323 552 288 q 496 412 552 380 q 456 427 477 422 q 483 365 483 403 q 423 278 483 308 q 365 264 395 264 q 264 312 300 264 q 245 365 245 336 q 315 457 245 429 q 384 469 347 469 q 604 377 530 469 q 650 235 650 317 q 547 49 650 114 q 357 0 469 0 q 107 103 195 0 q 43 281 43 178 z "},"ේ":{"ha":1289,"x_min":43,"x_max":1221,"o":"m 292 366 q 334 309 292 327 q 365 304 350 304 q 430 340 411 304 q 437 366 437 354 q 395 422 437 406 q 365 427 380 427 q 298 391 317 427 q 292 366 292 378 m 43 281 q 172 509 43 423 q 399 572 270 572 q 680 467 570 572 q 773 273 762 385 l 732 273 q 589 481 711 408 q 399 532 503 532 q 179 450 251 532 q 141 350 141 406 q 222 214 141 262 q 357 182 279 182 q 534 258 487 182 q 552 323 552 288 q 496 412 552 380 q 456 427 477 422 q 483 365 483 403 q 423 278 483 308 q 365 264 395 264 q 264 312 300 264 q 245 365 245 336 q 315 457 245 429 q 384 469 347 469 q 604 377 530 469 q 650 235 650 317 q 547 49 650 114 q 357 0 469 0 q 107 103 195 0 q 43 281 43 178 m 1020 461 l 1020 902 q 1116 851 1038 888 q 1213 766 1194 814 q 1221 718 1221 743 q 1164 629 1221 655 q 1118 620 1142 620 q 1058 633 1086 620 l 1058 438 l 1020 461 m 1058 667 q 1100 659 1076 659 q 1158 705 1147 659 q 1161 723 1161 715 q 1104 812 1161 770 q 1058 844 1092 822 l 1058 667 z "},"ි":{"ha":1,"x_min":-722,"x_max":-107,"o":"m -722 686 q -568 867 -722 818 q -415 888 -499 888 q -149 799 -228 888 q -107 686 -107 751 q -218 549 -107 585 q -297 537 -255 538 l -297 567 q -197 635 -198 574 q -393 709 -197 705 q -415 709 -406 709 q -639 635 -637 708 q -533 567 -636 574 l -533 537 q -707 623 -666 543 q -722 686 -722 652 z "},"ී":{"ha":1,"x_min":-777,"x_max":-110,"o":"m -330 681 q -283 616 -330 636 q -244 608 -264 608 q -168 648 -191 608 q -159 681 -159 665 q -205 746 -159 726 q -244 754 -224 754 q -320 713 -297 754 q -330 681 -330 697 m -777 685 q -625 861 -777 808 q -445 888 -545 888 q -178 818 -274 888 q -110 694 -111 768 q -176 585 -110 620 q -244 568 -208 568 q -358 629 -323 568 q -373 682 -373 655 q -353 745 -372 724 q -461 749 -389 749 q -696 684 -643 749 q -712 639 -712 663 q -650 567 -709 583 l -658 537 q -765 618 -734 544 q -777 685 -777 650 z "},"ෳ":{"ha":583,"x_min":43,"x_max":521,"o":"m 43 425 q 103 297 43 335 q 161 281 130 281 q 266 381 263 286 q 217 457 264 431 l 217 467 q 263 515 220 513 q 328 407 312 515 q 334 315 334 366 q 274 87 334 109 q 255 84 264 84 q 194 148 201 84 q 193 165 193 157 q 197 208 193 187 l 160 208 q 155 159 155 184 q 237 11 155 49 q 309 -3 269 -3 q 503 157 457 -3 q 521 292 521 217 q 441 522 521 446 q 311 572 388 572 q 189 509 220 572 q 179 463 179 487 q 180 446 179 452 q 206 384 206 419 q 155 327 203 328 q 90 385 106 327 q 84 426 84 404 q 141 567 85 518 l 92 567 q 43 425 43 513 z "},"ෟ":{"ha":583,"x_min":43,"x_max":521,"o":"m 43 425 q 103 297 43 335 q 161 281 130 281 q 266 381 263 286 q 217 457 264 431 l 217 467 q 263 515 220 513 q 328 407 312 515 q 334 315 334 366 q 274 87 334 109 q 255 84 264 84 q 194 148 201 84 q 193 165 193 157 q 197 208 193 187 l 160 208 q 155 159 155 184 q 237 11 155 49 q 309 -3 269 -3 q 503 157 457 -3 q 521 292 521 217 q 441 522 521 446 q 311 572 388 572 q 189 509 220 572 q 179 463 179 487 q 180 446 179 452 q 206 384 206 419 q 155 327 203 328 q 90 385 106 327 q 84 426 84 404 q 141 567 85 518 l 92 567 q 43 425 43 513 z "},"ො":{"ha":1579,"x_min":43,"x_max":1511,"o":"m 292 366 q 334 309 292 327 q 365 304 350 304 q 430 340 411 304 q 437 366 437 354 q 395 422 437 406 q 365 427 380 427 q 298 391 317 427 q 292 366 292 378 m 43 281 q 172 509 43 423 q 399 572 270 572 q 680 467 570 572 q 773 273 762 385 l 732 273 q 589 481 711 408 q 399 532 503 532 q 179 450 251 532 q 141 350 141 406 q 222 214 141 262 q 357 182 279 182 q 534 258 487 182 q 552 323 552 288 q 496 412 552 380 q 456 427 477 422 q 483 365 483 403 q 423 278 483 308 q 365 264 395 264 q 264 312 300 264 q 245 365 245 336 q 315 457 245 429 q 384 469 347 469 q 604 377 530 469 q 650 235 650 317 q 547 49 650 114 q 357 0 469 0 q 107 103 195 0 q 43 281 43 178 m 1181 146 q 1183 175 1181 165 l 1221 175 q 1219 155 1219 167 q 1265 87 1221 88 q 1328 266 1328 90 q 1265 448 1328 446 q 1222 404 1232 448 q 1219 377 1219 391 q 1221 357 1219 363 l 1183 357 q 1181 387 1181 368 q 1255 515 1181 475 q 1329 534 1290 534 q 1503 362 1472 534 q 1511 266 1511 317 q 1371 3 1511 34 q 1329 -1 1351 -1 q 1194 80 1229 -1 q 1181 146 1181 110 z "},"ෝ":{"ha":1449,"x_min":43,"x_max":1370,"o":"m 292 366 q 334 422 292 404 q 365 427 350 427 q 431 389 412 427 q 437 366 437 377 q 396 311 437 327 q 365 304 381 304 q 298 342 317 304 q 292 366 292 353 m 43 281 q 161 54 43 134 q 357 0 244 0 q 610 109 533 0 q 650 235 650 165 q 529 437 650 376 q 384 469 465 469 q 259 412 294 469 q 245 365 245 391 q 307 278 245 308 q 365 264 335 264 q 465 313 430 264 q 483 365 483 338 q 456 427 481 403 q 548 350 529 411 q 552 323 552 335 q 460 199 552 236 q 357 182 415 182 q 165 269 221 182 q 141 350 141 307 q 241 498 141 446 q 399 532 309 532 q 656 427 557 532 q 732 273 718 361 l 773 273 q 631 506 760 419 q 399 572 529 572 q 133 477 237 572 q 43 281 45 396 m 987 146 q 1069 11 987 46 q 1135 -1 1100 -1 q 1309 172 1279 -1 q 1317 266 1317 216 q 1207 519 1316 471 l 1207 633 q 1267 620 1236 620 q 1359 673 1332 620 q 1370 718 1370 693 q 1291 838 1370 793 q 1244 860 1276 846 q 1169 902 1191 886 l 1169 532 q 1135 534 1147 534 q 1012 471 1054 534 q 987 387 987 433 q 989 357 987 366 l 1027 357 q 1025 377 1025 365 q 1072 448 1029 442 q 1134 266 1134 445 q 1072 87 1133 88 q 1025 155 1027 91 q 1027 175 1025 168 l 989 175 q 987 146 987 164 m 1207 667 l 1207 844 q 1295 772 1280 795 q 1310 723 1310 749 q 1271 662 1310 675 q 1249 659 1260 659 q 1207 667 1223 659 z "},"ෘ":{"ha":414,"x_min":43,"x_max":358,"o":"m 43 330 l 43 320 l 79 320 l 79 326 q 141 449 79 437 q 153 450 148 450 q 198 389 190 450 q 203 292 203 354 q 132 274 174 290 q 43 141 45 236 q 85 28 43 72 q 153 -1 115 -1 q 203 18 175 -1 q 218 23 213 23 q 239 4 232 20 l 338 4 q 336 30 336 14 q 345 111 336 46 q 358 269 358 222 q 239 515 358 481 q 195 521 217 521 q 53 406 84 521 q 43 330 43 370 m 85 141 q 163 245 87 221 q 203 255 199 255 l 203 243 q 203 209 203 232 q 202 151 202 175 q 213 56 202 64 q 202 53 208 56 q 156 39 174 39 q 88 110 103 39 q 85 141 85 126 z "},"ෲ":{"ha":755,"x_min":43,"x_max":693,"o":"m 43 330 l 43 320 l 79 320 l 79 326 q 141 449 79 437 q 153 450 148 450 q 198 389 190 450 q 203 292 203 354 q 132 274 174 290 q 43 141 45 236 q 85 28 43 72 q 153 -1 115 -1 q 203 18 175 -1 q 218 23 213 23 q 239 4 232 20 l 338 4 q 336 30 336 14 q 345 111 336 46 q 358 269 358 222 q 239 515 358 481 q 195 521 217 521 q 53 406 84 521 q 43 330 43 370 m 85 141 q 163 245 87 221 q 203 255 199 255 l 203 243 q 203 209 203 232 q 202 151 202 175 q 213 56 202 64 q 202 53 208 56 q 156 39 174 39 q 88 110 103 39 q 85 141 85 126 m 378 330 l 378 320 l 414 320 l 414 326 q 476 449 414 437 q 488 450 483 450 q 533 389 525 450 q 538 292 538 354 q 467 274 509 290 q 378 141 380 236 q 420 28 378 72 q 488 -1 450 -1 q 538 18 510 -1 q 553 23 548 23 q 574 4 567 20 l 673 4 q 671 30 671 14 q 680 111 671 46 q 693 269 693 222 q 574 515 693 481 q 530 521 552 521 q 388 406 419 521 q 378 330 378 372 m 420 141 q 498 245 422 221 q 538 255 534 255 l 538 243 q 538 209 538 232 q 537 151 537 174 q 548 56 537 64 q 537 53 543 56 q 491 39 509 39 q 423 110 438 39 q 420 141 420 126 z "},"ු":{"ha":1,"x_min":-788,"x_max":-75,"o":"m -788 -189 q -723 -84 -788 -119 q -652 -66 -690 -66 q -540 -125 -578 -66 q -529 -145 -533 -136 l -572 -161 q -636 -110 -590 -119 q -652 -109 -644 -109 q -731 -153 -707 -109 q -741 -189 -741 -171 q -620 -255 -738 -254 l -121 -255 l -121 170 l -75 290 l -75 -311 l -648 -311 q -784 -222 -762 -311 q -788 -189 -788 -206 z "},"ූ":{"ha":1,"x_min":-770,"x_max":-77,"o":"m -770 -183 q -704 -71 -770 -107 q -636 -53 -673 -53 q -507 -121 -549 -54 l -551 -136 q -629 -92 -581 -94 q -708 -136 -688 -92 q -713 -159 -713 -146 q -654 -220 -713 -209 q -631 -221 -642 -221 q -473 -186 -586 -221 q -288 -152 -363 -152 q -123 -220 -180 -153 l -123 201 l -77 281 l -77 -307 l -111 -307 q -201 -212 -138 -244 q -274 -194 -237 -194 q -437 -248 -334 -194 q -595 -312 -541 -305 q -624 -313 -610 -313 q -751 -252 -713 -313 q -770 -183 -770 -221 z "},"ඹ":{"ha":842,"x_min":39,"x_max":781,"o":"m 39 305 q 114 71 39 160 q 259 0 174 1 q 346 16 288 0 q 351 62 351 24 q 336 126 351 80 q 331 160 331 145 q 411 247 334 245 q 490 160 488 244 q 476 100 490 148 q 471 62 471 80 q 476 16 471 26 q 562 0 538 0 q 730 121 665 0 q 781 336 781 216 q 661 665 781 544 q 397 766 556 766 q 95 633 197 766 q 83 617 88 625 l 127 617 q 343 730 210 718 q 395 732 369 732 q 651 590 566 732 q 701 403 701 505 q 644 195 701 259 q 583 165 616 167 q 532 180 551 167 q 526 212 532 197 q 426 289 506 282 q 411 290 418 290 q 300 222 327 290 q 296 212 297 216 q 290 180 290 195 q 239 165 271 165 q 114 267 151 165 q 98 369 98 313 q 138 503 98 450 q 193 534 163 533 q 227 492 225 532 l 227 473 q 316 327 227 363 q 387 315 349 315 q 525 385 487 315 q 540 446 540 414 q 486 559 540 524 q 426 575 460 575 q 334 521 359 575 q 324 477 324 499 q 373 395 324 420 q 422 382 395 382 q 446 385 434 382 q 464 391 457 388 q 477 399 471 393 q 487 408 484 404 q 494 415 490 411 l 496 420 l 496 418 q 460 370 496 391 q 393 354 430 354 q 269 444 285 354 q 266 471 266 457 l 266 491 q 241 560 264 543 q 197 571 224 571 q 66 461 111 571 q 39 305 39 392 m 363 480 q 401 537 363 521 q 425 541 412 541 q 481 503 465 541 q 486 480 486 491 q 448 425 486 439 q 425 420 435 420 q 368 457 384 420 q 363 480 363 469 z "},"න":{"ha":1067,"x_min":31,"x_max":1006,"o":"m 31 233 q 160 43 31 109 q 366 -1 248 -1 q 618 98 544 -1 q 659 224 659 151 q 575 374 659 320 q 457 408 522 408 q 357 393 397 408 q 533 460 420 452 q 553 460 544 460 q 777 365 696 460 q 841 182 841 290 q 791 56 841 92 q 750 42 772 42 q 700 50 720 42 l 700 12 q 785 -1 734 -1 q 956 81 891 -1 q 1006 243 1006 148 q 883 505 1006 410 q 670 574 792 574 q 388 471 518 574 q 335 420 358 446 l 335 423 q 251 564 335 537 q 203 571 228 571 q 85 502 118 571 q 73 449 73 476 q 119 391 73 399 q 132 389 126 389 q 190 453 182 389 q 190 457 190 456 q 239 503 195 502 q 290 458 275 503 q 296 426 296 442 q 275 369 294 389 q 183 264 245 340 q 110 213 146 220 q 88 212 99 212 q 31 233 52 213 m 165 195 q 236 271 191 213 q 339 355 285 335 q 442 372 382 372 q 553 298 549 366 q 469 199 553 235 q 328 176 411 176 q 165 195 224 176 z "},"ඳ":{"ha":712,"x_min":35,"x_max":652,"o":"m 152 224 q 269 31 152 88 q 422 -1 334 -1 q 529 11 486 -1 q 429 -129 446 -72 q 422 -180 422 -153 q 499 -311 422 -277 q 574 -326 532 -326 q 652 -315 610 -326 l 652 -273 q 555 -122 555 -240 q 650 99 556 -11 l 616 125 q 507 58 562 62 q 490 58 499 58 q 382 123 422 58 q 355 229 355 168 q 481 382 355 363 q 532 385 506 385 l 613 385 q 480 567 586 538 q 437 574 458 572 q 351 578 391 578 q 65 430 140 578 q 35 293 35 369 q 121 43 35 134 q 179 0 148 15 l 179 45 q 79 289 79 136 q 235 521 79 468 q 311 536 271 533 q 292 491 292 515 q 330 444 292 454 q 349 441 339 441 q 411 479 393 442 q 467 517 430 515 q 551 453 524 517 q 562 420 557 437 l 407 420 q 152 224 153 418 z "},"ඦ":{"ha":925,"x_min":35,"x_max":886,"o":"m 715 412 q 655 464 669 412 q 652 490 652 476 q 658 536 652 517 q 684 537 667 537 q 780 483 770 537 q 781 471 781 476 q 736 415 781 427 q 715 412 726 412 m 567 410 q 563 442 563 429 q 616 526 564 506 q 616 509 616 521 q 614 488 614 495 q 639 411 616 441 q 605 412 627 412 q 567 410 587 412 m 178 225 q 372 18 178 65 q 529 0 442 0 q 815 96 730 0 q 861 222 861 149 q 760 384 860 338 q 822 468 821 404 q 741 567 822 541 q 689 575 715 575 l 670 575 q 749 671 700 639 q 842 726 760 678 q 886 777 884 753 q 840 819 883 818 q 731 764 791 818 q 623 568 650 686 q 522 438 524 541 q 532 377 522 407 q 604 381 590 381 q 776 292 766 373 q 521 186 773 186 q 259 285 260 187 q 437 380 263 378 q 480 377 449 380 q 486 431 486 400 q 403 562 486 529 q 361 571 382 568 q 316 574 340 574 q 54 415 113 574 q 35 293 35 361 q 121 43 35 134 q 179 0 148 15 l 179 45 q 79 289 79 136 q 193 513 79 456 q 221 524 206 519 q 208 477 208 502 q 250 425 208 431 q 262 423 256 423 q 323 469 301 426 q 381 511 343 510 q 444 456 433 511 q 445 438 445 446 q 442 412 445 430 q 410 414 429 414 q 205 320 264 414 q 178 225 178 277 z "},"ඞ":{"ha":817,"x_min":61,"x_max":755,"o":"m 118 458 q 157 400 118 418 q 187 395 172 395 q 251 433 232 395 q 256 458 256 446 q 217 517 256 499 q 187 522 202 522 q 123 484 142 522 q 118 458 118 471 m 61 620 q 372 770 180 770 q 646 647 534 770 q 755 345 755 524 q 666 49 755 140 q 551 0 616 0 q 422 49 471 0 q 395 79 410 61 q 250 0 331 1 q 94 84 144 0 q 68 186 68 130 q 148 321 68 278 q 237 343 189 343 q 305 339 262 343 q 370 335 347 335 q 452 410 450 338 q 357 529 452 494 q 283 543 320 543 q 244 540 264 543 q 294 457 293 511 q 247 376 294 406 q 187 359 218 359 q 95 408 127 359 q 80 458 80 433 q 184 564 80 537 q 275 575 225 575 q 469 487 415 575 q 492 406 492 450 q 422 302 492 326 q 372 296 399 296 q 308 300 345 296 q 240 305 269 305 q 157 259 168 305 q 156 250 156 254 q 221 190 156 203 q 266 186 241 186 q 376 252 374 189 l 376 259 l 412 259 l 412 252 q 511 186 418 187 q 648 321 618 186 q 658 418 658 365 q 575 644 658 551 q 368 735 494 735 q 106 620 210 734 l 61 620 z "},"ණ":{"ha":1275,"x_min":28,"x_max":1213,"o":"m 28 236 l 43 201 q 132 237 104 235 q 209 180 171 237 q 263 99 262 102 q 483 0 345 1 q 734 133 656 0 q 739 142 736 138 q 829 53 766 69 q 854 49 842 49 q 945 90 913 50 q 1013 7 955 28 q 1059 -1 1035 -1 q 1207 146 1180 -1 q 1213 222 1213 182 q 1143 435 1213 376 q 1076 461 1114 461 q 960 376 989 461 q 952 334 954 355 q 854 378 920 378 q 769 336 807 377 q 665 517 751 453 q 795 551 745 540 q 831 558 812 555 q 869 564 849 562 q 907 570 890 567 q 945 575 924 572 q 979 579 966 578 q 1013 583 993 581 q 1042 585 1034 585 q 1067 587 1050 586 l 1085 589 q 1143 643 1138 600 q 1100 696 1143 681 q 1066 700 1084 700 q 875 663 993 700 q 595 552 761 628 q 476 574 537 574 q 258 487 321 574 q 225 387 225 444 q 227 362 225 369 q 28 236 104 289 m 267 393 q 365 518 267 480 q 471 536 412 536 q 537 525 507 536 q 267 385 410 467 l 267 393 m 446 171 q 248 229 334 171 q 172 271 194 266 q 153 273 163 273 q 237 324 182 290 q 392 227 274 239 q 425 225 408 225 q 518 245 480 225 q 529 251 521 247 q 537 256 533 254 q 583 350 582 294 q 525 449 583 415 q 506 458 515 454 q 593 492 526 467 q 651 358 648 437 q 564 198 651 245 q 446 171 515 171 m 351 350 q 388 266 353 300 q 275 345 301 282 q 358 389 319 370 q 351 350 351 369 m 392 350 q 434 416 392 396 q 467 425 450 425 q 533 382 513 425 q 541 350 541 366 q 499 283 541 304 q 467 275 483 275 q 400 317 420 275 q 392 350 392 334 m 766 214 l 766 218 q 772 259 772 245 q 840 336 792 327 q 852 338 845 338 q 939 214 937 335 q 880 98 939 119 q 852 92 867 92 q 779 151 803 92 q 766 214 766 180 m 975 140 l 975 153 q 982 213 982 183 q 979 254 982 231 q 1034 378 986 377 q 1088 224 1088 376 q 1051 71 1088 91 q 1031 66 1042 66 q 982 100 998 66 q 975 140 975 118 z "},"ඬ":{"ha":967,"x_min":35,"x_max":907,"o":"m 136 377 l 281 377 q 178 236 189 336 q 176 214 176 224 q 251 43 176 104 q 378 0 304 0 q 530 79 468 1 q 656 1 579 9 q 682 0 670 0 q 892 194 846 0 q 907 342 907 259 q 781 666 907 544 q 518 770 674 770 q 212 620 316 769 l 259 620 q 510 735 355 735 q 773 591 685 735 q 829 388 829 502 q 745 208 829 258 q 663 186 708 186 q 549 264 551 187 l 549 293 l 509 293 l 509 264 q 393 186 506 187 q 271 239 302 186 q 260 278 260 258 q 311 354 260 324 q 412 377 350 377 l 506 377 q 391 564 506 529 q 387 566 388 566 l 388 566 q 316 574 359 574 q 54 415 113 574 q 35 293 35 361 q 121 43 35 134 q 179 0 148 15 l 179 45 q 79 289 79 136 q 189 509 79 452 q 220 522 203 517 q 212 494 212 510 q 251 445 212 453 q 264 444 258 444 q 319 477 300 445 q 376 514 340 514 q 446 460 422 514 q 457 418 456 438 l 136 418 l 136 377 z "},"ඟ":{"ha":991,"x_min":35,"x_max":932,"o":"m 199 274 q 285 53 199 133 q 430 -3 346 -3 q 595 83 544 -3 q 621 180 621 126 q 556 316 621 283 q 513 326 536 326 q 486 319 499 326 q 562 408 498 380 q 636 423 595 423 q 810 286 784 423 q 815 232 815 260 q 742 66 815 119 q 635 35 699 35 q 602 38 623 35 l 602 1 q 644 -1 629 -1 q 876 110 795 -1 q 932 288 932 187 q 845 514 932 434 q 699 571 784 571 q 481 420 551 571 q 441 256 448 349 l 479 256 q 480 283 479 275 q 511 292 495 292 q 544 254 541 285 q 481 191 544 206 q 434 186 460 186 q 294 258 339 186 q 271 342 271 296 q 336 494 271 434 q 449 537 385 537 l 464 537 l 464 571 l 456 571 q 316 574 388 574 q 54 415 113 574 q 35 293 35 361 q 121 43 35 134 q 179 0 148 15 l 179 45 q 79 289 79 136 q 330 538 80 532 q 206 343 231 476 q 199 274 199 309 z "},"ඤ":{"ha":1356,"x_min":35,"x_max":1299,"o":"m 286 190 q 339 281 311 237 q 404 355 373 328 q 564 380 454 380 q 745 305 709 380 q 753 270 753 288 q 703 193 753 214 q 665 186 685 186 q 582 229 597 186 q 574 285 574 251 l 574 286 l 537 286 l 537 283 q 483 190 537 202 q 446 186 467 186 q 376 203 420 186 q 336 212 355 212 q 286 190 312 210 m 194 28 l 231 15 q 281 96 239 95 q 319 65 297 96 q 389 5 351 18 q 435 -1 411 -1 q 557 84 521 0 q 692 -1 600 -1 q 831 88 795 -1 q 836 98 834 94 q 1067 -1 907 -1 q 1175 11 1131 -1 q 1076 -132 1090 -73 q 1069 -180 1069 -156 q 1147 -312 1069 -279 q 1219 -326 1180 -326 q 1299 -315 1256 -326 l 1299 -273 q 1202 -122 1202 -240 q 1297 99 1203 -11 l 1261 125 q 1153 58 1207 62 q 1135 58 1145 58 q 1029 123 1067 58 q 1002 229 1002 168 q 1123 381 1002 361 q 1177 385 1147 385 l 1260 385 q 1103 564 1233 530 q 1080 570 1090 568 q 895 586 1013 586 q 651 552 755 586 q 456 452 540 517 q 457 475 457 464 q 399 563 457 537 q 351 574 377 572 q 316 575 335 575 q 56 419 115 575 q 35 293 35 363 q 121 43 35 134 q 179 0 148 15 l 179 45 q 79 289 79 136 q 197 514 79 457 q 235 528 216 522 q 203 450 203 491 q 239 396 203 408 q 260 393 250 393 q 315 427 298 395 q 327 471 319 437 q 330 480 328 476 q 374 511 339 510 q 419 467 418 509 q 392 403 418 433 q 311 308 338 346 q 206 90 241 212 q 194 28 197 56 m 570 416 q 457 406 507 416 q 711 526 585 498 q 892 545 799 545 q 930 544 917 545 q 903 491 905 521 q 941 444 903 454 q 960 441 951 441 q 1023 479 1005 442 q 1078 517 1042 515 q 1179 471 1135 517 q 1208 420 1200 448 l 1053 420 q 812 302 857 419 q 570 416 739 416 z "},"ඔ":{"ha":842,"x_min":39,"x_max":781,"o":"m 363 479 q 401 536 363 519 q 425 540 412 540 q 481 502 465 540 q 486 479 486 491 q 448 422 486 438 q 425 418 437 418 q 368 456 384 418 q 363 479 363 467 m 39 297 q 109 75 39 163 q 259 0 168 1 q 404 73 365 1 q 522 0 431 7 q 537 0 529 0 q 761 180 707 0 q 781 336 781 251 q 661 665 781 544 q 397 766 556 766 q 95 633 197 766 q 83 617 88 625 l 127 617 q 343 730 210 718 q 395 732 369 732 q 658 595 575 732 q 704 427 704 519 q 612 203 704 256 q 534 184 578 184 q 425 251 439 184 q 423 270 423 260 l 423 275 l 385 275 l 385 271 q 270 183 382 184 q 122 269 168 183 q 98 369 98 313 q 138 503 98 450 q 193 534 163 533 q 225 492 225 532 l 225 449 q 323 309 225 340 q 392 298 354 298 q 537 368 495 298 q 556 437 556 399 q 488 562 556 528 q 426 575 460 575 q 330 518 354 575 q 321 477 321 498 q 369 391 321 420 q 422 377 393 377 q 511 430 486 377 q 514 438 513 435 q 515 431 515 434 q 442 346 515 366 q 391 339 418 339 q 271 408 294 339 q 266 446 266 427 l 266 491 q 241 560 264 543 q 197 571 224 571 q 69 460 114 571 q 39 297 39 388 z "},"ඕ":{"ha":842,"x_min":39,"x_max":781,"o":"m 191 712 q 288 754 191 739 q 376 761 331 761 q 699 563 639 760 q 369 688 589 688 q 212 673 290 688 q 216 682 216 677 q 202 697 216 689 q 191 712 193 705 m 56 583 q 366 651 201 651 q 674 515 595 651 q 705 393 704 461 q 624 208 705 259 q 534 184 585 184 q 425 251 439 184 q 423 270 423 260 l 423 275 l 385 275 l 385 271 q 270 183 382 184 q 122 269 168 183 q 98 369 98 313 q 138 503 98 450 q 193 534 163 533 q 225 492 225 532 l 225 449 q 323 309 225 340 q 392 298 354 298 q 537 368 495 298 q 556 437 556 399 q 488 562 556 528 q 426 575 460 575 q 330 518 354 575 q 321 477 321 498 q 369 391 321 420 q 422 377 393 377 q 511 430 486 377 q 514 438 513 435 q 515 431 515 434 q 442 346 515 366 q 391 339 418 339 q 271 408 294 339 q 266 446 266 427 l 266 491 q 241 560 264 543 q 197 571 224 571 q 69 460 114 571 q 39 297 39 388 q 109 75 39 163 q 259 0 168 1 q 404 73 365 1 q 522 0 431 7 q 537 0 529 0 q 760 178 705 0 q 781 331 780 247 l 781 334 l 781 336 q 758 472 781 415 q 585 781 738 690 q 368 833 494 833 q 153 772 221 833 q 126 723 127 746 q 152 686 126 703 q 164 673 163 678 q 81 636 164 665 q 56 627 65 631 l 56 583 m 363 479 q 401 536 363 519 q 425 540 412 540 q 481 502 465 540 q 486 479 486 491 q 448 422 486 438 q 425 418 437 418 q 368 456 384 418 q 363 479 363 467 z "},"ප":{"ha":815,"x_min":42,"x_max":761,"o":"m 42 243 q 161 415 42 370 q 274 433 212 433 q 320 430 289 433 q 321 438 320 433 q 321 445 321 444 q 271 515 321 503 q 256 517 263 517 q 193 475 208 515 q 129 431 178 433 q 73 486 79 439 q 144 564 73 540 q 209 574 175 574 q 362 467 347 574 q 363 442 363 454 q 359 392 363 410 q 343 394 353 393 q 324 395 334 395 q 307 397 315 396 q 293 397 298 397 l 288 397 q 134 338 164 397 q 127 307 127 323 q 380 186 127 193 q 407 186 393 186 q 648 256 589 186 q 671 316 671 283 q 594 392 671 373 q 522 400 563 400 q 429 391 480 400 q 426 434 426 407 q 529 568 426 544 q 582 574 553 574 q 705 511 674 574 q 716 469 716 490 q 681 401 715 427 q 761 247 760 353 q 595 30 761 92 q 407 0 513 0 q 60 152 123 0 q 42 243 42 194 m 471 445 q 472 430 471 434 q 534 434 507 434 q 646 418 602 434 q 666 465 666 437 q 606 529 666 517 q 572 533 590 533 q 476 477 496 533 q 471 445 471 461 z "},"ඵ":{"ha":772,"x_min":43,"x_max":707,"o":"m 43 218 q 203 20 43 71 q 350 0 269 0 q 655 144 562 0 q 707 324 707 222 q 650 548 707 444 q 637 570 643 559 q 473 753 578 673 q 415 791 442 776 q 359 636 359 726 q 425 495 359 537 q 491 476 454 476 q 608 543 574 477 q 642 399 642 480 q 505 209 642 259 q 354 186 441 186 q 142 252 178 186 q 134 282 134 266 q 254 372 134 359 q 290 373 271 373 l 372 373 l 372 393 q 296 549 372 503 q 208 571 258 571 q 81 518 114 571 q 69 476 69 498 q 106 426 69 437 q 119 425 113 425 q 179 471 164 426 q 222 513 189 503 q 240 515 232 515 q 316 467 290 515 q 327 418 327 444 l 327 410 l 313 410 q 43 218 45 407 m 404 647 q 426 738 404 693 q 579 585 524 666 q 506 537 555 543 q 415 595 441 537 q 404 647 404 618 z "},"ර":{"ha":699,"x_min":41,"x_max":697,"o":"m 41 282 q 206 545 41 463 q 241 560 224 553 q 404 627 378 613 q 486 678 446 648 q 562 760 513 699 q 647 812 609 810 q 694 785 684 812 q 697 769 697 777 q 586 651 697 711 q 583 650 585 650 q 385 575 500 606 q 545 509 469 575 q 568 486 557 496 q 639 298 639 406 q 537 75 639 163 q 328 0 449 0 q 102 102 186 0 q 41 282 41 179 m 104 339 q 187 206 104 248 q 302 183 236 183 q 517 289 463 183 q 537 385 537 332 q 446 525 537 484 q 345 544 401 544 q 174 480 250 544 q 104 339 106 420 z "},"ස":{"ha":897,"x_min":7,"x_max":831,"o":"m 68 203 q 141 43 68 104 q 269 -1 195 -1 q 441 109 395 0 q 609 0 484 1 q 804 103 749 0 q 831 220 831 153 q 762 372 831 313 q 728 393 746 384 q 766 464 761 422 q 674 568 766 549 q 631 572 654 572 q 486 481 528 572 q 467 385 467 438 q 467 377 467 382 q 468 369 468 372 q 595 381 533 381 q 745 289 743 380 q 652 193 745 214 q 587 186 623 186 q 461 262 463 187 l 461 283 l 425 283 l 425 262 q 298 186 422 187 q 165 250 195 186 q 159 282 159 266 q 286 370 159 362 q 311 372 298 372 l 415 372 l 415 392 q 331 553 415 510 q 248 571 294 571 q 123 521 160 571 q 109 476 109 499 q 148 426 109 433 q 159 425 155 425 q 218 467 205 426 q 264 514 231 506 q 286 515 275 515 q 357 469 331 515 q 372 412 372 442 q 370 408 372 410 l 7 408 l 7 362 q 175 372 45 369 q 68 203 69 324 m 510 411 q 604 509 518 499 q 623 510 613 510 q 708 469 693 510 q 711 453 711 461 q 690 406 709 426 q 590 419 648 419 q 510 411 540 419 z "},"ශ":{"ha":836,"x_min":45,"x_max":770,"o":"m 45 273 q 133 43 45 118 q 262 -1 187 -1 q 430 88 378 -1 q 454 183 454 132 q 377 319 454 297 q 347 323 362 323 q 320 317 332 323 q 423 415 335 389 q 486 423 454 423 q 665 293 617 423 q 678 240 673 267 q 636 244 656 244 q 505 174 545 244 q 486 99 486 140 q 528 8 486 37 q 566 -4 545 -4 q 625 23 594 -4 q 652 37 642 37 q 669 19 667 34 q 663 1 667 9 l 701 1 q 765 189 746 58 q 770 259 770 227 q 686 505 770 415 q 529 572 623 572 q 282 305 328 572 q 275 255 278 279 l 311 255 q 316 279 315 277 q 347 289 330 289 q 391 254 387 285 q 302 187 391 197 q 275 186 289 186 q 129 285 167 186 q 117 353 117 319 q 198 507 117 457 q 315 538 247 538 l 332 538 l 332 571 q 323 571 331 571 q 311 572 313 572 q 88 449 160 572 q 45 273 45 373 m 529 104 q 590 198 529 172 q 639 208 613 208 q 684 203 670 208 q 685 171 685 191 q 674 62 685 110 q 652 73 666 73 q 608 52 639 73 q 574 38 589 38 q 529 104 530 42 z "},"ෂ":{"ha":823,"x_min":42,"x_max":761,"o":"m 42 243 q 271 12 42 54 q 407 0 334 0 q 705 100 613 0 q 761 247 761 161 q 681 401 760 354 q 716 469 716 429 q 658 557 716 528 q 582 574 624 574 q 431 480 458 574 q 426 434 426 458 q 429 393 426 408 q 522 401 475 401 q 598 393 564 401 q 515 372 555 377 q 381 363 453 363 q 228 289 229 362 q 353 214 228 227 q 392 213 373 213 q 572 288 571 214 q 529 345 571 326 q 639 376 590 353 q 681 300 680 350 q 522 183 681 212 q 399 174 465 174 q 156 239 224 174 q 125 307 125 269 q 254 399 125 388 q 288 400 271 400 q 359 395 313 400 q 363 442 363 414 q 243 572 363 557 q 209 574 227 574 q 84 522 117 574 q 73 483 73 503 q 115 433 73 442 q 130 431 123 431 q 195 477 182 433 q 252 519 210 518 q 320 469 307 519 q 323 445 323 458 q 323 438 323 442 q 321 431 321 433 q 273 434 289 434 q 60 328 110 434 q 42 243 42 290 m 471 448 q 533 528 471 509 q 572 533 552 533 q 661 487 643 533 q 665 467 665 476 q 643 419 663 438 q 534 437 597 437 q 472 433 503 437 q 471 448 471 439 m 270 294 q 395 334 273 334 q 532 290 530 332 q 396 250 529 250 q 270 294 271 251 z "},"ත":{"ha":932,"x_min":28,"x_max":879,"o":"m 28 33 l 61 12 q 118 104 80 102 q 175 72 142 104 q 282 7 225 22 q 373 -3 323 -3 q 574 95 510 -3 q 608 214 608 148 q 481 404 608 357 q 372 423 433 423 q 264 404 308 423 q 433 472 317 465 q 449 472 442 472 q 696 349 625 472 q 732 193 732 283 q 690 64 732 103 q 648 46 671 46 q 601 54 623 46 l 601 15 q 675 -1 631 -1 q 853 115 800 -1 q 879 245 879 172 q 761 510 879 418 q 560 576 675 576 q 273 461 378 575 l 273 468 q 208 568 273 547 q 168 574 189 574 q 66 517 102 574 q 49 453 49 487 q 92 389 49 397 q 103 388 98 388 q 164 468 160 389 q 201 510 168 509 q 235 473 229 510 q 236 458 236 465 q 218 415 235 434 q 54 138 107 293 q 28 33 35 81 m 126 206 q 210 343 174 298 q 374 389 277 389 q 505 330 469 389 q 515 288 515 309 q 349 186 513 187 q 218 210 300 186 q 170 218 189 218 q 126 206 141 217 z "},"ථ":{"ha":812,"x_min":43,"x_max":750,"o":"m 43 311 q 144 507 43 429 q 324 570 224 570 l 324 534 q 156 461 218 534 q 115 351 115 412 q 355 187 115 202 q 404 186 380 186 q 633 282 556 186 q 681 420 681 342 q 651 552 680 490 q 537 486 620 487 q 419 568 454 486 q 404 647 404 605 q 460 802 406 738 q 644 637 557 749 q 682 581 666 608 q 750 353 746 471 q 750 334 750 343 q 627 75 750 171 q 391 -1 528 -1 q 125 103 224 -1 q 43 311 43 189 m 446 651 q 545 537 449 538 q 624 594 606 540 q 473 747 570 677 q 446 651 446 705 z "},"ට":{"ha":798,"x_min":42,"x_max":738,"o":"m 42 275 q 152 475 42 406 q 308 518 221 518 q 425 496 368 518 l 425 454 q 311 480 372 480 q 151 412 197 480 q 130 347 130 382 q 260 199 130 236 q 368 186 311 186 q 617 302 549 186 q 648 431 648 358 q 567 644 648 556 q 365 730 487 730 q 123 623 208 728 l 76 623 q 362 765 174 764 q 648 628 540 765 q 738 359 738 514 q 620 84 738 187 q 378 -1 521 -1 q 96 113 187 -1 q 42 275 42 182 z "},"ඨ":{"ha":812,"x_min":43,"x_max":780,"o":"m 43 258 q 129 468 43 387 q 201 513 163 499 q 293 528 244 528 l 293 491 q 286 491 290 491 q 279 492 281 492 q 141 408 184 492 q 119 326 119 369 q 212 190 119 212 q 251 186 231 186 q 378 266 359 186 q 382 298 382 281 l 382 328 l 423 328 l 423 298 q 521 187 423 202 q 549 186 534 186 q 700 301 666 186 q 709 370 709 335 q 666 552 709 488 q 551 486 631 487 q 434 568 468 486 q 419 647 419 605 q 475 802 420 738 q 659 637 572 749 q 697 581 681 608 q 780 308 780 438 q 703 61 780 148 q 559 0 644 0 q 401 79 461 1 q 252 0 338 1 q 76 114 134 0 q 43 258 43 179 m 461 650 q 560 536 464 537 q 639 594 620 538 q 488 747 589 671 q 461 650 461 704 z "},"උ":{"ha":861,"x_min":42,"x_max":799,"o":"m 42 132 q 179 -133 42 -33 q 434 -213 290 -213 q 709 -111 602 -213 q 799 91 799 -26 l 757 91 q 656 -88 757 -23 q 522 -130 593 -130 q 300 -24 376 -130 q 248 155 248 49 q 431 354 248 338 q 471 355 450 355 l 713 355 l 713 366 q 617 541 713 486 q 498 571 564 571 q 357 503 374 571 q 354 483 354 492 q 392 431 354 444 q 415 429 404 429 q 480 469 456 430 q 551 507 503 507 q 644 456 606 507 q 667 392 665 426 l 350 392 q 94 283 179 392 q 42 132 42 217 z "},"ඌ":{"ha":1312,"x_min":42,"x_max":1249,"o":"m 42 132 q 179 -133 42 -33 q 434 -213 290 -213 q 709 -111 602 -213 q 799 91 799 -26 l 757 91 q 656 -88 757 -23 q 522 -130 593 -130 q 300 -24 376 -130 q 248 155 248 49 q 431 354 248 338 q 471 355 450 355 l 713 355 l 713 366 q 617 541 713 486 q 498 571 564 571 q 357 503 374 571 q 354 483 354 492 q 392 431 354 444 q 415 429 404 429 q 480 469 456 430 q 551 507 503 507 q 644 456 606 507 q 667 392 665 426 l 350 392 q 94 283 179 392 q 42 132 42 217 m 772 425 q 831 297 772 335 q 890 281 859 281 q 994 381 991 286 q 945 457 993 431 l 945 467 q 991 515 948 513 q 1057 407 1040 515 q 1062 315 1062 366 q 1002 87 1062 109 q 983 84 993 84 q 922 148 929 84 q 921 165 921 157 q 925 208 921 187 l 888 208 q 883 159 883 184 q 966 11 883 49 q 1038 -3 997 -3 q 1232 157 1185 -3 q 1249 292 1249 217 q 1169 522 1249 446 q 1039 572 1116 572 q 917 509 948 572 q 907 463 907 487 q 909 446 907 452 q 935 384 935 419 q 883 327 932 328 q 818 385 834 327 q 812 426 812 404 q 869 567 814 518 l 821 567 q 772 425 772 513 z "},"ව":{"ha":791,"x_min":43,"x_max":726,"o":"m 43 218 q 203 22 43 73 q 354 0 270 0 q 671 155 576 0 q 726 363 726 243 q 610 663 726 548 q 366 764 510 764 q 76 623 175 762 l 122 623 q 366 730 214 730 q 594 609 513 730 q 650 420 650 525 q 475 199 650 243 q 358 186 422 186 q 134 282 136 187 q 212 359 134 340 q 279 368 241 368 l 387 368 l 387 384 q 273 563 387 532 q 213 571 244 571 q 87 518 119 571 q 75 476 75 498 q 117 425 75 431 q 127 423 122 423 q 186 471 171 425 q 254 513 201 511 q 328 461 304 513 q 339 408 339 437 l 339 403 l 263 403 q 66 311 121 403 q 43 218 43 269 z "},"ය":{"ha":842,"x_min":39,"x_max":784,"o":"m 39 245 q 142 469 39 395 q 296 515 208 515 q 332 513 312 515 l 332 472 q 290 476 312 476 q 130 395 179 476 q 109 319 109 358 q 203 191 109 216 q 255 186 228 186 q 380 239 350 186 q 389 277 389 256 l 389 305 l 427 305 l 427 278 q 518 191 427 212 q 576 186 547 186 q 709 259 688 186 q 712 283 712 271 q 540 395 709 393 q 426 380 480 395 q 425 411 425 391 q 545 570 425 545 q 597 574 570 574 q 735 505 711 574 q 739 473 739 490 q 699 404 739 425 q 690 401 693 403 q 783 245 772 353 q 784 221 784 233 q 697 37 784 99 q 578 -1 646 -1 q 407 94 449 0 q 247 -1 361 0 q 69 110 123 -1 q 39 245 39 170 m 467 423 q 543 430 495 430 q 654 416 613 430 q 684 463 682 431 q 635 514 684 499 q 598 519 617 519 q 472 456 498 519 q 467 423 467 439 z "},"෴":{"ha":2307,"x_min":66,"x_max":2258,"o":"m 1695 52 l 1729 172 l 1533 50 l 1568 225 l 1369 94 l 1389 309 l 1180 111 l 1162 343 l 987 148 l 945 339 l 776 146 l 741 296 l 593 96 l 553 210 l 475 75 q 419 115 449 114 q 317 66 380 115 q 206 3 248 12 q 167 -3 186 -3 q 73 56 96 -3 q 66 96 66 75 q 113 182 66 157 q 153 191 132 191 q 231 138 212 191 q 236 110 236 123 q 220 61 236 79 q 229 58 224 58 q 343 123 273 58 q 431 191 406 182 q 453 195 444 195 q 495 175 481 194 l 608 368 l 659 235 l 830 463 l 869 301 l 1053 511 l 1096 313 l 1293 540 l 1310 278 l 1550 498 l 1518 231 l 1732 369 l 1689 183 l 1876 301 l 1834 186 q 1872 195 1849 195 q 1965 137 1906 195 q 2062 62 2030 75 q 2093 57 2078 57 q 2105 61 2100 57 q 2089 110 2089 79 q 2128 179 2089 155 q 2171 191 2148 191 q 2253 132 2233 191 q 2258 96 2258 115 q 2190 1 2258 20 q 2158 -3 2174 -3 q 2017 56 2100 -3 q 1908 119 1942 110 q 1872 125 1889 125 q 1695 52 1800 123 z "},"ඏ":{"ha":1085,"x_min":41,"x_max":1024,"o":"m 849 71 q 873 100 849 95 q 882 102 878 102 q 913 71 907 95 q 890 39 913 46 q 882 38 886 38 q 850 62 857 38 q 849 71 849 66 m 939 106 q 882 138 921 138 q 867 137 871 138 q 895 247 895 184 q 815 401 894 354 q 850 469 850 429 q 830 526 849 502 q 815 572 815 553 q 840 595 817 594 q 954 481 914 595 q 979 317 979 408 q 944 115 979 189 q 939 106 941 110 m 770 590 q 777 564 772 572 q 716 574 746 574 q 566 480 593 574 q 560 434 560 458 q 564 391 560 412 q 656 400 617 400 q 802 339 779 400 q 806 316 806 327 q 651 195 806 222 q 541 186 601 186 q 263 292 281 186 q 262 307 262 298 q 347 389 262 368 q 422 397 381 397 q 494 392 448 397 q 499 442 499 415 q 378 572 499 557 q 345 574 362 574 q 288 567 316 574 q 294 590 294 575 q 231 637 292 636 q 77 517 130 637 q 41 317 41 433 q 91 73 41 171 q 183 1 129 3 q 247 42 229 1 q 252 71 252 57 l 252 76 q 541 0 349 0 q 812 76 718 1 l 812 71 q 854 7 812 24 q 882 1 868 1 q 1004 155 964 1 q 1024 317 1024 235 q 941 589 1024 500 q 834 637 894 637 q 770 590 772 636 m 152 71 q 183 102 159 96 q 214 79 208 102 q 216 71 216 75 q 191 39 216 46 q 183 38 187 38 q 153 62 159 38 q 152 71 152 66 m 176 243 q 201 136 176 184 q 183 138 189 138 q 126 106 142 137 q 85 317 88 182 q 145 548 85 467 q 227 595 182 594 q 251 578 250 594 q 229 536 250 556 l 232 537 q 208 486 209 514 q 263 431 216 437 q 327 475 313 433 q 392 517 343 515 q 453 471 439 517 q 456 445 456 458 q 456 438 456 444 q 454 430 454 433 q 408 433 420 433 q 195 331 248 433 q 176 243 176 292 m 605 445 q 673 529 605 513 q 707 533 689 533 q 799 481 785 533 q 800 465 800 473 q 780 418 799 435 q 669 434 735 434 q 606 430 640 434 q 605 445 605 437 z "},"ඐ":{"ha":1592,"x_min":41,"x_max":1533,"o":"m 849 71 q 873 100 849 95 q 882 102 878 102 q 913 71 907 95 q 890 39 913 46 q 882 38 886 38 q 850 62 857 38 q 849 71 849 66 m 939 106 q 882 138 921 138 q 867 137 871 138 q 895 247 895 184 q 815 401 894 354 q 850 469 850 429 q 830 526 849 502 q 815 572 815 553 q 840 595 817 594 q 954 481 914 595 q 979 317 979 408 q 944 115 979 189 q 939 106 941 110 m 770 590 q 777 564 772 572 q 716 574 746 574 q 566 480 593 574 q 560 434 560 458 q 564 391 560 412 q 656 400 617 400 q 802 339 779 400 q 806 316 806 327 q 651 195 806 222 q 541 186 601 186 q 263 292 281 186 q 262 307 262 298 q 347 389 262 368 q 422 397 381 397 q 494 392 448 397 q 499 442 499 415 q 378 572 499 557 q 345 574 362 574 q 288 567 316 574 q 294 590 294 575 q 231 637 292 636 q 77 517 130 637 q 41 317 41 433 q 91 73 41 171 q 183 1 129 3 q 247 42 229 1 q 252 71 252 57 l 252 76 q 541 0 349 0 q 812 76 718 1 l 812 71 q 854 7 812 24 q 882 1 868 1 q 1004 155 964 1 q 1024 317 1024 235 q 941 589 1024 500 q 834 637 894 637 q 770 590 772 636 m 152 71 q 183 102 159 96 q 214 79 208 102 q 216 71 216 75 q 191 39 216 46 q 183 38 187 38 q 153 62 159 38 q 152 71 152 66 m 176 243 q 201 136 176 184 q 183 138 189 138 q 126 106 142 137 q 85 317 88 182 q 145 548 85 467 q 227 595 182 594 q 251 578 250 594 q 229 536 250 556 l 232 537 q 208 486 209 514 q 263 431 216 437 q 327 475 313 433 q 392 517 343 515 q 453 471 439 517 q 456 445 456 458 q 456 438 456 444 q 454 430 454 433 q 408 433 420 433 q 195 331 248 433 q 176 243 176 292 m 605 445 q 673 529 605 513 q 707 533 689 533 q 799 481 785 533 q 800 465 800 473 q 780 418 799 435 q 669 434 735 434 q 606 430 640 434 q 605 445 605 437 m 1055 425 q 1115 297 1055 335 q 1173 281 1142 281 q 1278 381 1275 286 q 1229 457 1276 431 l 1229 467 q 1275 515 1232 513 q 1340 407 1324 515 q 1345 315 1345 366 q 1286 87 1345 109 q 1267 84 1276 84 q 1206 148 1213 84 q 1204 165 1204 157 q 1208 208 1204 187 l 1172 208 q 1166 159 1166 184 q 1249 11 1166 49 q 1321 -3 1280 -3 q 1515 157 1469 -3 q 1533 292 1533 217 q 1453 522 1533 446 q 1322 572 1400 572 q 1200 509 1232 572 q 1191 463 1191 487 q 1192 446 1191 452 q 1218 384 1218 419 q 1166 327 1215 328 q 1101 385 1118 327 q 1096 426 1096 404 q 1153 567 1097 518 l 1104 567 q 1055 425 1055 513 z "},"ඍ":{"ha":1184,"x_min":41,"x_max":1130,"o":"m 815 330 l 815 320 l 850 320 l 850 326 q 913 449 850 437 q 925 450 920 450 q 970 389 962 450 q 975 292 975 354 q 903 274 945 290 q 815 141 817 236 q 857 28 815 72 q 925 -1 887 -1 q 975 18 947 -1 q 990 23 985 23 q 1010 4 1004 20 l 1109 4 q 1108 30 1108 14 q 1116 111 1108 46 q 1130 269 1130 222 q 1010 515 1130 481 q 967 521 989 521 q 825 406 856 521 q 815 330 815 372 m 857 141 q 935 245 859 221 q 975 255 971 255 l 975 243 q 975 209 975 232 q 974 151 974 174 q 985 56 974 64 q 974 53 979 56 q 928 39 945 39 q 860 110 875 39 q 857 141 857 126 m 41 203 q 114 43 41 104 q 243 -1 170 -1 q 415 109 369 0 q 583 0 458 1 q 779 103 723 0 q 806 220 806 153 q 738 373 806 317 q 703 395 720 387 q 738 448 728 410 q 741 464 741 456 q 648 568 741 548 q 604 572 627 572 q 458 480 500 572 q 441 385 441 437 l 441 369 q 570 381 506 381 q 716 288 713 378 q 621 191 716 212 q 562 186 594 186 q 434 262 435 187 l 434 283 l 399 283 l 399 262 q 271 186 396 187 q 138 248 168 186 q 130 282 130 266 q 225 377 130 361 q 267 381 245 381 q 388 370 330 381 l 388 392 q 304 553 388 510 q 221 571 267 571 q 96 521 133 571 q 81 476 81 499 q 121 426 81 433 q 132 425 127 425 q 193 467 179 426 q 239 514 205 506 q 260 515 250 515 q 331 468 304 515 q 345 415 345 444 l 345 411 q 270 419 307 419 q 54 288 102 419 q 41 203 41 248 m 483 411 q 576 509 491 499 q 595 510 586 510 q 681 469 666 510 q 684 453 684 461 q 665 407 682 426 q 563 419 627 419 q 483 411 513 419 z "},"ඎ":{"ha":1510,"x_min":41,"x_max":1463,"o":"m 815 330 l 815 320 l 850 320 l 850 326 q 913 449 850 437 q 925 450 920 450 q 970 389 962 450 q 975 292 975 354 q 903 274 945 290 q 815 141 817 236 q 857 28 815 72 q 925 -1 887 -1 q 975 18 947 -1 q 990 23 985 23 q 1010 4 1004 20 l 1109 4 q 1108 30 1108 14 q 1116 111 1108 46 q 1130 269 1130 222 q 1010 515 1130 481 q 967 521 989 521 q 825 406 856 521 q 815 330 815 372 m 857 141 q 935 245 859 221 q 975 255 971 255 l 975 243 q 975 209 975 232 q 974 151 974 174 q 985 56 974 64 q 974 53 979 56 q 928 39 945 39 q 860 110 875 39 q 857 141 857 126 m 1149 330 l 1149 320 l 1184 320 l 1184 326 q 1246 449 1184 437 q 1259 450 1253 450 q 1303 389 1295 450 q 1309 292 1309 354 q 1237 274 1279 290 q 1149 141 1150 236 q 1191 28 1149 72 q 1259 -1 1221 -1 q 1309 18 1280 -1 q 1324 23 1318 23 q 1344 4 1337 20 l 1443 4 q 1442 30 1442 14 q 1450 111 1442 46 q 1463 269 1463 222 q 1344 515 1463 481 q 1301 521 1322 521 q 1158 406 1190 521 q 1149 330 1149 372 m 1191 141 q 1268 245 1192 221 q 1309 255 1305 255 l 1309 243 q 1309 209 1309 232 q 1308 151 1308 174 q 1318 56 1308 64 q 1308 53 1313 56 q 1261 39 1279 39 q 1194 110 1208 39 q 1191 141 1191 126 m 41 203 q 114 43 41 104 q 243 -1 170 -1 q 415 109 369 0 q 583 0 458 1 q 779 103 723 0 q 806 220 806 153 q 738 373 806 317 q 703 395 720 387 q 738 448 728 410 q 741 464 741 456 q 648 568 741 548 q 604 572 627 572 q 458 480 500 572 q 441 385 441 437 l 441 369 q 570 381 506 381 q 716 288 713 378 q 621 191 716 212 q 562 186 594 186 q 434 262 435 187 l 434 283 l 399 283 l 399 262 q 271 186 396 187 q 138 248 168 186 q 130 282 130 266 q 225 377 130 361 q 267 381 245 381 q 388 370 330 381 l 388 392 q 304 553 388 510 q 221 571 267 571 q 96 521 133 571 q 81 476 81 499 q 121 426 81 433 q 132 425 127 425 q 193 467 179 426 q 239 514 205 506 q 260 515 250 515 q 331 468 304 515 q 345 415 345 444 l 345 411 q 270 419 307 419 q 54 288 102 419 q 41 203 41 248 m 483 411 q 576 509 491 499 q 595 510 586 510 q 681 469 666 510 q 684 453 684 461 q 665 407 682 426 q 563 419 627 419 q 483 411 513 419 z "},"/":{"ha":591,"x_min":0,"x_max":578,"o":"m 115 -210 l 578 963 l 463 963 l 0 -210 l 115 -210 z "}," ":{"ha":264,"x_min":0,"x_max":0,"o":""},"£":{"ha":770,"x_min":54,"x_max":743,"o":"m 743 243 l 715 243 q 521 145 677 146 q 313 163 444 145 l 312 163 q 328 290 328 222 q 324 400 328 345 l 532 400 l 532 441 l 321 441 q 315 575 315 518 q 376 777 315 742 q 427 789 399 789 q 513 727 496 789 q 519 686 515 715 q 555 600 529 618 q 612 583 576 583 q 699 635 680 583 q 704 663 704 650 q 589 799 704 754 q 414 827 514 827 q 171 736 259 827 q 109 579 109 670 q 132 441 109 518 l 57 441 l 57 400 l 145 400 q 179 311 156 369 q 225 175 217 216 q 163 179 190 179 q 61 121 85 179 q 54 85 54 103 q 107 7 54 27 q 148 0 126 0 q 282 90 231 1 q 319 61 294 80 q 471 -27 411 -11 q 537 -37 505 -37 q 738 164 711 -37 q 743 243 743 201 m 146 38 q 98 85 103 46 q 138 138 98 126 q 160 141 149 141 q 231 123 194 141 q 183 46 231 71 q 146 38 165 38 z "},"∑":{"ha":656,"x_min":7,"x_max":650,"o":"m 647 -176 l 647 121 l 614 121 l 578 27 q 495 -37 556 -28 q 450 -39 476 -39 l 127 -39 l 477 372 l 475 373 l 218 776 l 418 776 q 543 732 509 776 q 579 652 564 705 l 601 579 l 633 579 l 650 814 l 7 814 l 7 785 l 338 281 l 7 -109 l 7 -176 l 647 -176 z "},"t":{"ha":490,"x_min":20,"x_max":483,"o":"m 20 541 l 114 541 l 114 202 q 277 -14 114 5 q 309 -15 293 -15 q 453 53 414 -15 q 483 142 472 87 l 446 148 q 366 27 419 38 q 350 26 358 26 q 289 96 300 26 q 286 130 286 113 l 286 541 l 465 541 l 465 576 l 286 576 l 286 734 l 114 705 l 114 576 l 20 576 l 20 541 z "},"ť":{"ha":490,"x_min":20,"x_max":503,"o":"m 20 541 l 114 541 l 114 202 q 277 -14 114 5 q 309 -15 293 -15 q 453 53 414 -15 q 483 142 472 87 l 446 148 q 366 27 419 38 q 350 26 358 26 q 289 96 300 26 q 286 130 286 113 l 286 541 l 465 541 l 465 576 l 286 576 l 286 734 l 114 705 l 114 576 l 20 576 l 20 541 m 503 819 q 439 926 503 903 q 403 932 422 932 q 321 880 347 932 q 311 836 311 859 q 366 749 311 776 q 388 742 377 745 q 423 708 422 732 q 373 613 423 667 q 370 610 372 612 l 399 589 q 500 787 484 681 q 503 819 503 804 z "},"þ":{"ha":760,"x_min":27,"x_max":722,"o":"m 277 -222 l 277 49 q 438 -14 330 -11 q 654 90 572 -14 q 722 312 722 179 q 618 562 722 484 q 491 604 563 604 q 315 524 382 604 q 274 453 288 491 l 274 882 l 27 882 l 27 846 l 104 846 l 104 -152 q 60 -220 104 -210 q 27 -222 45 -222 l 27 -258 l 380 -258 q 362 -224 380 -227 q 346 -222 354 -222 l 277 -222 m 419 538 q 536 292 536 536 q 410 23 534 24 q 300 113 336 23 q 275 266 275 175 q 349 507 275 435 q 419 538 381 538 z "},"¾":{"ha":1043,"x_min":54,"x_max":989,"o":"m 454 814 l 454 838 l 76 838 l 75 663 l 95 663 l 110 700 q 152 736 122 732 q 172 736 160 736 l 312 736 l 179 598 l 202 582 q 247 591 231 591 q 313 491 311 586 q 233 359 305 365 q 187 400 193 359 q 186 423 186 407 q 160 490 183 476 q 117 499 142 499 q 54 442 60 491 q 148 347 54 373 q 229 338 186 338 q 415 399 347 338 q 460 494 458 439 q 389 601 460 567 q 298 620 350 620 q 237 614 279 620 l 454 814 m 277 -45 l 859 827 l 808 859 l 225 -14 l 277 -45 m 989 -61 q 974 -31 989 -34 q 962 -30 968 -30 l 891 -30 l 891 62 l 989 62 l 989 96 l 891 96 l 891 274 l 865 274 l 853 240 q 777 191 837 195 q 755 191 768 191 l 739 191 l 739 98 l 549 99 q 772 250 732 218 q 898 415 897 347 q 841 477 898 467 q 821 479 830 479 q 746 431 772 479 q 726 387 739 419 q 604 194 675 269 q 495 99 556 144 l 502 65 l 739 64 l 739 -30 l 632 -30 l 632 -61 l 989 -61 z "},"³":{"ha":511,"x_min":53,"x_max":458,"o":"m 453 854 l 453 879 l 75 879 l 73 704 l 94 704 l 109 741 q 151 777 121 773 q 171 777 159 777 l 311 777 l 178 639 l 201 623 q 245 632 229 632 q 312 532 309 627 q 232 400 304 406 q 186 441 191 400 q 184 464 184 448 q 159 530 182 517 q 115 540 141 540 q 53 483 58 532 q 146 388 53 414 q 228 378 184 378 q 414 439 346 378 q 458 534 457 480 q 388 642 458 608 q 297 661 349 661 q 236 655 278 661 l 453 854 z "},"˜":{"ha":678,"x_min":138,"x_max":571,"o":"m 266 884 q 378 838 307 884 q 468 800 438 800 q 543 875 524 803 l 571 871 q 488 705 562 743 q 442 694 467 694 q 328 742 401 694 q 244 779 271 779 q 167 711 186 779 q 165 704 167 707 l 138 708 q 221 873 148 837 q 266 884 243 884 z "},"™":{"ha":791,"x_min":14,"x_max":777,"o":"m 264 488 q 243 509 259 507 l 217 509 l 217 793 q 269 760 254 793 q 271 753 270 757 q 274 746 273 747 l 294 697 l 313 697 l 311 814 l 16 814 l 14 697 l 33 697 l 53 746 q 77 785 68 779 q 109 793 90 793 l 109 509 l 62 509 l 62 488 l 264 488 m 541 483 l 644 745 l 644 509 l 605 509 l 605 488 l 777 488 q 755 509 772 507 l 743 509 l 743 793 l 777 793 l 777 814 l 644 814 l 559 598 l 449 814 l 339 814 l 339 793 l 373 793 l 373 509 l 339 509 l 339 488 l 441 488 q 420 509 435 507 l 399 509 l 399 700 l 518 483 l 541 483 z "},"²":{"ha":502,"x_min":41,"x_max":427,"o":"m 118 534 q 235 601 140 568 q 376 666 342 639 q 422 764 422 705 q 315 882 422 850 q 227 894 274 894 q 75 844 129 894 q 43 776 43 814 q 113 712 49 715 q 175 736 157 712 q 190 789 193 760 q 193 842 187 818 q 224 865 199 865 q 271 811 264 865 q 273 764 273 793 q 198 627 273 678 q 157 602 184 618 q 62 524 84 559 q 41 439 41 487 l 41 433 l 426 433 l 427 601 l 406 601 l 389 559 q 320 534 368 536 l 118 534 z "},"u":{"ha":762,"x_min":20,"x_max":735,"o":"m 703 35 l 656 35 l 656 583 l 418 583 l 418 548 l 484 548 l 483 206 q 406 66 473 100 q 365 57 385 57 q 274 148 288 57 q 271 184 271 165 l 271 583 l 20 583 l 20 548 l 99 548 l 99 208 q 293 -14 102 -12 q 479 95 415 -14 q 487 111 483 103 l 494 0 l 735 0 q 719 34 735 30 q 703 35 712 35 z "},"ú":{"ha":762,"x_min":20,"x_max":735,"o":"m 703 35 l 656 35 l 656 583 l 418 583 l 418 548 l 484 548 l 483 206 q 406 66 473 100 q 365 57 385 57 q 274 148 288 57 q 271 184 271 165 l 271 583 l 20 583 l 20 548 l 99 548 l 99 208 q 293 -14 102 -12 q 479 95 415 -14 q 487 111 483 103 l 494 0 l 735 0 q 719 34 735 30 q 703 35 712 35 m 519 749 q 549 806 548 770 q 510 876 549 852 q 473 887 492 887 q 431 872 452 886 q 358 793 414 859 q 248 682 305 732 l 269 652 q 446 716 308 671 q 519 749 499 735 z "},"û":{"ha":762,"x_min":20,"x_max":735,"o":"m 703 35 l 656 35 l 656 583 l 418 583 l 418 548 l 484 548 l 483 206 q 406 66 473 100 q 365 57 385 57 q 274 148 288 57 q 271 184 271 165 l 271 583 l 20 583 l 20 548 l 99 548 l 99 208 q 293 -14 102 -12 q 479 95 415 -14 q 487 111 483 103 l 494 0 l 735 0 q 719 34 735 30 q 703 35 712 35 m 555 678 l 574 704 q 465 830 537 741 q 395 882 427 878 q 384 883 389 883 q 309 838 346 883 q 285 808 301 829 q 197 704 236 745 l 216 678 q 387 757 286 718 q 555 678 476 722 z "}}}
